<svg width="16" height="18" viewBox="0 0 16 18" fill="none" xmlns="http://www.w3.org/2000/svg">
<path d="M0.928558 4.28572H15.0714M4.85713 4.28572V2.7143C4.85713 2.29753 5.02269 1.89783 5.31739 1.60313C5.61209 1.30843 6.01179 1.14287 6.42856 1.14287H9.57142C9.98819 1.14287 10.3879 1.30843 10.6826 1.60313C10.9773 1.89783 11.1428 2.29753 11.1428 2.7143V4.28572M13.5 4.28572V15.2857C13.5 15.7025 13.3344 16.1022 13.0397 16.3969C12.745 16.6916 12.3453 16.8571 11.9286 16.8571H4.07142C3.65465 16.8571 3.25495 16.6916 2.96025 16.3969C2.66555 16.1022 2.49999 15.7025 2.49999 15.2857V4.28572H13.5Z" stroke="#868686" stroke-linecap="round" stroke-linejoin="round"/>
</svg>
