<svg width="21.64" height="18" viewBox="0 0 16 16" fill="none" xmlns="http://www.w3.org/2000/svg">
<path d="M3.01334 3.956L0.928672 1.872L1.872 0.928665L15.0713 14.1287L14.128 15.0713L11.9213 12.8647C10.7488 13.6084 9.38849 14.0022 8.00001 14C4.40534 14 1.41467 11.4133 0.787338 8C1.07402 6.44714 1.85509 5.0286 3.014 3.956H3.01334ZM9.83801 10.7813L8.86201 9.80533C8.4887 9.98394 8.06919 10.0424 7.66129 9.97252C7.2534 9.90269 6.87721 9.70804 6.58459 9.41542C6.29196 9.1228 6.09732 8.74661 6.02748 8.33871C5.95765 7.93081 6.01606 7.5113 6.19467 7.138L5.21867 6.162C4.79448 6.80299 4.60485 7.57089 4.68189 8.33566C4.75893 9.10043 5.09791 9.81507 5.64142 10.3586C6.18493 10.9021 6.89957 11.2411 7.66435 11.3181C8.42912 11.3952 9.19701 11.2055 9.83801 10.7813ZM5.31601 2.50667C6.14734 2.18 7.05334 2 8.00001 2C11.5947 2 14.5853 4.58667 15.2127 8C15.0084 9.11046 14.5492 10.1584 13.8713 11.0613L11.298 8.488C11.3744 7.97307 11.3292 7.4474 11.166 6.9531C11.0027 6.4588 10.7259 6.00961 10.3578 5.64151C9.98973 5.27341 9.54054 4.99665 9.04624 4.83338C8.55193 4.67012 8.02626 4.62489 7.51134 4.70133L5.31601 2.50733V2.50667Z" fill="#707070"/>
</svg>
