<svg width="50" height="50" viewBox="0 0 50 50" fill="none" xmlns="http://www.w3.org/2000/svg">
<path d="M25 13.75C25 13.0596 24.4404 12.5 23.75 12.5C23.0596 12.5 22.5 13.0596 22.5 13.75V27.5C22.5 27.9486 22.7404 28.3627 23.1298 28.5853L31.8798 33.5853C32.4792 33.9278 33.2428 33.7196 33.5853 33.1202C33.9278 32.5208 33.7196 31.7572 33.1202 31.4147L25 26.7746V13.75Z" fill="#073856"/>
<path d="M25 45C36.0457 45 45 36.0457 45 25C45 13.9543 36.0457 5 25 5C13.9543 5 5 13.9543 5 25C5 36.0457 13.9543 45 25 45ZM42.5 25C42.5 34.665 34.665 42.5 25 42.5C15.335 42.5 7.5 34.665 7.5 25C7.5 15.335 15.335 7.5 25 7.5C34.665 7.5 42.5 15.335 42.5 25Z" fill="#073856"/>
<path d="M23.1298 28.5853L23.0058 28.8024L23.1298 28.5853ZM31.8798 33.5853L31.7558 33.8024L31.8798 33.5853ZM33.5853 33.1202L33.3682 32.9961L33.5853 33.1202ZM33.1202 31.4147L33.2442 31.1976H33.2442L33.1202 31.4147ZM25 26.7746H24.75C24.75 26.8643 24.7981 26.9471 24.876 26.9917L25 26.7746ZM25 42.75C34.8031 42.75 42.75 34.8031 42.75 25H42.25C42.25 34.5269 34.5269 42.25 25 42.25V42.75ZM7.25 25C7.25 34.8031 15.1969 42.75 25 42.75V42.25C15.4731 42.25 7.75 34.5269 7.75 25H7.25ZM25 7.25C15.1969 7.25 7.25 15.1969 7.25 25H7.75C7.75 15.4731 15.4731 7.75 25 7.75V7.25ZM42.75 25C42.75 15.1969 34.8031 7.25 25 7.25V7.75C34.5269 7.75 42.25 15.4731 42.25 25H42.75ZM44.75 25C44.75 35.9076 35.9076 44.75 25 44.75V45.25C36.1838 45.25 45.25 36.1838 45.25 25H44.75ZM25 5.25C35.9076 5.25 44.75 14.0924 44.75 25H45.25C45.25 13.8162 36.1838 4.75 25 4.75V5.25ZM5.25 25C5.25 14.0924 14.0924 5.25 25 5.25V4.75C13.8162 4.75 4.75 13.8162 4.75 25H5.25ZM25 44.75C14.0924 44.75 5.25 35.9076 5.25 25H4.75C4.75 36.1838 13.8162 45.25 25 45.25V44.75ZM23.75 12.75C24.3023 12.75 24.75 13.1977 24.75 13.75H25.25C25.25 12.9216 24.5784 12.25 23.75 12.25V12.75ZM22.75 13.75C22.75 13.1977 23.1977 12.75 23.75 12.75V12.25C22.9216 12.25 22.25 12.9216 22.25 13.75H22.75ZM22.75 27.5V13.75H22.25V27.5H22.75ZM23.2539 28.3682C22.9423 28.1902 22.75 27.8589 22.75 27.5H22.25C22.25 28.0383 22.5384 28.5353 23.0058 28.8024L23.2539 28.3682ZM32.0039 33.3682L23.2539 28.3682L23.0058 28.8024L31.7558 33.8024L32.0039 33.3682ZM33.3682 32.9961C33.0942 33.4757 32.4834 33.6423 32.0039 33.3682L31.7558 33.8024C32.4751 34.2134 33.3913 33.9635 33.8024 33.2442L33.3682 32.9961ZM32.9961 31.6318C33.4757 31.9058 33.6423 32.5166 33.3682 32.9961L33.8024 33.2442C34.2134 32.5249 33.9635 31.6086 33.2442 31.1976L32.9961 31.6318ZM24.876 26.9917L32.9961 31.6318L33.2442 31.1976L25.124 26.5575L24.876 26.9917ZM24.75 13.75V26.7746H25.25V13.75H24.75Z" fill="#073856"/>
</svg>
