<svg width="50" height="50" viewBox="0 0 50 50" fill="none" xmlns="http://www.w3.org/2000/svg">
<mask id="path-1-inside-1_433_667" fill="white">
<path d="M9.96094 39.3229C9.96094 38.6038 10.573 38.0208 11.3281 38.0208H38.6719C39.427 38.0208 40.0391 38.6038 40.0391 39.3229C40.0391 40.042 39.427 40.625 38.6719 40.625H11.3281C10.573 40.625 9.96094 40.042 9.96094 39.3229Z"/>
<path d="M41.3816 11.9792C41.3925 11.9796 41.4146 11.9806 41.4464 11.9827C41.5233 11.9879 41.6509 11.9997 41.8112 12.0251C42.1448 12.0781 42.5479 12.1791 42.9178 12.3553C43.277 12.5263 43.553 12.742 43.7454 13.0168C43.9263 13.2753 44.1406 13.7369 44.1406 14.5833V30.1848C44.1402 30.1952 44.1392 30.2162 44.1369 30.2466C44.1314 30.3198 44.1191 30.4413 44.0924 30.594C44.0368 30.9117 43.9307 31.2956 43.7457 31.6479C43.5661 31.99 43.3396 32.2529 43.0511 32.4361C42.7797 32.6084 42.295 32.8125 41.4062 32.8125H8.61843C8.60754 32.8121 8.58545 32.8111 8.55358 32.8089C8.47674 32.8037 8.34911 32.792 8.18879 32.7666C7.85517 32.7136 7.45215 32.6125 7.08222 32.4364C6.72301 32.2653 6.44697 32.0496 6.25463 31.7749C6.0737 31.5164 5.85938 31.0547 5.85938 30.2083V14.6068C5.8598 14.5965 5.86083 14.5754 5.86311 14.5451C5.8686 14.4719 5.8809 14.3503 5.90762 14.1977C5.96322 13.8799 6.06933 13.4961 6.25429 13.1438C6.4339 12.8017 6.66037 12.5388 6.94889 12.3556C7.22029 12.1833 7.70504 11.9792 8.59375 11.9792H41.3816ZM41.4062 9.375H8.59375C3.125 9.375 3.125 14.5833 3.125 14.5833V30.2083C3.125 35.4167 8.59375 35.4167 8.59375 35.4167H41.4062C46.875 35.4167 46.875 30.2083 46.875 30.2083V14.5833C46.875 9.375 41.4062 9.375 41.4062 9.375Z"/>
</mask>
<path d="M9.96094 39.3229C9.96094 38.6038 10.573 38.0208 11.3281 38.0208H38.6719C39.427 38.0208 40.0391 38.6038 40.0391 39.3229C40.0391 40.042 39.427 40.625 38.6719 40.625H11.3281C10.573 40.625 9.96094 40.042 9.96094 39.3229Z" fill="#073856"/>
<path d="M41.3816 11.9792C41.3925 11.9796 41.4146 11.9806 41.4464 11.9827C41.5233 11.9879 41.6509 11.9997 41.8112 12.0251C42.1448 12.0781 42.5479 12.1791 42.9178 12.3553C43.277 12.5263 43.553 12.742 43.7454 13.0168C43.9263 13.2753 44.1406 13.7369 44.1406 14.5833V30.1848C44.1402 30.1952 44.1392 30.2162 44.1369 30.2466C44.1314 30.3198 44.1191 30.4413 44.0924 30.594C44.0368 30.9117 43.9307 31.2956 43.7457 31.6479C43.5661 31.99 43.3396 32.2529 43.0511 32.4361C42.7797 32.6084 42.295 32.8125 41.4062 32.8125H8.61843C8.60754 32.8121 8.58545 32.8111 8.55358 32.8089C8.47674 32.8037 8.34911 32.792 8.18879 32.7666C7.85517 32.7136 7.45215 32.6125 7.08222 32.4364C6.72301 32.2653 6.44697 32.0496 6.25463 31.7749C6.0737 31.5164 5.85938 31.0547 5.85938 30.2083V14.6068C5.8598 14.5965 5.86083 14.5754 5.86311 14.5451C5.8686 14.4719 5.8809 14.3503 5.90762 14.1977C5.96322 13.8799 6.06933 13.4961 6.25429 13.1438C6.4339 12.8017 6.66037 12.5388 6.94889 12.3556C7.22029 12.1833 7.70504 11.9792 8.59375 11.9792H41.3816ZM41.4062 9.375H8.59375C3.125 9.375 3.125 14.5833 3.125 14.5833V30.2083C3.125 35.4167 8.59375 35.4167 8.59375 35.4167H41.4062C46.875 35.4167 46.875 30.2083 46.875 30.2083V14.5833C46.875 9.375 41.4062 9.375 41.4062 9.375Z" fill="#073856"/>
<path d="M41.3816 11.9792L41.4002 11.4795C41.394 11.4793 41.3878 11.4792 41.3816 11.4792V11.9792ZM6.94889 12.3556L7.21689 12.7777L7.21689 12.7777L6.94889 12.3556ZM6.25429 13.1438L5.81159 12.9114H5.81159L6.25429 13.1438ZM5.90762 14.1977L6.40014 14.2838V14.2838L5.90762 14.1977ZM5.86311 14.5451L5.36451 14.5077V14.5077L5.86311 14.5451ZM5.85938 14.6068L5.3598 14.5863C5.35952 14.5931 5.35938 14.6 5.35938 14.6068H5.85938ZM6.25463 31.7749L5.84501 32.0616L5.84501 32.0616L6.25463 31.7749ZM7.08222 32.4364L7.29719 31.985H7.29719L7.08222 32.4364ZM8.18879 32.7666L8.26717 32.2727H8.26717L8.18879 32.7666ZM8.55358 32.8089L8.51964 33.3078L8.51969 33.3078L8.55358 32.8089ZM8.61843 32.8125L8.59985 33.3122C8.60604 33.3124 8.61223 33.3125 8.61843 33.3125V32.8125ZM43.0511 32.4361L43.3191 32.8582L43.3191 32.8582L43.0511 32.4361ZM43.7457 31.6479L44.1884 31.8803L43.7457 31.6479ZM44.0924 30.594L43.5999 30.5078V30.5078L44.0924 30.594ZM44.1369 30.2466L44.6355 30.284L44.6355 30.2839L44.1369 30.2466ZM44.1406 30.1848L44.6402 30.2053C44.6405 30.1985 44.6406 30.1917 44.6406 30.1848H44.1406ZM43.7454 13.0168L43.3358 13.3035V13.3035L43.7454 13.0168ZM42.9178 12.3553L43.1327 11.9038V11.9038L42.9178 12.3553ZM41.8112 12.0251L41.7328 12.5189V12.5189L41.8112 12.0251ZM41.4464 11.9827L41.4804 11.4839V11.4839L41.4464 11.9827ZM11.3281 37.5208C10.3202 37.5208 9.46094 38.3049 9.46094 39.3229H10.4609C10.4609 38.9026 10.8259 38.5208 11.3281 38.5208V37.5208ZM38.6719 37.5208H11.3281V38.5208H38.6719V37.5208ZM40.5391 39.3229C40.5391 38.3049 39.6798 37.5208 38.6719 37.5208V38.5208C39.1741 38.5208 39.5391 38.9026 39.5391 39.3229H40.5391ZM38.6719 41.125C39.6798 41.125 40.5391 40.3409 40.5391 39.3229H39.5391C39.5391 39.7432 39.1741 40.125 38.6719 40.125V41.125ZM11.3281 41.125H38.6719V40.125H11.3281V41.125ZM9.46094 39.3229C9.46094 40.3409 10.3202 41.125 11.3281 41.125V40.125C10.8259 40.125 10.4609 39.7432 10.4609 39.3229H9.46094ZM8.59375 12.4792H41.3816V11.4792H8.59375V12.4792ZM7.21689 12.7777C7.39865 12.6623 7.78802 12.4792 8.59375 12.4792V11.4792C7.62205 11.4792 7.04192 11.7043 6.68088 11.9335L7.21689 12.7777ZM6.69699 13.3762C6.84424 13.0957 7.01591 12.9053 7.21689 12.7777L6.68088 11.9335C6.30483 12.1723 6.02356 12.5076 5.81159 12.9114L6.69699 13.3762ZM6.40014 14.2838C6.44971 14.0005 6.54286 13.6698 6.69699 13.3762L5.81159 12.9114C5.59581 13.3224 5.47673 13.7593 5.4151 14.1115L6.40014 14.2838ZM6.36171 14.5825C6.36615 14.5232 6.37663 14.4182 6.40014 14.2838L5.4151 14.1115C5.38517 14.2825 5.37104 14.4206 5.36451 14.5077L6.36171 14.5825ZM6.35895 14.6274C6.35916 14.6223 6.35988 14.6069 6.36171 14.5825L5.36451 14.5077C5.36179 14.544 5.36044 14.5706 5.3598 14.5863L6.35895 14.6274ZM6.66425 31.4881C6.5474 31.3212 6.35938 30.9617 6.35938 30.2083H5.35938C5.35938 31.1477 5.59999 31.7116 5.84501 32.0616L6.66425 31.4881ZM7.29719 31.985C6.99581 31.8414 6.79561 31.6758 6.66425 31.4881L5.84501 32.0616C6.09833 32.4235 6.45021 32.6892 6.86726 32.8878L7.29719 31.985ZM8.26717 32.2727C7.96461 32.2247 7.61115 32.1345 7.29719 31.985L6.86726 32.8878C7.29315 33.0906 7.74573 33.2025 8.1104 33.2604L8.26717 32.2727ZM8.58752 32.3101C8.52334 32.3057 8.41072 32.2955 8.26717 32.2727L8.1104 33.2604C8.28751 33.2885 8.43014 33.3017 8.51964 33.3078L8.58752 32.3101ZM8.63701 32.3128C8.63099 32.3126 8.61401 32.3119 8.58748 32.3101L8.51969 33.3078C8.5569 33.3103 8.5841 33.3116 8.59985 33.3122L8.63701 32.3128ZM42.7831 32.014C42.6013 32.1294 42.212 32.3125 41.4062 32.3125V33.3125C42.3779 33.3125 42.9581 33.0874 43.3191 32.8582L42.7831 32.014ZM43.303 31.4155C43.1558 31.6959 42.9841 31.8864 42.7831 32.014L43.3191 32.8582C43.6952 32.6194 43.9764 32.284 44.1884 31.8803L43.303 31.4155ZM43.5999 30.5078C43.5503 30.7911 43.4571 31.1219 43.303 31.4155L44.1884 31.8803C44.4042 31.4693 44.5233 31.0324 44.5849 30.6802L43.5999 30.5078ZM43.6383 30.2092C43.6339 30.2684 43.6234 30.3735 43.5999 30.5078L44.5849 30.6802C44.6148 30.5091 44.629 30.3711 44.6355 30.284L43.6383 30.2092ZM43.641 30.1643C43.6408 30.1694 43.6401 30.1848 43.6383 30.2092L44.6355 30.2839C44.6382 30.2477 44.6396 30.221 44.6402 30.2053L43.641 30.1643ZM43.3358 13.3035C43.4526 13.4705 43.6406 13.83 43.6406 14.5833H44.6406C44.6406 13.6439 44.4 13.0801 44.155 12.7301L43.3358 13.3035ZM42.7028 12.8067C43.0042 12.9502 43.2044 13.1159 43.3358 13.3035L44.155 12.7301C43.9017 12.3682 43.5498 12.1024 43.1327 11.9038L42.7028 12.8067ZM41.7328 12.5189C42.0354 12.567 42.3889 12.6572 42.7028 12.8067L43.1327 11.9038C42.7069 11.701 42.2543 11.5892 41.8896 11.5313L41.7328 12.5189ZM41.4125 12.4816C41.4767 12.4859 41.5893 12.4961 41.7328 12.5189L41.8896 11.5313C41.7125 11.5032 41.5699 11.49 41.4804 11.4839L41.4125 12.4816ZM41.363 12.4788C41.369 12.479 41.386 12.4798 41.4125 12.4816L41.4804 11.4839C41.4431 11.4813 41.4159 11.4801 41.4002 11.4795L41.363 12.4788ZM8.59375 9.875H41.4062V8.875H8.59375V9.875ZM3.125 14.5833C3.625 14.5833 3.625 14.5836 3.625 14.5838C3.625 14.5838 3.625 14.584 3.625 14.5841C3.625 14.5843 3.625 14.5844 3.625 14.5845C3.625 14.5845 3.625 14.5843 3.625 14.5837C3.62501 14.5826 3.62504 14.5803 3.6251 14.5769C3.62521 14.5699 3.62547 14.5583 3.62603 14.5423C3.62715 14.5104 3.62947 14.4611 3.63428 14.3969C3.64392 14.2685 3.66345 14.0815 3.70296 13.8557C3.78238 13.4019 3.94031 12.8039 4.25129 12.2116C4.56099 11.6217 5.01902 11.0434 5.70013 10.6109C6.37928 10.1797 7.3092 9.875 8.59375 9.875V8.875C7.14392 8.875 6.02307 9.22134 5.16412 9.7667C4.30715 10.3108 3.73979 11.0346 3.36589 11.7467C2.99329 12.4565 2.80942 13.1606 2.71793 13.6833C2.672 13.9458 2.64881 14.1658 2.63708 14.3221C2.63121 14.4004 2.62819 14.463 2.62664 14.5074C2.62586 14.5295 2.62545 14.5472 2.62524 14.5599C2.62513 14.5663 2.62507 14.5715 2.62504 14.5754C2.62502 14.5773 2.62501 14.579 2.62501 14.5803C2.625 14.581 2.625 14.5816 2.625 14.5821C2.625 14.5823 2.625 14.5826 2.625 14.5828C2.625 14.5831 2.625 14.5833 3.125 14.5833ZM3.625 30.2083V14.5833H2.625V30.2083H3.625ZM8.59375 35.4167C8.59375 34.9167 8.59396 34.9167 8.59415 34.9167C8.59419 34.9167 8.59436 34.9167 8.59443 34.9167C8.59458 34.9167 8.59465 34.9167 8.59463 34.9167C8.5946 34.9167 8.59424 34.9167 8.59357 34.9167C8.59222 34.9167 8.58959 34.9166 8.58574 34.9166C8.57803 34.9164 8.56541 34.9162 8.5482 34.9156C8.51376 34.9146 8.46105 34.9123 8.3927 34.9076C8.25583 34.8983 8.05721 34.8795 7.81764 34.8415C7.33605 34.765 6.702 34.6131 6.07434 34.3142C5.44808 34.016 4.84057 33.5776 4.38911 32.9327C3.94069 32.2921 3.625 31.4178 3.625 30.2083H2.625C2.625 31.6031 2.9929 32.6819 3.56988 33.5061C4.1438 34.326 4.90349 34.8642 5.64441 35.2171C6.38394 35.5692 7.11708 35.7428 7.66087 35.8291C7.934 35.8725 8.16263 35.8943 8.32483 35.9053C8.40601 35.9109 8.4708 35.9137 8.51647 35.9151C8.53931 35.9159 8.5574 35.9163 8.57038 35.9164C8.57688 35.9165 8.5821 35.9166 8.58601 35.9166C8.58796 35.9166 8.58959 35.9167 8.59088 35.9167C8.59153 35.9167 8.59209 35.9167 8.59257 35.9167C8.59281 35.9167 8.5931 35.9167 8.59322 35.9167C8.5935 35.9167 8.59375 35.9167 8.59375 35.4167ZM41.4062 34.9167H8.59375V35.9167H41.4062V34.9167ZM46.875 30.2083C46.375 30.2083 46.375 30.2081 46.375 30.2079C46.375 30.2078 46.375 30.2076 46.375 30.2075C46.375 30.2074 46.375 30.2072 46.375 30.2072C46.375 30.2072 46.375 30.2074 46.375 30.2079C46.375 30.209 46.375 30.2113 46.3749 30.2148C46.3748 30.2218 46.3745 30.2334 46.374 30.2493C46.3729 30.2813 46.3705 30.3306 46.3657 30.3947C46.3561 30.5232 46.3365 30.7102 46.297 30.9359C46.2176 31.3897 46.0597 31.9877 45.7487 32.5801C45.439 33.17 44.981 33.7483 44.2999 34.1808C43.6207 34.612 42.6908 34.9167 41.4062 34.9167V35.9167C42.8561 35.9167 43.9769 35.5703 44.8359 35.025C45.6928 34.4809 46.2602 33.7571 46.6341 33.0449C47.0067 32.3352 47.1906 31.6311 47.2821 31.1083C47.328 30.8458 47.3512 30.6259 47.3629 30.4695C47.3688 30.3913 47.3718 30.3287 47.3734 30.2843C47.3741 30.2621 47.3745 30.2445 47.3748 30.2317C47.3749 30.2254 47.3749 30.2202 47.375 30.2163C47.375 30.2143 47.375 30.2127 47.375 30.2113C47.375 30.2107 47.375 30.2101 47.375 30.2096C47.375 30.2094 47.375 30.209 47.375 30.2089C47.375 30.2086 47.375 30.2083 46.875 30.2083ZM46.375 14.5833V30.2083H47.375V14.5833H46.375ZM41.4062 9.375C41.4062 9.875 41.406 9.875 41.4058 9.875C41.4058 9.875 41.4056 9.875 41.4056 9.875C41.4054 9.875 41.4054 9.875 41.4054 9.875C41.4054 9.875 41.4058 9.875 41.4064 9.87501C41.4078 9.87502 41.4104 9.87504 41.4143 9.8751C41.422 9.87522 41.4346 9.87547 41.4518 9.87602C41.4862 9.87711 41.5389 9.87937 41.6073 9.88402C41.7442 9.89333 41.9428 9.91217 42.1824 9.9502C42.664 10.0266 43.298 10.1786 43.9257 10.4775C44.5519 10.7757 45.1594 11.214 45.6109 11.859C46.0593 12.4996 46.375 13.3739 46.375 14.5833H47.375C47.375 13.1886 47.0071 12.1098 46.4301 11.2855C45.8562 10.4656 45.0965 9.92743 44.3556 9.57461C43.6161 9.22245 42.8829 9.04888 42.3391 8.96256C42.066 8.91921 41.8374 8.89736 41.6752 8.88633C41.594 8.8808 41.5292 8.87797 41.4835 8.87652C41.4607 8.8758 41.4426 8.87542 41.4296 8.87522C41.4231 8.87512 41.4179 8.87506 41.414 8.87503C41.412 8.87502 41.4104 8.87501 41.4091 8.87501C41.4085 8.875 41.4079 8.875 41.4074 8.875C41.4072 8.875 41.4069 8.875 41.4068 8.875C41.4065 8.875 41.4062 8.875 41.4062 9.375ZM6.35938 30.2083V14.6068H5.35938V30.2083H6.35938ZM41.4062 32.3125H8.61843V33.3125H41.4062V32.3125ZM43.6406 14.5833V30.1848H44.6406V14.5833H43.6406Z" fill="#073856" mask="url(#path-1-inside-1_433_667)"/>
</svg>
