<svg width="145" height="148" viewBox="0 0 145 148" fill="none" xmlns="http://www.w3.org/2000/svg">
<path d="M131.374 89.0756C130.695 91.6834 131.793 94.4367 133.969 95.6203L134.623 94.2574C133.032 93.3319 132.204 91.301 132.694 89.4194C133.377 86.7952 135.933 85.4343 138.787 86.1777C141.625 86.9168 143.198 89.3356 142.51 91.9763C142.012 93.8909 140.266 95.2514 138.356 95.2121L138.172 96.7326C140.764 96.7909 143.147 94.9444 143.83 92.3201C144.741 88.8211 142.791 85.6169 139.178 84.6758C135.569 83.7182 132.285 85.5766 131.374 89.0756Z" fill="white"/>
<path d="M126.364 102.132C124.598 105.5 125.701 109.122 129.053 110.881C132.374 112.624 135.996 111.482 137.762 108.114C139.528 104.746 138.409 101.115 135.088 99.3724C131.736 97.6136 128.13 98.764 126.364 102.132ZM127.571 102.766C128.91 100.213 131.755 99.3762 134.367 100.747C136.979 102.117 137.893 104.927 136.554 107.48C135.216 110.032 132.393 110.862 129.782 109.492C127.17 108.121 126.233 105.318 127.571 102.766Z" fill="white"/>
<path d="M122.646 109.41L120.158 112.352C117.471 115.529 117.509 119.18 120.281 121.527C123.053 123.873 126.646 123.296 129.333 120.119L131.822 117.176L122.646 109.41ZM122.686 111.476L129.779 117.48L128.292 119.237C126.222 121.685 123.459 122.206 121.272 120.355C119.073 118.493 119.118 115.694 121.199 113.233L122.686 111.476Z" fill="white"/>
<path d="M114.02 119.04L107.446 124.307L108.298 125.372L113.648 121.086L116.259 124.348L111.574 128.1L112.427 129.165L117.111 125.413L119.455 128.342L114.239 132.521L115.091 133.586L121.532 128.426L114.02 119.04Z" fill="white"/>
<path d="M98.9036 129.066L97.4787 129.721L99.3166 133.719L98.5823 142.448L100.1 141.75L100.571 134.775L100.726 134.704L106.389 138.856L107.875 138.172L100.742 133.063L98.9036 129.066Z" fill="white"/>
<path d="M86.4879 132.952C82.7871 133.823 80.7741 137.03 81.6408 140.716C82.4997 144.368 85.7347 146.358 89.4354 145.487C93.1362 144.616 95.1453 141.392 94.2864 137.74C93.4197 134.054 90.1886 132.081 86.4879 132.952ZM86.8002 134.28C89.6048 133.62 92.1008 135.223 92.7762 138.095C93.4516 140.967 91.9277 143.499 89.1231 144.159C86.3185 144.819 83.843 143.229 83.1676 140.356C82.4922 137.484 83.9956 134.94 86.8002 134.28Z" fill="white"/>
<path d="M73.6927 134.504C70.8288 134.536 68.8066 136.674 68.8392 139.607L68.9214 147.008L70.4727 146.991L70.3905 139.59C70.3666 137.441 71.7474 135.89 73.7079 135.869C75.6683 135.847 77.1002 137.366 77.1241 139.515L77.2063 146.916L78.7746 146.899L78.6924 139.497C78.6599 136.564 76.5566 134.473 73.6927 134.504Z" fill="white"/>
<path d="M65.446 134.641L63.9234 134.343L63.0205 138.963L60.8455 138.538L57.6658 133.119L55.7417 132.743L59.1058 138.284L58.905 138.245C56.6935 137.917 54.846 139.015 54.4535 141.023C54.0282 143.199 55.4433 144.936 58.0032 145.437L63.1398 146.441L65.446 134.641ZM62.7588 140.302L61.8789 144.805L58.2649 144.098C56.575 143.767 55.7078 142.694 55.976 141.321C56.2475 139.932 57.455 139.265 59.1449 139.595L62.7588 140.302Z" fill="white"/>
<path d="M49.9229 130.584L48.505 129.913L46.1368 134.924L41.2511 132.613L40.6681 133.847L45.5539 136.158L43.9509 139.55L38.4486 136.948L37.8657 138.181L44.7859 141.454L49.9229 130.584Z" fill="white"/>
<path d="M37.6856 123.261C35.3626 121.584 32.4668 122.102 30.7515 124.482L26.4234 130.485L27.6817 131.393L32.0098 125.39C33.2663 123.647 35.2977 123.22 36.8878 124.367C38.4779 125.514 38.728 127.587 37.4715 129.33L33.1434 135.334L34.4155 136.252L38.7436 130.248C40.4589 127.869 40.0086 124.937 37.6856 123.261Z" fill="white"/>
<path d="M29.3846 116.718L28.313 115.596L20.6082 122.959L17.8527 120.073L16.8665 121.015L23.4374 127.897L24.4236 126.955L21.6798 124.081L29.3846 116.718Z" fill="white"/>
<path d="M22.3696 107.357C20.7983 104.961 17.9085 104.41 15.4569 106.02L9.27079 110.08L10.1219 111.378L16.308 107.317C18.1039 106.138 20.1537 106.466 21.2293 108.105C22.3048 109.745 21.7983 111.771 20.0023 112.95L13.8163 117.01L14.6767 118.322L20.8628 114.262C23.3144 112.652 23.9408 109.752 22.3696 107.357Z" fill="white"/>
<path d="M17.9103 100.743L17.3354 99.3013L12.9651 101.046L12.1438 98.9863L14.9726 93.3768L14.2461 91.5551L11.4139 97.3863L11.3381 97.1962C10.4155 95.1589 8.49158 94.2007 6.59144 94.9591C4.53296 95.7807 3.84094 97.9115 4.80753 100.335L6.74703 105.198L17.9103 100.743ZM11.6984 101.551L7.43889 103.251L6.07429 99.8296C5.43622 98.2297 5.86792 96.9189 7.16634 96.4007C8.4806 95.8761 9.69568 96.5296 10.3338 98.1295L11.6984 101.551Z" fill="white"/>
<path d="M13.8233 89.6827L12.2038 81.4148L10.8654 81.6771L12.1833 88.4053L8.08448 89.2088L6.93047 83.3174L5.59207 83.5798L6.74607 89.4711L3.06547 90.1926L1.78032 83.6318L0.441921 83.8942L2.02868 91.9948L13.8233 89.6827Z" fill="white"/>
<path d="M13.7633 61.0355C14.3513 58.4058 13.1586 55.6922 10.9431 54.5847L10.3365 55.9694C11.9588 56.8393 12.8566 58.8403 12.4323 60.7377C11.8406 63.3841 9.33301 64.8327 6.45479 64.1886C3.59321 63.5482 1.93782 61.1854 2.53324 58.5224C2.96492 56.5918 4.66256 55.1716 6.57276 55.1447L6.70431 53.6187C4.11178 53.6502 1.79397 55.5782 1.20227 58.2246C0.413337 61.7531 2.47262 64.8878 6.11615 65.7032C9.75595 66.5352 12.9743 64.564 13.7633 61.0355Z" fill="white"/>
<path d="M18.3148 47.7993C19.9657 44.3733 18.7396 40.7906 15.3303 39.1465C11.9518 37.5172 8.37105 38.7818 6.72022 42.2078C5.0694 45.6338 6.31082 49.2239 9.68938 50.8532C13.0987 52.4974 16.664 51.2253 18.3148 47.7993ZM17.0863 47.2069C15.8352 49.8032 13.0198 50.7364 10.363 49.4552C7.70626 48.174 6.69772 45.3967 7.94879 42.8003C9.19986 40.2039 11.9925 39.2787 14.6493 40.5599C17.306 41.8412 18.3373 44.6105 17.0863 47.2069Z" fill="white"/>
<path d="M21.7324 40.4306L24.1224 37.4074C26.7027 34.1434 26.5438 30.4951 23.6956 28.2417C20.8473 25.9882 17.2755 26.6848 14.6951 29.9488L12.3052 32.9721L21.7324 40.4306ZM21.625 38.3669L14.3373 32.6011L15.7649 30.7952C17.753 28.2803 20.4973 27.6683 22.7438 29.4456C25.0037 31.2336 25.0513 34.0327 23.0526 36.561L21.625 38.3669Z" fill="white"/>
<path d="M30.079 30.44L36.4773 24.9616L35.5904 23.9251L30.3837 28.3831L27.6678 25.2086L32.2269 21.305L31.34 20.2684L26.7809 24.172L24.3421 21.3214L29.4193 16.9742L28.5325 15.9376L22.2637 21.3051L30.079 30.44Z" fill="white"/>
<path d="M44.8102 19.9252L46.2128 19.223L44.2441 15.2881L44.6905 6.53943L43.1964 7.28748L42.9552 14.2741L42.8028 14.3505L37.0068 10.3865L35.5433 11.1193L42.8416 15.9903L44.8102 19.9252Z" fill="white"/>
<path d="M57.2071 15.5724C60.8801 14.5911 62.7963 11.3254 61.8198 7.66734C60.8521 4.04225 57.5591 2.15049 53.8861 3.13174C50.213 4.11299 48.3012 7.39522 49.2689 11.0203C50.2454 14.6783 53.534 16.5536 57.2071 15.5724ZM56.8552 14.2542C54.0716 14.9978 51.5287 13.4705 50.7678 10.6199C50.0068 7.76925 51.4544 5.19359 54.2379 4.44995C57.0215 3.70631 59.5435 5.22152 60.3045 8.07216C61.0654 10.9228 59.6388 13.5105 56.8552 14.2542Z" fill="white"/>
<path d="M69.7617 13.6028C72.6233 13.4833 74.5791 11.2849 74.4567 8.354L74.148 0.958542L72.598 1.02328L72.9067 8.41874C72.9963 10.5658 71.6636 12.1578 69.7048 12.2396C67.7459 12.3214 66.2681 10.8468 66.1785 8.69974L65.8698 1.30428L64.3027 1.36973L64.6114 8.76519C64.7338 11.6961 66.9001 13.7223 69.7617 13.6028Z" fill="white"/>
<path d="M78.0027 13.1524L79.5337 13.4031L80.2937 8.75767L82.4808 9.11577L85.8261 14.4333L87.7609 14.7501L84.2275 9.31535L84.4294 9.34841C86.6499 9.60828 88.4627 8.4534 88.7931 6.43366C89.151 4.24561 87.683 2.55358 85.1089 2.13211L79.9438 1.28643L78.0027 13.1524ZM80.5139 7.41118L81.2546 2.8836L84.8886 3.47861C86.5879 3.75683 87.4878 4.80284 87.2621 6.18299C87.0335 7.57997 85.8473 8.28441 84.148 8.00618L80.5139 7.41118Z" fill="white"/>
<path d="M93.7072 16.686L95.1472 17.308L97.3433 12.2191L102.305 14.3621L102.846 13.1094L97.8839 10.9664L99.3705 7.52165L104.958 9.93504L105.499 8.6824L98.4711 5.64707L93.7072 16.686Z" fill="white"/>
<path d="M106.071 23.4921C108.448 25.0897 111.325 24.4754 112.96 22.0402L117.086 15.8958L115.798 15.0304L111.672 21.1748C110.475 22.9587 108.459 23.4531 106.831 22.3595C105.204 21.2658 104.884 19.2023 106.082 17.4185L110.208 11.274L108.906 10.3991L104.78 16.5436C103.145 18.9787 103.693 21.8944 106.071 23.4921Z" fill="white"/>
<path d="M114.631 29.733L115.739 30.8195L123.198 23.2077L126.047 26.0015L127.001 25.0272L120.208 18.365L119.254 19.3393L122.09 22.1212L114.631 29.733Z" fill="white"/>
<path d="M122.175 39.0986C123.815 41.4475 126.72 41.9141 129.124 40.2342L135.189 35.9953L134.301 34.7229L128.235 38.9619C126.474 40.1925 124.416 39.9251 123.293 38.3172C122.17 36.7093 122.618 34.6699 124.379 33.4392L130.444 29.2003L129.546 27.914L123.48 32.1529C121.077 33.8329 120.535 36.7497 122.175 39.0986Z" fill="white"/>
<path d="M126.863 45.5941L127.48 47.0181L131.797 45.1459L132.678 47.1801L130.016 52.8704L130.796 54.67L133.455 48.7579L133.536 48.9457C134.518 50.9549 136.47 51.856 138.347 51.042C140.38 50.1602 141.009 48.0099 139.972 45.6158L137.89 40.8118L126.863 45.5941ZM133.048 44.6032L137.256 42.7785L138.72 46.1584C139.405 47.7389 139.012 49.0618 137.73 49.618C136.431 50.1811 135.198 49.5636 134.513 47.9832L133.048 44.6032Z" fill="white"/>
<path d="M131.22 56.2775L133.117 64.486L134.446 64.1785L132.902 57.4987L136.971 56.5572L138.323 62.4062L139.652 62.0987L138.3 56.2497L141.954 55.4042L143.46 61.9179L144.789 61.6104L142.929 53.5681L131.22 56.2775Z" fill="white"/>
<path d="M6.10991 74.1664C6.1212 74.7943 5.62159 75.3124 4.99399 75.3237C4.3664 75.335 3.84847 74.8352 3.83718 74.2073C3.82588 73.5795 4.32549 73.0614 4.95309 73.0501C5.58069 73.0388 6.09861 73.5386 6.10991 74.1664Z" fill="white"/>
<path d="M141.378 74.0073C141.389 74.6351 140.89 75.1533 140.262 75.1645C139.635 75.1758 139.117 74.676 139.105 74.0482C139.094 73.4203 139.594 72.9022 140.221 72.8909C140.849 72.8796 141.367 73.3794 141.378 74.0073Z" fill="white"/>
</svg>
