<svg width="50" height="50" viewBox="0 0 50 50" fill="none" xmlns="http://www.w3.org/2000/svg">
<path d="M18.75 25C23.9277 25 28.125 20.8027 28.125 15.625C28.125 10.4473 23.9277 6.25 18.75 6.25C13.5723 6.25 9.375 10.4473 9.375 15.625C9.375 20.8027 13.5723 25 18.75 25ZM25 15.625C25 19.0768 22.2018 21.875 18.75 21.875C15.2982 21.875 12.5 19.0768 12.5 15.625C12.5 12.1732 15.2982 9.375 18.75 9.375C22.2018 9.375 25 12.1732 25 15.625Z" fill="#073856"/>
<path d="M37.5 40.625C37.5 43.75 34.375 43.75 34.375 43.75H3.125C3.125 43.75 0 43.75 0 40.625C0 37.5 3.125 28.125 18.75 28.125C34.375 28.125 37.5 37.5 37.5 40.625ZM34.3749 40.6141C34.3705 39.8429 33.8945 37.5327 31.7746 35.4128C29.7363 33.3745 25.9034 31.25 18.75 31.25C11.5965 31.25 7.7636 33.3745 5.7253 35.4128C3.60548 37.5327 3.12945 39.8429 3.125 40.6141H34.3749Z" fill="#073856"/>
<path fill-rule="evenodd" clip-rule="evenodd" d="M49.5424 16.0826C50.1525 16.6928 50.1525 17.6822 49.5424 18.2924L40.1674 27.6674C39.8743 27.9604 39.4769 28.125 39.0625 28.125C38.6481 28.125 38.2507 27.9604 37.9576 27.6674L33.2701 22.9799C32.66 22.3697 32.66 21.3803 33.2701 20.7701C33.8803 20.16 34.8697 20.16 35.4799 20.7701L39.0625 24.3528L47.3326 16.0826C47.9428 15.4725 48.9322 15.4725 49.5424 16.0826Z" fill="#073856"/>
</svg>
