<svg width="1440" height="1011" viewBox="0 0 1440 1011" fill="none" xmlns="http://www.w3.org/2000/svg">
<g style="mix-blend-mode:overlay">
<g style="mix-blend-mode:overlay">
<path d="M1608.22 11.7475C1312.11 -62.3511 1482.02 577.273 1295.95 715.148C1070.23 882.455 932.861 161.594 828.692 344.425C693.352 581.987 682.854 559.247 398.103 448.012C113.352 336.777 -52.3353 676.334 -52.3353 676.334" stroke="url(#paint0_linear_331_2829)" stroke-width="2" stroke-miterlimit="10"/>
</g>
<g style="mix-blend-mode:overlay">
<path d="M1611.46 41.0267C1308.47 -19.1383 1461.37 561.559 1279.56 702.458C1051.13 879.49 914.63 168.18 809.27 349.778C674.246 583.487 676.045 584.553 392.227 470.578C107.232 355.854 -50.2132 682.412 -50.2132 682.412" stroke="url(#paint1_linear_331_2829)" stroke-width="1.94" stroke-miterlimit="10"/>
</g>
<g style="mix-blend-mode:overlay">
<path d="M1614.7 70.3211C1304.86 24.0715 1440.82 546.054 1263.14 689.771C1032.12 876.672 896.414 174.764 789.848 355.131C655.079 585.007 669.254 609.873 386.337 493.146C101.016 374.908 -47.9976 688.482 -47.9976 688.482" stroke="url(#paint2_linear_331_2829)" stroke-width="1.88" stroke-miterlimit="10"/>
</g>
<g style="mix-blend-mode:overlay">
<path d="M1617.93 99.6004C1301.22 67.2999 1420.34 530.73 1246.73 677.068C1013.16 874.038 877.752 181.077 770.426 360.484C635.38 586.187 662.462 635.194 380.415 515.717C94.7868 393.98 -45.8755 694.561 -45.8755 694.561" stroke="url(#paint3_linear_331_2829)" stroke-width="1.82" stroke-miterlimit="10"/>
</g>
<g style="mix-blend-mode:overlay">
<path d="M1621.17 128.879C1297.59 110.511 1400.01 515.579 1230.4 664.357C994.297 871.551 859.42 187.578 751.003 365.821C616.11 587.608 655.653 660.499 374.493 538.287C88.5714 413.034 -43.7528 700.639 -43.7528 700.639" stroke="url(#paint4_linear_331_2829)" stroke-width="1.76" stroke-miterlimit="10"/>
</g>
<g style="mix-blend-mode:overlay">
<path d="M1624.42 158.142C1293.95 153.724 1379.7 500.567 1214.01 651.683C975.447 869.234 841.104 194.093 731.581 371.175C596.842 589.045 648.861 685.819 368.58 560.795C82.3357 432.044 -41.6224 706.639 -41.6224 706.639" stroke="url(#paint5_linear_331_2829)" stroke-width="1.7" stroke-miterlimit="10"/>
</g>
<g style="mix-blend-mode:overlay">
<path d="M1627.66 187.498C1290.33 196.935 1359.52 485.683 1197.57 638.983C956.674 867.082 822.748 200.674 712.113 376.532C577.6 590.433 642.07 711.14 362.664 583.427C76.1119 451.178 -39.494 712.779 -39.494 712.779" stroke="url(#paint6_linear_331_2829)" stroke-width="1.64" stroke-miterlimit="10"/>
</g>
<g style="mix-blend-mode:overlay">
<path d="M1630.89 216.731C1286.69 240.148 1339.43 470.932 1181.23 626.289C938.1 865.052 804.49 207.137 692.738 381.881C558.385 591.943 635.313 736.503 356.758 605.996C69.8909 470.17 -37.3531 718.887 -37.3531 718.887" stroke="url(#paint7_linear_331_2829)" stroke-width="1.58" stroke-miterlimit="10"/>
</g>
<g style="mix-blend-mode:overlay">
<path d="M1634.13 246.01C1283.06 283.328 1319.44 456.343 1164.84 613.599C919.589 863.203 786.228 213.725 673.284 387.236C539.182 593.42 628.196 762.353 350.834 628.551C63.3141 489.882 -35.158 724.912 -35.158 724.912" stroke="url(#paint8_linear_331_2829)" stroke-width="1.52" stroke-miterlimit="10"/>
</g>
<g style="mix-blend-mode:overlay">
<path d="M1637.36 275.289C1279.44 326.586 1299.53 441.7 1148.45 600.894C901.272 861.43 767.956 220.205 653.892 392.571C520.011 594.894 621.317 787.743 344.914 651.138C57.0722 508.986 -33.1267 731.015 -33.1267 731.015" stroke="url(#paint9_linear_331_2829)" stroke-width="1.46" stroke-miterlimit="10"/>
</g>
<g style="mix-blend-mode:overlay">
<path d="M1640.6 304.568C1275.73 369.853 1279.69 427.238 1132.01 588.209C882.956 859.829 749.706 226.761 634.466 397.878C500.852 596.337 614.561 812.951 339.001 673.645C50.8382 528.012 -30.9793 737.029 -30.9793 737.029" stroke="url(#paint10_linear_331_2829)" stroke-width="1.4" stroke-miterlimit="10"/>
</g>
<g style="mix-blend-mode:overlay">
<path d="M1643.88 333.858C1272.22 413.006 1259.98 412.81 1115.73 575.494C864.901 858.344 731.53 233.263 615.091 403.226C481.761 597.835 607.815 838.251 333.108 696.182C44.658 547.11 -28.8452 743.231 -28.8452 743.231" stroke="url(#paint11_linear_331_2829)" stroke-width="1.35" stroke-miterlimit="10"/>
</g>
<g style="mix-blend-mode:overlay">
<path d="M1647.09 363.14C1268.6 456.217 1240.27 398.476 1099.29 562.809C846.903 856.979 713.272 239.898 595.658 408.627C462.629 599.4 601.01 863.603 327.208 718.828C38.396 566.169 -26.699 749.229 -26.699 749.229" stroke="url(#paint12_linear_331_2829)" stroke-width="1.29" stroke-miterlimit="10"/>
</g>
<g style="mix-blend-mode:overlay">
<path d="M1650.32 392.42C1264.91 499.45 1220.69 384.177 1082.9 550.12C829.119 855.735 695.089 246.494 576.205 413.983C443.51 600.932 594.184 888.895 321.255 741.402C32.2251 585.204 -24.5911 755.325 -24.5911 755.325" stroke="url(#paint13_linear_331_2829)" stroke-width="1.23" stroke-miterlimit="10"/>
</g>
<g style="mix-blend-mode:overlay">
<path d="M1653.56 421.699C1261.29 542.661 1201.17 369.935 1066.45 537.467C811.486 854.601 676.906 253.091 556.781 419.321C424.423 602.477 587.684 913.658 315.348 763.971C26.3152 603.684 -22.4717 761.372 -22.4717 761.372" stroke="url(#paint14_linear_331_2829)" stroke-width="1.17" stroke-miterlimit="10"/>
</g>
<g style="mix-blend-mode:overlay">
<path d="M1656.8 450.993C1257.65 585.874 1181.72 355.733 1050.19 524.718C794.034 853.575 658.757 259.715 537.36 424.673C405.368 604.034 580.877 938.979 309.427 786.542C20.0858 622.755 -20.3519 767.42 -20.3519 767.42" stroke="url(#paint15_linear_331_2829)" stroke-width="1.11" stroke-miterlimit="10"/>
</g>
<g style="mix-blend-mode:overlay">
<path d="M1660.03 480.273C1254.02 629.085 1162.29 341.56 1033.73 512.036C776.762 852.627 640.623 266.338 517.938 430.027C386.332 605.621 574.084 964.284 303.52 809.111C13.8549 641.811 -18.1802 773.525 -18.1802 773.525" stroke="url(#paint16_linear_331_2829)" stroke-width="1.05" stroke-miterlimit="10"/>
</g>
<g style="mix-blend-mode:overlay">
<path d="M1663.24 509.554C1250.38 672.298 1143.04 327.481 1017.33 499.331C759.657 851.803 622.492 272.992 498.519 435.41C367.311 607.207 567.292 989.604 297.6 831.697C7.62657 660.898 -16.0873 779.622 -16.0873 779.622" stroke="url(#paint17_linear_331_2829)" stroke-width="0.99" stroke-miterlimit="10"/>
</g>
<g style="mix-blend-mode:overlay">
<path d="M1666.5 538.831C1246.79 715.522 1123.78 313.277 1000.88 486.647C742.669 851.063 604.331 279.665 479.017 440.74C348.309 608.822 560.492 1015 291.692 854.251C1.41098 679.953 -13.948 785.714 -13.948 785.714" stroke="url(#paint18_linear_331_2829)" stroke-width="0.93" stroke-miterlimit="10"/>
</g>
<g style="mix-blend-mode:overlay">
<path d="M1669.74 568.125C1243.12 758.738 1104.6 299.159 984.568 473.95C726.015 850.385 586.39 286.348 459.671 446.07C329.323 610.451 553.692 1040.23 285.77 876.821C-4.82011 699.009 -11.8298 791.747 -11.8298 791.747" stroke="url(#paint19_linear_331_2829)" stroke-width="0.87" stroke-miterlimit="10"/>
</g>
<g style="mix-blend-mode:overlay">
<path d="M1672.91 597.41C1239.41 801.956 1085.41 285.058 968.092 461.175C709.466 849.838 568.461 293.155 440.249 451.423C310.541 612.248 546.931 1065.55 279.847 899.376C-11.0492 718.08 -9.70698 797.825 -9.70698 797.825" stroke="url(#paint20_linear_331_2829)" stroke-width="0.81" stroke-miterlimit="10"/>
</g>
<g style="mix-blend-mode:overlay">
<path d="M1676.23 626.682C1235.87 845.16 1066.43 270.954 951.786 448.556C693.12 849.287 550.234 299.787 420.827 456.776C291.42 613.765 540.062 1090.87 273.94 921.946C-17.2651 737.135 -7.56938 803.902 -7.56938 803.902" stroke="url(#paint21_linear_331_2829)" stroke-width="0.75" stroke-miterlimit="10"/>
</g>
</g>
<g style="mix-blend-mode:overlay">
<path style="mix-blend-mode:screen" d="M701.351 587.333C701.162 585.388 701.555 583.432 702.481 581.711C703.407 579.991 704.823 578.585 706.549 577.671C708.276 576.757 710.235 576.377 712.178 576.579C714.121 576.781 715.96 577.556 717.462 578.806C718.963 580.056 720.06 581.723 720.611 583.597C721.163 585.471 721.145 587.467 720.56 589.331C719.975 591.195 718.849 592.843 717.326 594.065C715.802 595.288 713.95 596.03 712.003 596.198C709.418 596.42 706.85 595.614 704.855 593.954C702.861 592.295 701.602 589.915 701.351 587.333Z" fill="url(#paint22_radial_331_2829)"/>
<path style="mix-blend-mode:screen" d="M943.81 470.721C943.667 469.211 943.976 467.692 944.697 466.358C945.418 465.023 946.519 463.933 947.86 463.225C949.202 462.517 950.723 462.222 952.231 462.379C953.74 462.536 955.168 463.138 956.335 464.107C957.502 465.076 958.354 466.37 958.785 467.824C959.216 469.279 959.205 470.828 958.755 472.277C958.304 473.725 957.434 475.007 956.254 475.96C955.074 476.914 953.638 477.495 952.128 477.632C951.128 477.724 950.119 477.619 949.16 477.321C948.201 477.024 947.31 476.541 946.537 475.899C945.765 475.257 945.127 474.47 944.659 473.581C944.191 472.693 943.902 471.721 943.81 470.721Z" fill="url(#paint23_radial_331_2829)"/>
<path style="mix-blend-mode:screen" d="M887.667 440.149C887.484 438.208 887.882 436.256 888.809 434.541C889.736 432.826 891.151 431.425 892.875 430.514C894.598 429.603 896.554 429.224 898.493 429.425C900.432 429.626 902.268 430.398 903.769 431.643C905.269 432.887 906.367 434.549 906.923 436.418C907.478 438.286 907.467 440.278 906.891 442.14C906.314 444.003 905.198 445.652 903.684 446.88C902.17 448.108 900.325 448.859 898.384 449.039C895.784 449.279 893.195 448.478 891.186 446.811C889.177 445.144 887.911 442.748 887.667 440.149Z" fill="url(#paint24_radial_331_2829)"/>
<path style="mix-blend-mode:screen" d="M846.457 700.293C846.274 698.352 846.672 696.4 847.6 694.684C848.528 692.969 849.943 691.567 851.668 690.657C853.393 689.747 855.349 689.369 857.289 689.571C859.228 689.773 861.064 690.546 862.564 691.792C864.065 693.039 865.161 694.702 865.715 696.572C866.269 698.442 866.256 700.434 865.677 702.296C865.098 704.159 863.98 705.807 862.463 707.034C860.947 708.26 859.101 709.009 857.158 709.185C854.561 709.421 851.976 708.617 849.97 706.951C847.964 705.284 846.701 702.89 846.457 700.293Z" fill="url(#paint25_radial_331_2829)"/>
<path style="mix-blend-mode:screen" d="M841.643 559.154C836.233 559.654 831.442 555.673 830.942 550.262C830.442 544.852 834.423 540.061 839.833 539.561C845.244 539.061 850.035 543.042 850.535 548.452C851.035 553.863 847.054 558.654 841.643 559.154Z" fill="url(#paint26_radial_331_2829)"/>
<path style="mix-blend-mode:screen" d="M629.992 576.381C629.81 574.44 630.207 572.487 631.135 570.772C632.063 569.057 633.479 567.655 635.203 566.745C636.928 565.834 638.884 565.456 640.824 565.659C642.764 565.861 644.6 566.634 646.1 567.88C647.6 569.127 648.696 570.79 649.25 572.66C649.804 574.53 649.791 576.522 649.212 578.384C648.633 580.247 647.515 581.895 645.998 583.121C644.482 584.348 642.636 585.096 640.694 585.273C638.096 585.509 635.511 584.705 633.505 583.038C631.499 581.372 630.236 578.978 629.992 576.381Z" fill="url(#paint27_radial_331_2829)"/>
<path style="mix-blend-mode:screen" d="M793.423 470.052C793.313 468.867 793.558 467.677 794.125 466.631C794.692 465.585 795.556 464.731 796.609 464.177C797.661 463.622 798.855 463.392 800.038 463.516C801.221 463.64 802.341 464.112 803.256 464.872C804.171 465.632 804.84 466.647 805.179 467.787C805.517 468.928 805.51 470.143 805.157 471.279C804.805 472.415 804.124 473.422 803.2 474.171C802.276 474.92 801.15 475.378 799.965 475.488C798.377 475.634 796.795 475.144 795.568 474.125C794.341 473.105 793.57 471.64 793.423 470.052Z" fill="url(#paint28_radial_331_2829)"/>
<path style="mix-blend-mode:screen" d="M793.643 632.937C793.533 631.752 793.778 630.562 794.345 629.516C794.912 628.47 795.776 627.616 796.829 627.062C797.881 626.507 799.075 626.278 800.258 626.401C801.441 626.525 802.561 626.997 803.476 627.757C804.391 628.517 805.06 629.532 805.398 630.672C805.737 631.813 805.73 633.028 805.377 634.164C805.025 635.301 804.344 636.307 803.42 637.056C802.496 637.805 801.37 638.263 800.185 638.373C798.597 638.519 797.015 638.029 795.788 637.01C794.561 635.99 793.79 634.525 793.643 632.937Z" fill="url(#paint29_radial_331_2829)"/>
<path style="mix-blend-mode:screen" d="M551.109 706.664C550.999 705.479 551.243 704.288 551.811 703.243C552.378 702.197 553.242 701.343 554.295 700.788C555.347 700.234 556.541 700.004 557.724 700.128C558.907 700.252 560.027 700.724 560.942 701.484C561.857 702.244 562.526 703.259 562.864 704.399C563.203 705.539 563.196 706.755 562.843 707.891C562.491 709.027 561.81 710.034 560.886 710.783C559.962 711.532 558.836 711.99 557.651 712.1C556.063 712.246 554.481 711.756 553.254 710.737C552.027 709.717 551.255 708.252 551.109 706.664Z" fill="url(#paint30_radial_331_2829)"/>
<path style="mix-blend-mode:screen" d="M519.011 932.315C518.902 931.13 519.146 929.94 519.713 928.894C520.28 927.848 521.145 926.994 522.197 926.44C523.25 925.885 524.443 925.656 525.626 925.779C526.809 925.903 527.929 926.375 528.844 927.135C529.759 927.895 530.428 928.91 530.767 930.05C531.105 931.191 531.098 932.406 530.746 933.542C530.393 934.679 529.712 935.685 528.788 936.434C527.864 937.183 526.738 937.642 525.554 937.751C523.965 937.898 522.384 937.407 521.157 936.388C519.93 935.368 519.158 933.903 519.011 932.315Z" fill="url(#paint31_radial_331_2829)"/>
<path style="mix-blend-mode:screen" d="M451.887 758.207C451.777 757.022 452.022 755.832 452.589 754.786C453.156 753.74 454.02 752.886 455.073 752.332C456.125 751.778 457.319 751.548 458.502 751.671C459.685 751.795 460.805 752.267 461.72 753.027C462.635 753.787 463.304 754.802 463.643 755.942C463.981 757.083 463.974 758.298 463.621 759.435C463.269 760.571 462.588 761.577 461.664 762.326C460.74 763.075 459.614 763.534 458.429 763.643C456.842 763.786 455.262 763.294 454.036 762.275C452.81 761.256 452.037 759.794 451.887 758.207Z" fill="url(#paint32_radial_331_2829)"/>
<path style="mix-blend-mode:screen" d="M1278.26 664.242C1278.15 663.057 1278.39 661.867 1278.96 660.821C1279.53 659.775 1280.39 658.921 1281.45 658.367C1282.5 657.812 1283.69 657.582 1284.87 657.706C1286.06 657.83 1287.18 658.302 1288.09 659.062C1289.01 659.822 1289.68 660.837 1290.01 661.977C1290.35 663.118 1290.35 664.333 1289.99 665.469C1289.64 666.605 1288.96 667.612 1288.04 668.361C1287.11 669.11 1285.99 669.568 1284.8 669.678C1283.21 669.824 1281.63 669.334 1280.4 668.315C1279.18 667.295 1278.41 665.83 1278.26 664.242Z" fill="url(#paint33_radial_331_2829)"/>
<path style="mix-blend-mode:screen" d="M988.132 554.798C988.023 553.613 988.268 552.422 988.835 551.376C989.403 550.33 990.268 549.476 991.322 548.922C992.375 548.368 993.57 548.138 994.753 548.263C995.937 548.388 997.057 548.862 997.972 549.624C998.886 550.386 999.554 551.402 999.891 552.543C1000.23 553.685 1000.22 554.901 999.863 556.037C999.509 557.173 998.825 558.179 997.899 558.926C996.972 559.674 995.845 560.129 994.659 560.236C993.874 560.308 993.081 560.225 992.328 559.991C991.574 559.757 990.874 559.376 990.268 558.871C989.661 558.366 989.161 557.746 988.794 557.048C988.428 556.349 988.203 555.584 988.132 554.798Z" fill="url(#paint34_radial_331_2829)"/>
<path style="mix-blend-mode:screen" d="M1243.83 688.9C1243.72 687.715 1243.96 686.525 1244.53 685.479C1245.09 684.433 1245.96 683.579 1247.01 683.025C1248.06 682.47 1249.26 682.241 1250.44 682.364C1251.62 682.488 1252.74 682.96 1253.66 683.72C1254.57 684.48 1255.24 685.495 1255.58 686.635C1255.92 687.776 1255.91 688.991 1255.56 690.127C1255.21 691.264 1254.53 692.27 1253.6 693.019C1252.68 693.768 1251.55 694.226 1250.37 694.336C1248.78 694.483 1247.2 693.992 1245.97 692.973C1244.74 691.954 1243.97 690.488 1243.83 688.9Z" fill="url(#paint35_radial_331_2829)"/>
<path style="mix-blend-mode:screen" d="M1397.25 771.779C1397.14 770.595 1397.38 769.404 1397.95 768.359C1398.52 767.313 1399.38 766.459 1400.44 765.904C1401.49 765.35 1402.68 765.12 1403.87 765.244C1405.05 765.368 1406.17 765.84 1407.08 766.6C1408 767.36 1408.67 768.375 1409.01 769.515C1409.34 770.656 1409.34 771.871 1408.98 773.007C1408.63 774.143 1407.95 775.15 1407.03 775.899C1406.1 776.648 1404.98 777.106 1403.79 777.216C1403.01 777.288 1402.21 777.205 1401.46 776.971C1400.7 776.738 1400 776.357 1399.4 775.853C1398.79 775.348 1398.29 774.728 1397.92 774.029C1397.55 773.331 1397.32 772.566 1397.25 771.779Z" fill="url(#paint36_radial_331_2829)"/>
<path style="mix-blend-mode:screen" d="M1067.01 683.305C1066.9 682.12 1067.15 680.93 1067.71 679.884C1068.28 678.838 1069.14 677.984 1070.2 677.43C1071.25 676.875 1072.44 676.646 1073.63 676.769C1074.81 676.893 1075.93 677.365 1076.84 678.125C1077.76 678.885 1078.43 679.9 1078.77 681.04C1079.11 682.181 1079.1 683.396 1078.75 684.532C1078.39 685.669 1077.71 686.675 1076.79 687.424C1075.86 688.173 1074.74 688.631 1073.55 688.741C1071.97 688.888 1070.38 688.397 1069.16 687.378C1067.93 686.358 1067.16 684.893 1067.01 683.305Z" fill="url(#paint37_radial_331_2829)"/>
<path style="mix-blend-mode:screen" d="M964.507 696.614C964.398 695.429 964.642 694.238 965.21 693.192C965.778 692.146 966.643 691.292 967.697 690.737C968.75 690.183 969.944 689.954 971.128 690.079C972.312 690.204 973.432 690.678 974.346 691.44C975.261 692.201 975.929 693.218 976.266 694.359C976.602 695.501 976.593 696.717 976.238 697.853C975.884 698.989 975.2 699.995 974.273 700.742C973.347 701.489 972.22 701.945 971.034 702.052C970.249 702.124 969.456 702.041 968.702 701.807C967.949 701.573 967.249 701.192 966.643 700.687C966.036 700.182 965.535 699.562 965.169 698.863C964.803 698.165 964.578 697.4 964.507 696.614Z" fill="url(#paint38_radial_331_2829)"/>
<path style="mix-blend-mode:screen" d="M984.264 513.091C980.956 513.396 978.027 510.963 977.721 507.655C977.415 504.347 979.849 501.418 983.157 501.112C986.465 500.807 989.394 503.24 989.7 506.548C990.005 509.856 987.571 512.785 984.264 513.091Z" fill="url(#paint39_radial_331_2829)"/>
<path style="mix-blend-mode:screen" d="M1053.54 602.901C1053.43 601.716 1053.67 600.525 1054.24 599.477C1054.8 598.429 1055.67 597.573 1056.72 597.016C1057.77 596.459 1058.96 596.227 1060.15 596.349C1061.33 596.471 1062.45 596.942 1063.37 597.701C1064.29 598.461 1064.96 599.475 1065.3 600.616C1065.64 601.757 1065.63 602.972 1065.28 604.11C1064.93 605.247 1064.24 606.254 1063.32 607.004C1062.4 607.754 1061.27 608.212 1060.08 608.322C1058.5 608.468 1056.92 607.98 1055.69 606.964C1054.47 605.948 1053.69 604.487 1053.54 602.901Z" fill="url(#paint40_radial_331_2829)"/>
<path style="mix-blend-mode:screen" d="M1429.62 631.544C1426.31 631.849 1423.38 629.415 1423.08 626.107C1422.77 622.8 1425.21 619.87 1428.51 619.565C1431.82 619.259 1434.75 621.693 1435.06 625.001C1435.36 628.309 1432.93 631.238 1429.62 631.544Z" fill="url(#paint41_radial_331_2829)"/>
<path style="mix-blend-mode:screen" d="M1339.61 654.734C1339.5 653.549 1339.75 652.359 1340.31 651.313C1340.88 650.267 1341.75 649.413 1342.8 648.859C1343.85 648.304 1345.04 648.075 1346.23 648.198C1347.41 648.322 1348.53 648.794 1349.44 649.554C1350.36 650.314 1351.03 651.329 1351.37 652.469C1351.71 653.61 1351.7 654.825 1351.35 655.961C1350.99 657.098 1350.31 658.104 1349.39 658.853C1348.46 659.602 1347.34 660.061 1346.15 660.17C1344.57 660.317 1342.98 659.826 1341.76 658.807C1340.53 657.788 1339.76 656.322 1339.61 654.734Z" fill="url(#paint42_radial_331_2829)"/>
<path style="mix-blend-mode:screen" d="M1070.66 553.214C1070.55 552.03 1070.8 550.839 1071.37 549.794C1071.93 548.748 1072.8 547.894 1073.85 547.339C1074.9 546.785 1076.1 546.555 1077.28 546.679C1078.46 546.803 1079.58 547.274 1080.5 548.035C1081.41 548.795 1082.08 549.809 1082.42 550.95C1082.76 552.09 1082.75 553.305 1082.4 554.442C1082.05 555.578 1081.37 556.584 1080.44 557.333C1079.52 558.083 1078.39 558.541 1077.21 558.65C1075.62 558.797 1074.04 558.307 1072.81 557.287C1071.58 556.268 1070.81 554.803 1070.66 553.214Z" fill="url(#paint43_radial_331_2829)"/>
<path style="mix-blend-mode:screen" d="M1259.31 589.916C1259.2 588.732 1259.45 587.541 1260.01 586.496C1260.58 585.45 1261.45 584.596 1262.5 584.041C1263.55 583.487 1264.74 583.257 1265.93 583.381C1267.11 583.505 1268.23 583.977 1269.14 584.737C1270.06 585.497 1270.73 586.512 1271.07 587.652C1271.41 588.792 1271.4 590.008 1271.05 591.144C1270.69 592.28 1270.01 593.287 1269.09 594.036C1268.16 594.785 1267.04 595.243 1265.85 595.353C1265.07 595.427 1264.27 595.346 1263.52 595.113C1262.76 594.88 1262.06 594.5 1261.45 593.994C1260.84 593.489 1260.34 592.869 1259.98 592.169C1259.61 591.469 1259.38 590.704 1259.31 589.916Z" fill="url(#paint44_radial_331_2829)"/>
<path style="mix-blend-mode:screen" d="M1142.79 588.725C1139.49 589.03 1136.56 586.597 1136.25 583.289C1135.95 579.981 1138.38 577.052 1141.69 576.746C1144.99 576.44 1147.92 578.874 1148.23 582.182C1148.54 585.49 1146.1 588.419 1142.79 588.725Z" fill="url(#paint45_radial_331_2829)"/>
<path style="mix-blend-mode:screen" d="M1344.83 776.622C1344.72 775.437 1344.97 774.247 1345.53 773.201C1346.1 772.155 1346.97 771.301 1348.02 770.747C1349.07 770.193 1350.26 769.963 1351.45 770.086C1352.63 770.21 1353.75 770.682 1354.66 771.442C1355.58 772.203 1356.25 773.217 1356.59 774.358C1356.93 775.498 1356.92 776.713 1356.57 777.85C1356.21 778.986 1355.53 779.992 1354.61 780.741C1353.68 781.49 1352.56 781.949 1351.37 782.058C1349.79 782.205 1348.2 781.715 1346.98 780.695C1345.75 779.676 1344.98 778.211 1344.83 776.622Z" fill="url(#paint46_radial_331_2829)"/>
<path style="mix-blend-mode:screen" d="M1098.44 523.209C1098.33 522.024 1098.57 520.834 1099.14 519.788C1099.71 518.742 1100.57 517.888 1101.62 517.334C1102.68 516.779 1103.87 516.549 1105.05 516.673C1106.24 516.797 1107.36 517.269 1108.27 518.029C1109.19 518.789 1109.85 519.804 1110.19 520.944C1110.53 522.085 1110.52 523.3 1110.17 524.436C1109.82 525.572 1109.14 526.579 1108.21 527.328C1107.29 528.077 1106.16 528.535 1104.98 528.645C1103.39 528.791 1101.81 528.301 1100.58 527.282C1099.36 526.262 1098.58 524.797 1098.44 523.209Z" fill="url(#paint47_radial_331_2829)"/>
<path style="mix-blend-mode:screen" d="M1021.27 511.171C1021.16 509.986 1021.4 508.795 1021.97 507.749C1022.54 506.702 1023.4 505.848 1024.46 505.294C1025.51 504.74 1026.7 504.511 1027.89 504.636C1029.07 504.761 1030.19 505.234 1031.1 505.996C1032.02 506.758 1032.69 507.774 1033.02 508.916C1033.36 510.058 1033.35 511.273 1033 512.41C1032.64 513.546 1031.96 514.551 1031.03 515.299C1030.11 516.046 1028.98 516.502 1027.79 516.609C1026.21 516.751 1024.63 516.258 1023.4 515.239C1022.18 514.22 1021.41 512.757 1021.27 511.171Z" fill="url(#paint48_radial_331_2829)"/>
<path style="mix-blend-mode:screen" d="M1226.15 628.302C1226.04 627.118 1226.28 625.927 1226.85 624.882C1227.42 623.836 1228.28 622.982 1229.33 622.427C1230.39 621.873 1231.58 621.643 1232.76 621.767C1233.94 621.891 1235.06 622.362 1235.98 623.123C1236.89 623.883 1237.56 624.897 1237.9 626.038C1238.24 627.178 1238.23 628.393 1237.88 629.53C1237.53 630.666 1236.85 631.672 1235.92 632.421C1235 633.171 1233.87 633.629 1232.69 633.738C1231.9 633.811 1231.11 633.728 1230.36 633.494C1229.6 633.26 1228.9 632.88 1228.29 632.375C1227.68 631.871 1227.18 631.251 1226.81 630.552C1226.45 629.853 1226.22 629.089 1226.15 628.302Z" fill="url(#paint49_radial_331_2829)"/>
<path style="mix-blend-mode:screen" d="M996.322 442.394C996.213 441.21 996.457 440.019 997.024 438.974C997.591 437.928 998.456 437.074 999.508 436.519C1000.56 435.965 1001.75 435.735 1002.94 435.859C1004.12 435.983 1005.24 436.454 1006.16 437.215C1007.07 437.975 1007.74 438.989 1008.08 440.13C1008.42 441.27 1008.41 442.486 1008.06 443.622C1007.7 444.758 1007.02 445.765 1006.1 446.514C1005.17 447.263 1004.05 447.721 1002.86 447.83C1001.28 447.977 999.695 447.487 998.468 446.467C997.241 445.448 996.469 443.983 996.322 442.394Z" fill="url(#paint50_radial_331_2829)"/>
<path style="mix-blend-mode:screen" d="M946.838 547.094C941.428 547.594 936.637 543.613 936.137 538.203C935.637 532.792 939.618 528.001 945.028 527.501C950.439 527.001 955.23 530.982 955.73 536.393C956.23 541.803 952.249 546.594 946.838 547.094Z" fill="url(#paint51_radial_331_2829)"/>
<path style="mix-blend-mode:screen" d="M1279.7 603.969C1279.52 602.027 1279.91 600.075 1280.84 598.36C1281.77 596.644 1283.19 595.243 1284.91 594.333C1286.64 593.422 1288.59 593.044 1290.53 593.247C1292.47 593.449 1294.31 594.222 1295.81 595.468C1297.31 596.714 1298.4 598.378 1298.96 600.248C1299.51 602.117 1299.5 604.11 1298.92 605.972C1298.34 607.834 1297.22 609.483 1295.71 610.709C1294.19 611.936 1292.34 612.684 1290.4 612.861C1287.8 613.096 1285.22 612.293 1283.21 610.626C1281.21 608.96 1279.94 606.566 1279.7 603.969Z" fill="url(#paint52_radial_331_2829)"/>
<path style="mix-blend-mode:screen" d="M650.69 537.867C650.511 535.93 650.91 533.983 651.838 532.272C652.765 530.562 654.179 529.165 655.901 528.258C657.623 527.351 659.574 526.975 661.51 527.177C663.445 527.38 665.277 528.152 666.773 529.395C668.27 530.639 669.364 532.298 669.918 534.164C670.471 536.029 670.459 538.017 669.883 539.875C669.307 541.734 668.193 543.38 666.681 544.605C665.17 545.83 663.329 546.58 661.391 546.759C660.104 546.88 658.806 546.746 657.571 546.364C656.336 545.982 655.189 545.361 654.195 544.535C653.201 543.708 652.379 542.694 651.778 541.55C651.176 540.406 650.806 539.155 650.69 537.867Z" fill="url(#paint53_radial_331_2829)"/>
<path style="mix-blend-mode:screen" d="M948.361 765.472C942.95 765.972 938.159 761.991 937.659 756.58C937.16 751.17 941.14 746.379 946.551 745.879C951.961 745.379 956.753 749.36 957.252 754.77C957.752 760.181 953.771 764.972 948.361 765.472Z" fill="url(#paint54_radial_331_2829)"/>
<path style="mix-blend-mode:screen" d="M754.54 734.102C754.361 732.164 754.761 730.217 755.688 728.507C756.616 726.796 758.03 725.399 759.752 724.492C761.473 723.586 763.425 723.21 765.36 723.412C767.296 723.615 769.127 724.386 770.624 725.63C772.121 726.873 773.215 728.533 773.768 730.398C774.322 732.264 774.31 734.251 773.734 736.11C773.158 737.968 772.043 739.614 770.532 740.84C769.02 742.065 767.179 742.815 765.242 742.994C762.644 743.234 760.056 742.432 758.05 740.764C756.043 739.097 754.78 736.7 754.54 734.102Z" fill="url(#paint55_radial_331_2829)"/>
<path style="mix-blend-mode:screen" d="M1053.13 792.441C1052.95 790.5 1053.35 788.547 1054.28 786.832C1055.21 785.117 1056.62 783.715 1058.35 782.805C1060.07 781.895 1062.03 781.517 1063.97 781.719C1065.91 781.921 1067.74 782.694 1069.24 783.94C1070.74 785.187 1071.84 786.85 1072.39 788.72C1072.95 790.59 1072.93 792.582 1072.36 794.444C1071.78 796.306 1070.66 797.955 1069.14 799.181C1067.62 800.408 1065.78 801.156 1063.84 801.333C1061.24 801.569 1058.65 800.765 1056.65 799.098C1054.64 797.432 1053.38 795.038 1053.13 792.441Z" fill="url(#paint56_radial_331_2829)"/>
<g style="mix-blend-mode:overlay" opacity="0.33">
<path style="mix-blend-mode:screen" opacity="0.33" d="M577.452 648.508C566.7 649.501 557.178 641.59 556.184 630.837C555.191 620.084 563.102 610.562 573.855 609.569C584.608 608.576 594.13 616.487 595.123 627.24C596.116 637.992 588.205 647.514 577.452 648.508Z" fill="url(#paint57_radial_331_2829)"/>
</g>
<g style="mix-blend-mode:overlay" opacity="0.33">
<path style="mix-blend-mode:screen" opacity="0.33" d="M755.206 527.416C744.453 528.409 734.931 520.498 733.938 509.745C732.945 498.992 740.856 489.47 751.609 488.477C762.361 487.484 771.883 495.395 772.876 506.148C773.87 516.9 765.958 526.422 755.206 527.416Z" fill="url(#paint58_radial_331_2829)"/>
</g>
<g style="mix-blend-mode:overlay" opacity="0.33">
<path style="mix-blend-mode:screen" opacity="0.33" d="M1434.37 720.147C1423.61 719.232 1415.63 709.768 1416.55 699.008C1417.46 688.249 1426.93 680.268 1437.69 681.184C1448.45 682.099 1456.43 691.563 1455.51 702.322C1454.6 713.082 1445.13 721.062 1434.37 720.147Z" fill="url(#paint59_radial_331_2829)"/>
</g>
<g style="mix-blend-mode:overlay" opacity="0.33">
<path style="mix-blend-mode:screen" opacity="0.33" d="M669.968 658.112C658.136 648.282 656.514 630.722 666.344 618.891C676.174 607.059 693.734 605.437 705.566 615.267C717.397 625.097 719.019 642.657 709.189 654.489C699.359 666.32 681.799 667.942 669.968 658.112Z" fill="url(#paint60_radial_331_2829)"/>
</g>
<g style="mix-blend-mode:overlay" opacity="0.33">
<path style="mix-blend-mode:screen" opacity="0.33" d="M528.689 822.333C513.372 823.748 499.808 812.478 498.393 797.162C496.978 781.845 508.248 768.281 523.565 766.866C538.882 765.451 552.446 776.72 553.861 792.037C555.276 807.354 544.006 820.918 528.689 822.333Z" fill="url(#paint61_radial_331_2829)"/>
</g>
<g style="mix-blend-mode:overlay" opacity="0.33">
<path style="mix-blend-mode:screen" opacity="0.33" d="M418.804 659.967C397.214 642.029 394.254 609.986 412.192 588.397C430.13 566.807 462.173 563.847 483.762 581.785C505.352 599.722 508.312 631.765 490.374 653.355C472.436 674.944 440.393 677.904 418.804 659.967Z" fill="url(#paint62_radial_331_2829)"/>
</g>
<g style="mix-blend-mode:overlay" opacity="0.33">
<path style="mix-blend-mode:screen" opacity="0.33" d="M1438.71 602.671C1410.76 605.254 1386.01 584.689 1383.42 556.739C1380.84 528.789 1401.41 504.038 1429.36 501.456C1457.31 498.874 1482.06 519.438 1484.64 547.388C1487.22 575.338 1466.66 600.089 1438.71 602.671Z" fill="url(#paint63_radial_331_2829)"/>
</g>
<g style="mix-blend-mode:overlay" opacity="0.33">
<path style="mix-blend-mode:screen" opacity="0.33" d="M1168.18 711.809C1152.86 713.224 1139.3 701.954 1137.88 686.637C1136.47 671.321 1147.74 657.757 1163.06 656.342C1178.37 654.927 1191.94 666.196 1193.35 681.513C1194.77 696.83 1183.5 710.394 1168.18 711.809Z" fill="url(#paint64_radial_331_2829)"/>
</g>
<g style="mix-blend-mode:overlay" opacity="0.33">
<path style="mix-blend-mode:screen" opacity="0.33" d="M1286.83 870.073C1275 860.243 1273.38 842.683 1283.21 830.852C1293.04 819.021 1310.6 817.398 1322.43 827.228C1334.26 837.059 1335.89 854.619 1326.06 866.45C1316.23 878.281 1298.67 879.903 1286.83 870.073Z" fill="url(#paint65_radial_331_2829)"/>
</g>
<g style="mix-blend-mode:overlay" opacity="0.13">
<path style="mix-blend-mode:screen" opacity="0.13" d="M615.258 548.679C599.941 550.094 586.377 538.825 584.962 523.508C583.547 508.191 594.817 494.627 610.134 493.212C625.451 491.797 639.015 503.067 640.43 518.384C641.845 533.701 630.575 547.264 615.258 548.679Z" fill="url(#paint66_radial_331_2829)"/>
</g>
<g style="mix-blend-mode:overlay" opacity="0.13">
<path style="mix-blend-mode:screen" opacity="0.13" d="M477.214 901.588C461.897 903.003 448.333 891.733 446.918 876.416C445.503 861.099 456.773 847.536 472.09 846.121C487.406 844.706 500.97 855.975 502.385 871.292C503.8 886.609 492.531 900.173 477.214 901.588Z" fill="url(#paint67_radial_331_2829)"/>
</g>
<g style="mix-blend-mode:overlay" opacity="0.33">
<path style="mix-blend-mode:screen" opacity="0.33" d="M758.554 564.504C758.414 563.022 758.717 561.532 759.424 560.223C760.132 558.913 761.211 557.842 762.527 557.147C763.843 556.451 765.336 556.161 766.816 556.314C768.297 556.467 769.699 557.056 770.845 558.006C771.991 558.956 772.829 560.224 773.253 561.651C773.678 563.078 773.67 564.598 773.23 566.02C772.79 567.442 771.938 568.702 770.782 569.639C769.626 570.577 768.218 571.15 766.735 571.287C764.751 571.471 762.776 570.859 761.242 569.588C759.708 568.316 758.742 566.488 758.554 564.504Z" fill="url(#paint68_radial_331_2829)"/>
</g>
<g style="mix-blend-mode:overlay" opacity="0.58">
<path style="mix-blend-mode:screen" opacity="0.58" d="M616.815 728.735C616.678 727.257 616.983 725.771 617.691 724.466C618.399 723.161 619.478 722.095 620.791 721.403C622.105 720.711 623.594 720.424 625.071 720.579C626.547 720.733 627.945 721.322 629.087 722.271C630.229 723.22 631.064 724.486 631.486 725.909C631.909 727.333 631.9 728.849 631.46 730.267C631.021 731.686 630.17 732.942 629.017 733.876C627.863 734.811 626.459 735.383 624.98 735.52C623.999 735.611 623.009 735.507 622.067 735.215C621.126 734.923 620.251 734.449 619.492 733.819C618.734 733.189 618.107 732.416 617.648 731.543C617.189 730.671 616.905 729.717 616.815 728.735Z" fill="url(#paint69_radial_331_2829)"/>
</g>
<g style="mix-blend-mode:overlay" opacity="0.58">
<path style="mix-blend-mode:screen" opacity="0.58" d="M1118.32 752.393C1118.19 750.917 1118.51 749.438 1119.23 748.142C1119.95 746.846 1121.03 745.792 1122.35 745.111C1123.67 744.431 1125.15 744.156 1126.63 744.319C1128.1 744.483 1129.49 745.078 1130.62 746.031C1131.76 746.983 1132.59 748.25 1133 749.672C1133.42 751.094 1133.4 752.607 1132.96 754.021C1132.52 755.435 1131.67 756.686 1130.52 757.618C1129.36 758.549 1127.96 759.119 1126.49 759.255C1125.5 759.344 1124.5 759.237 1123.56 758.94C1122.61 758.643 1121.73 758.162 1120.97 757.524C1120.21 756.887 1119.59 756.105 1119.13 755.224C1118.68 754.344 1118.4 753.382 1118.32 752.393Z" fill="url(#paint70_radial_331_2829)"/>
</g>
<g style="mix-blend-mode:overlay" opacity="0.58">
<path style="mix-blend-mode:screen" opacity="0.58" d="M1158.46 606.585C1158.32 605.107 1158.63 603.621 1159.34 602.316C1160.04 601.011 1161.12 599.945 1162.44 599.253C1163.75 598.561 1165.24 598.274 1166.72 598.428C1168.19 598.583 1169.59 599.172 1170.73 600.121C1171.87 601.069 1172.71 602.336 1173.13 603.759C1173.55 605.182 1173.54 606.699 1173.11 608.117C1172.67 609.535 1171.82 610.791 1170.66 611.726C1169.51 612.661 1168.1 613.233 1166.63 613.37C1165.64 613.46 1164.65 613.357 1163.71 613.065C1162.77 612.773 1161.9 612.299 1161.14 611.669C1160.38 611.039 1159.75 610.265 1159.29 609.393C1158.83 608.521 1158.55 607.567 1158.46 606.585Z" fill="url(#paint71_radial_331_2829)"/>
</g>
<g style="mix-blend-mode:overlay" opacity="0.58">
<path style="mix-blend-mode:screen" opacity="0.58" d="M1224.77 776.585C1224.63 775.107 1224.94 773.621 1225.64 772.316C1226.35 771.011 1227.43 769.945 1228.74 769.253C1230.06 768.561 1231.55 768.274 1233.02 768.428C1234.5 768.583 1235.9 769.172 1237.04 770.121C1238.18 771.069 1239.02 772.336 1239.44 773.759C1239.86 775.182 1239.85 776.699 1239.41 778.117C1238.97 779.535 1238.12 780.791 1236.97 781.726C1235.82 782.661 1234.41 783.233 1232.93 783.37C1230.95 783.549 1228.98 782.935 1227.45 781.664C1225.92 780.392 1224.95 778.566 1224.77 776.585Z" fill="url(#paint72_radial_331_2829)"/>
</g>
<g style="mix-blend-mode:overlay" opacity="0.58">
<path style="mix-blend-mode:screen" opacity="0.58" d="M1047.18 501.238C1047.04 499.76 1047.35 498.274 1048.05 496.969C1048.76 495.664 1049.84 494.598 1051.16 493.906C1052.47 493.214 1053.96 492.927 1055.43 493.081C1056.91 493.236 1058.31 493.825 1059.45 494.773C1060.59 495.722 1061.43 496.988 1061.85 498.412C1062.27 499.835 1062.26 501.352 1061.82 502.77C1061.38 504.188 1060.53 505.444 1059.38 506.379C1058.23 507.314 1056.82 507.886 1055.34 508.022C1054.36 508.113 1053.37 508.01 1052.43 507.718C1051.49 507.426 1050.61 506.951 1049.86 506.321C1049.1 505.691 1048.47 504.918 1048.01 504.046C1047.55 503.174 1047.27 502.22 1047.18 501.238Z" fill="url(#paint73_radial_331_2829)"/>
</g>
<g style="mix-blend-mode:overlay" opacity="0.58">
<path style="mix-blend-mode:screen" opacity="0.58" d="M1285.63 724.434C1285.51 722.954 1285.84 721.473 1286.56 720.177C1287.28 718.882 1288.37 717.829 1289.69 717.153C1291.02 716.477 1292.51 716.208 1293.98 716.38C1295.46 716.551 1296.85 717.156 1297.98 718.117C1299.11 719.079 1299.93 720.353 1300.33 721.781C1300.74 723.208 1300.71 724.724 1300.26 726.136C1299.8 727.549 1298.94 728.795 1297.78 729.717C1296.62 730.64 1295.21 731.197 1293.73 731.318C1292.74 731.399 1291.75 731.285 1290.81 730.982C1289.87 730.68 1289 730.195 1288.25 729.555C1287.5 728.916 1286.88 728.134 1286.43 727.255C1285.98 726.377 1285.71 725.418 1285.63 724.434Z" fill="url(#paint74_radial_331_2829)"/>
</g>
<g style="mix-blend-mode:overlay" opacity="0.1">
<path style="mix-blend-mode:screen" opacity="0.1" d="M873.394 463.597C864.548 462.993 857.867 455.331 858.472 446.484C859.077 437.638 866.739 430.957 875.585 431.562C884.431 432.167 891.112 439.829 890.507 448.675C889.902 457.521 882.241 464.202 873.394 463.597Z" fill="url(#paint75_radial_331_2829)"/>
</g>
<g style="mix-blend-mode:overlay" opacity="0.1">
<path style="mix-blend-mode:screen" opacity="0.1" d="M1113.54 577.866C1108.04 573.296 1107.29 565.134 1111.86 559.634C1116.43 554.134 1124.59 553.38 1130.09 557.95C1135.59 562.519 1136.34 570.682 1131.77 576.181C1127.2 581.681 1119.04 582.435 1113.54 577.866Z" fill="url(#paint76_radial_331_2829)"/>
</g>
<g style="mix-blend-mode:overlay" opacity="0.1">
<path style="mix-blend-mode:screen" opacity="0.1" d="M1106.37 733.642C1099.25 734.3 1092.95 729.061 1092.29 721.942C1091.63 714.822 1096.87 708.516 1103.99 707.859C1111.11 707.201 1117.42 712.44 1118.08 719.56C1118.73 726.679 1113.49 732.985 1106.37 733.642Z" fill="url(#paint77_radial_331_2829)"/>
</g>
<g style="mix-blend-mode:overlay" opacity="0.33">
<path style="mix-blend-mode:screen" opacity="0.33" d="M905.045 592.018C897.759 591 892.678 584.269 893.696 576.984C894.713 569.698 901.444 564.617 908.73 565.635C916.016 566.652 921.097 573.383 920.079 580.669C919.061 587.955 912.33 593.036 905.045 592.018Z" fill="url(#paint78_radial_331_2829)"/>
</g>
<g style="mix-blend-mode:overlay" opacity="0.33">
<path style="mix-blend-mode:screen" opacity="0.33" d="M782.877 688.672C777.219 683.971 776.443 675.573 781.144 669.915C785.846 664.257 794.243 663.481 799.902 668.182C805.56 672.884 806.335 681.281 801.634 686.94C796.933 692.598 788.535 693.374 782.877 688.672Z" fill="url(#paint79_radial_331_2829)"/>
</g>
</g>
<defs>
<linearGradient id="paint0_linear_331_2829" x1="753.559" y1="80.0771" x2="818.106" y2="778.76" gradientUnits="userSpaceOnUse">
<stop stop-color="#002E47"/>
<stop offset="0.541789" stop-color="#003F62"/>
<stop offset="1" stop-opacity="0"/>
</linearGradient>
<linearGradient id="paint1_linear_331_2829" x1="757.466" y1="111.049" x2="818.088" y2="767.255" gradientUnits="userSpaceOnUse">
<stop stop-color="#002E47"/>
<stop offset="0.541789" stop-color="#003F62"/>
<stop offset="1" stop-opacity="0"/>
</linearGradient>
<linearGradient id="paint2_linear_331_2829" x1="761.417" y1="141.995" x2="818.139" y2="755.97" gradientUnits="userSpaceOnUse">
<stop stop-color="#002E47"/>
<stop offset="0.541789" stop-color="#003F62"/>
<stop offset="1" stop-opacity="0"/>
</linearGradient>
<linearGradient id="paint3_linear_331_2829" x1="765.317" y1="172.886" x2="818.163" y2="744.911" gradientUnits="userSpaceOnUse">
<stop stop-color="#002E47"/>
<stop offset="0.541789" stop-color="#003F62"/>
<stop offset="1" stop-opacity="0"/>
</linearGradient>
<linearGradient id="paint4_linear_331_2829" x1="769.209" y1="203.699" x2="818.21" y2="734.099" gradientUnits="userSpaceOnUse">
<stop stop-color="#002E47"/>
<stop offset="0.541789" stop-color="#003F62"/>
<stop offset="1" stop-opacity="0"/>
</linearGradient>
<linearGradient id="paint5_linear_331_2829" x1="773.105" y1="234.381" x2="818.297" y2="723.562" gradientUnits="userSpaceOnUse">
<stop stop-color="#002E47"/>
<stop offset="0.541789" stop-color="#003F62"/>
<stop offset="1" stop-opacity="0"/>
</linearGradient>
<linearGradient id="paint6_linear_331_2829" x1="776.975" y1="264.951" x2="818.392" y2="713.27" gradientUnits="userSpaceOnUse">
<stop stop-color="#002E47"/>
<stop offset="0.541789" stop-color="#003F62"/>
<stop offset="1" stop-opacity="0"/>
</linearGradient>
<linearGradient id="paint7_linear_331_2829" x1="780.809" y1="295.047" x2="818.52" y2="703.241" gradientUnits="userSpaceOnUse">
<stop stop-color="#002E47"/>
<stop offset="0.541789" stop-color="#003F62"/>
<stop offset="1" stop-opacity="0"/>
</linearGradient>
<linearGradient id="paint8_linear_331_2829" x1="784.614" y1="324.491" x2="818.704" y2="693.497" gradientUnits="userSpaceOnUse">
<stop stop-color="#002E47"/>
<stop offset="0.541789" stop-color="#003F62"/>
<stop offset="1" stop-opacity="0"/>
</linearGradient>
<linearGradient id="paint9_linear_331_2829" x1="788.314" y1="353.728" x2="818.826" y2="684.003" gradientUnits="userSpaceOnUse">
<stop stop-color="#002E47"/>
<stop offset="0.541789" stop-color="#003F62"/>
<stop offset="1" stop-opacity="0"/>
</linearGradient>
<linearGradient id="paint10_linear_331_2829" x1="789.728" y1="357.551" x2="820.081" y2="686.104" gradientUnits="userSpaceOnUse">
<stop stop-color="#002E47"/>
<stop offset="0.541789" stop-color="#003F62"/>
<stop offset="1" stop-opacity="0"/>
</linearGradient>
<linearGradient id="paint11_linear_331_2829" x1="791.122" y1="361.064" x2="822.974" y2="705.842" gradientUnits="userSpaceOnUse">
<stop stop-color="#002E47"/>
<stop offset="0.541789" stop-color="#003F62"/>
<stop offset="1" stop-opacity="0"/>
</linearGradient>
<linearGradient id="paint12_linear_331_2829" x1="792.499" y1="364.647" x2="825.873" y2="725.902" gradientUnits="userSpaceOnUse">
<stop stop-color="#002E47"/>
<stop offset="0.541789" stop-color="#003F62"/>
<stop offset="1" stop-opacity="0"/>
</linearGradient>
<linearGradient id="paint13_linear_331_2829" x1="793.865" y1="368.195" x2="828.777" y2="746.106" gradientUnits="userSpaceOnUse">
<stop stop-color="#002E47"/>
<stop offset="0.541789" stop-color="#003F62"/>
<stop offset="1" stop-opacity="0"/>
</linearGradient>
<linearGradient id="paint14_linear_331_2829" x1="795.237" y1="371.733" x2="831.688" y2="766.297" gradientUnits="userSpaceOnUse">
<stop stop-color="#002E47"/>
<stop offset="0.541789" stop-color="#003F62"/>
<stop offset="1" stop-opacity="0"/>
</linearGradient>
<linearGradient id="paint15_linear_331_2829" x1="796.612" y1="375.294" x2="834.633" y2="786.848" gradientUnits="userSpaceOnUse">
<stop stop-color="#002E47"/>
<stop offset="0.541789" stop-color="#003F62"/>
<stop offset="1" stop-opacity="0"/>
</linearGradient>
<linearGradient id="paint16_linear_331_2829" x1="798.01" y1="378.856" x2="837.612" y2="807.526" gradientUnits="userSpaceOnUse">
<stop stop-color="#002E47"/>
<stop offset="0.541789" stop-color="#003F62"/>
<stop offset="1" stop-opacity="0"/>
</linearGradient>
<linearGradient id="paint17_linear_331_2829" x1="799.357" y1="382.456" x2="840.55" y2="828.337" gradientUnits="userSpaceOnUse">
<stop stop-color="#002E47"/>
<stop offset="0.541789" stop-color="#003F62"/>
<stop offset="1" stop-opacity="0"/>
</linearGradient>
<linearGradient id="paint18_linear_331_2829" x1="800.755" y1="386.016" x2="843.551" y2="849.256" gradientUnits="userSpaceOnUse">
<stop stop-color="#002E47"/>
<stop offset="0.541789" stop-color="#003F62"/>
<stop offset="1" stop-opacity="0"/>
</linearGradient>
<linearGradient id="paint19_linear_331_2829" x1="802.132" y1="389.599" x2="846.533" y2="870.213" gradientUnits="userSpaceOnUse">
<stop stop-color="#002E47"/>
<stop offset="0.541789" stop-color="#003F62"/>
<stop offset="1" stop-opacity="0"/>
</linearGradient>
<linearGradient id="paint20_linear_331_2829" x1="803.483" y1="393.234" x2="849.495" y2="891.287" gradientUnits="userSpaceOnUse">
<stop stop-color="#002E47"/>
<stop offset="0.541789" stop-color="#003F62"/>
<stop offset="1" stop-opacity="0"/>
</linearGradient>
<linearGradient id="paint21_linear_331_2829" x1="804.904" y1="396.807" x2="852.538" y2="912.41" gradientUnits="userSpaceOnUse">
<stop stop-color="#002E47"/>
<stop offset="0.541789" stop-color="#003F62"/>
<stop offset="1" stop-opacity="0"/>
</linearGradient>
<radialGradient id="paint22_radial_331_2829" cx="0" cy="0" r="1" gradientUnits="userSpaceOnUse" gradientTransform="translate(711.101 586.432) rotate(174.722) scale(9.83829)">
<stop offset="0.14" stop-color="white"/>
<stop offset="0.31" stop-color="#595959" stop-opacity="0.35"/>
<stop offset="0.4" stop-opacity="0"/>
</radialGradient>
<radialGradient id="paint23_radial_331_2829" cx="0" cy="0" r="1" gradientUnits="userSpaceOnUse" gradientTransform="translate(951.424 470.017) rotate(174.722) scale(7.64681)">
<stop offset="0.14" stop-color="white"/>
<stop offset="0.31" stop-color="#595959" stop-opacity="0.35"/>
<stop offset="0.4" stop-opacity="0"/>
</radialGradient>
<radialGradient id="paint24_radial_331_2829" cx="0" cy="0" r="1" gradientUnits="userSpaceOnUse" gradientTransform="translate(897.479 439.242) rotate(174.722) scale(9.83839 9.83825)">
<stop offset="0.14" stop-color="white"/>
<stop offset="0.31" stop-color="#595959" stop-opacity="0.35"/>
<stop offset="0.4" stop-opacity="0"/>
</radialGradient>
<radialGradient id="paint25_radial_331_2829" cx="0" cy="0" r="1" gradientUnits="userSpaceOnUse" gradientTransform="translate(856.253 699.388) rotate(174.722) scale(9.83818)">
<stop offset="0.14" stop-color="white"/>
<stop offset="0.31" stop-color="#595959" stop-opacity="0.35"/>
<stop offset="0.4" stop-opacity="0"/>
</radialGradient>
<radialGradient id="paint26_radial_331_2829" cx="0" cy="0" r="1" gradientUnits="userSpaceOnUse" gradientTransform="translate(840.738 549.357) rotate(174.722) scale(9.83826)">
<stop offset="0.14" stop-color="white"/>
<stop offset="0.31" stop-color="#595959" stop-opacity="0.35"/>
<stop offset="0.4" stop-opacity="0"/>
</radialGradient>
<radialGradient id="paint27_radial_331_2829" cx="0" cy="0" r="1" gradientUnits="userSpaceOnUse" gradientTransform="translate(639.789 575.476) rotate(174.722) scale(9.83823)">
<stop offset="0.14" stop-color="white"/>
<stop offset="0.31" stop-color="#595959" stop-opacity="0.35"/>
<stop offset="0.4" stop-opacity="0"/>
</radialGradient>
<radialGradient id="paint28_radial_331_2829" cx="0" cy="0" r="1" gradientUnits="userSpaceOnUse" gradientTransform="translate(799.414 469.514) rotate(174.722) scale(6.01486)">
<stop offset="0.14" stop-color="white"/>
<stop offset="0.31" stop-color="#595959" stop-opacity="0.35"/>
<stop offset="0.4" stop-opacity="0"/>
</radialGradient>
<radialGradient id="paint29_radial_331_2829" cx="0" cy="0" r="1" gradientUnits="userSpaceOnUse" gradientTransform="translate(799.632 632.383) rotate(174.722) scale(6.01485)">
<stop offset="0.14" stop-color="white"/>
<stop offset="0.31" stop-color="#595959" stop-opacity="0.35"/>
<stop offset="0.4" stop-opacity="0"/>
</radialGradient>
<radialGradient id="paint30_radial_331_2829" cx="0" cy="0" r="1" gradientUnits="userSpaceOnUse" gradientTransform="translate(557.098 706.11) rotate(174.722) scale(6.01496)">
<stop offset="0.14" stop-color="white"/>
<stop offset="0.31" stop-color="#595959" stop-opacity="0.35"/>
<stop offset="0.4" stop-opacity="0"/>
</radialGradient>
<radialGradient id="paint31_radial_331_2829" cx="0" cy="0" r="1" gradientUnits="userSpaceOnUse" gradientTransform="translate(525.001 931.762) rotate(174.722) scale(6.0149)">
<stop offset="0.14" stop-color="white"/>
<stop offset="0.31" stop-color="#595959" stop-opacity="0.35"/>
<stop offset="0.4" stop-opacity="0"/>
</radialGradient>
<radialGradient id="paint32_radial_331_2829" cx="0" cy="0" r="1" gradientUnits="userSpaceOnUse" gradientTransform="translate(457.876 757.654) rotate(174.722) scale(6.01495)">
<stop offset="0.14" stop-color="white"/>
<stop offset="0.31" stop-color="#595959" stop-opacity="0.35"/>
<stop offset="0.4" stop-opacity="0"/>
</radialGradient>
<radialGradient id="paint33_radial_331_2829" cx="0" cy="0" r="1" gradientUnits="userSpaceOnUse" gradientTransform="translate(1284.25 663.688) rotate(174.722) scale(6.01486)">
<stop offset="0.14" stop-color="white"/>
<stop offset="0.31" stop-color="#595959" stop-opacity="0.35"/>
<stop offset="0.4" stop-opacity="0"/>
</radialGradient>
<radialGradient id="paint34_radial_331_2829" cx="0" cy="0" r="1" gradientUnits="userSpaceOnUse" gradientTransform="translate(994.106 554.246) rotate(174.722) scale(6.01482)">
<stop offset="0.14" stop-color="white"/>
<stop offset="0.31" stop-color="#595959" stop-opacity="0.35"/>
<stop offset="0.4" stop-opacity="0"/>
</radialGradient>
<radialGradient id="paint35_radial_331_2829" cx="0" cy="0" r="1" gradientUnits="userSpaceOnUse" gradientTransform="translate(1249.82 688.347) rotate(174.722) scale(6.01487)">
<stop offset="0.14" stop-color="white"/>
<stop offset="0.31" stop-color="#595959" stop-opacity="0.35"/>
<stop offset="0.4" stop-opacity="0"/>
</radialGradient>
<radialGradient id="paint36_radial_331_2829" cx="0" cy="0" r="1" gradientUnits="userSpaceOnUse" gradientTransform="translate(1403.24 771.226) rotate(174.722) scale(6.0149)">
<stop offset="0.14" stop-color="white"/>
<stop offset="0.31" stop-color="#595959" stop-opacity="0.35"/>
<stop offset="0.4" stop-opacity="0"/>
</radialGradient>
<radialGradient id="paint37_radial_331_2829" cx="0" cy="0" r="1" gradientUnits="userSpaceOnUse" gradientTransform="translate(1073 682.752) rotate(174.722) scale(6.0149)">
<stop offset="0.14" stop-color="white"/>
<stop offset="0.31" stop-color="#595959" stop-opacity="0.35"/>
<stop offset="0.4" stop-opacity="0"/>
</radialGradient>
<radialGradient id="paint38_radial_331_2829" cx="0" cy="0" r="1" gradientUnits="userSpaceOnUse" gradientTransform="translate(970.481 696.062) rotate(174.722) scale(6.01486)">
<stop offset="0.14" stop-color="white"/>
<stop offset="0.31" stop-color="#595959" stop-opacity="0.35"/>
<stop offset="0.4" stop-opacity="0"/>
</radialGradient>
<radialGradient id="paint39_radial_331_2829" cx="0" cy="0" r="1" gradientUnits="userSpaceOnUse" gradientTransform="translate(983.71 507.102) rotate(174.722) scale(6.0148)">
<stop offset="0.14" stop-color="white"/>
<stop offset="0.31" stop-color="#595959" stop-opacity="0.35"/>
<stop offset="0.4" stop-opacity="0"/>
</radialGradient>
<radialGradient id="paint40_radial_331_2829" cx="0" cy="0" r="1" gradientUnits="userSpaceOnUse" gradientTransform="translate(1059.53 602.348) rotate(174.722) scale(6.0149)">
<stop offset="0.14" stop-color="white"/>
<stop offset="0.31" stop-color="#595959" stop-opacity="0.35"/>
<stop offset="0.4" stop-opacity="0"/>
</radialGradient>
<radialGradient id="paint41_radial_331_2829" cx="0" cy="0" r="1" gradientUnits="userSpaceOnUse" gradientTransform="translate(1429.07 625.554) rotate(174.722) scale(6.01487)">
<stop offset="0.14" stop-color="white"/>
<stop offset="0.31" stop-color="#595959" stop-opacity="0.35"/>
<stop offset="0.4" stop-opacity="0"/>
</radialGradient>
<radialGradient id="paint42_radial_331_2829" cx="0" cy="0" r="1" gradientUnits="userSpaceOnUse" gradientTransform="translate(1345.6 654.181) rotate(174.722) scale(6.01486)">
<stop offset="0.14" stop-color="white"/>
<stop offset="0.31" stop-color="#595959" stop-opacity="0.35"/>
<stop offset="0.4" stop-opacity="0"/>
</radialGradient>
<radialGradient id="paint43_radial_331_2829" cx="0" cy="0" r="1" gradientUnits="userSpaceOnUse" gradientTransform="translate(1076.65 552.661) rotate(174.722) scale(6.0149)">
<stop offset="0.14" stop-color="white"/>
<stop offset="0.31" stop-color="#595959" stop-opacity="0.35"/>
<stop offset="0.4" stop-opacity="0"/>
</radialGradient>
<radialGradient id="paint44_radial_331_2829" cx="0" cy="0" r="1" gradientUnits="userSpaceOnUse" gradientTransform="translate(1265.3 589.363) rotate(174.722) scale(6.01482)">
<stop offset="0.14" stop-color="white"/>
<stop offset="0.31" stop-color="#595959" stop-opacity="0.35"/>
<stop offset="0.4" stop-opacity="0"/>
</radialGradient>
<radialGradient id="paint45_radial_331_2829" cx="0" cy="0" r="1" gradientUnits="userSpaceOnUse" gradientTransform="translate(1142.24 582.735) rotate(174.722) scale(6.01489)">
<stop offset="0.14" stop-color="white"/>
<stop offset="0.31" stop-color="#595959" stop-opacity="0.35"/>
<stop offset="0.4" stop-opacity="0"/>
</radialGradient>
<radialGradient id="paint46_radial_331_2829" cx="0" cy="0" r="1" gradientUnits="userSpaceOnUse" gradientTransform="translate(1350.82 776.069) rotate(174.722) scale(6.01486)">
<stop offset="0.14" stop-color="white"/>
<stop offset="0.31" stop-color="#595959" stop-opacity="0.35"/>
<stop offset="0.4" stop-opacity="0"/>
</radialGradient>
<radialGradient id="paint47_radial_331_2829" cx="0" cy="0" r="1" gradientUnits="userSpaceOnUse" gradientTransform="translate(1104.43 522.655) rotate(174.722) scale(6.01481)">
<stop offset="0.14" stop-color="white"/>
<stop offset="0.31" stop-color="#595959" stop-opacity="0.35"/>
<stop offset="0.4" stop-opacity="0"/>
</radialGradient>
<radialGradient id="paint48_radial_331_2829" cx="0" cy="0" r="1" gradientUnits="userSpaceOnUse" gradientTransform="translate(1027.24 510.619) rotate(174.722) scale(6.01487)">
<stop offset="0.14" stop-color="white"/>
<stop offset="0.31" stop-color="#595959" stop-opacity="0.35"/>
<stop offset="0.4" stop-opacity="0"/>
</radialGradient>
<radialGradient id="paint49_radial_331_2829" cx="0" cy="0" r="1" gradientUnits="userSpaceOnUse" gradientTransform="translate(1232.14 627.795) rotate(174.722) scale(6.01487)">
<stop offset="0.14" stop-color="white"/>
<stop offset="0.31" stop-color="#595959" stop-opacity="0.35"/>
<stop offset="0.4" stop-opacity="0"/>
</radialGradient>
<radialGradient id="paint50_radial_331_2829" cx="0" cy="0" r="1" gradientUnits="userSpaceOnUse" gradientTransform="translate(1002.31 441.841) rotate(174.722) scale(6.01486)">
<stop offset="0.14" stop-color="white"/>
<stop offset="0.31" stop-color="#595959" stop-opacity="0.35"/>
<stop offset="0.4" stop-opacity="0"/>
</radialGradient>
<radialGradient id="paint51_radial_331_2829" cx="0" cy="0" r="1" gradientUnits="userSpaceOnUse" gradientTransform="translate(945.933 537.298) rotate(174.722) scale(9.83823)">
<stop offset="0.14" stop-color="white"/>
<stop offset="0.31" stop-color="#595959" stop-opacity="0.35"/>
<stop offset="0.4" stop-opacity="0"/>
</radialGradient>
<radialGradient id="paint52_radial_331_2829" cx="0" cy="0" r="1" gradientUnits="userSpaceOnUse" gradientTransform="translate(1289.5 603.064) rotate(174.722) scale(9.83823)">
<stop offset="0.14" stop-color="white"/>
<stop offset="0.31" stop-color="#595959" stop-opacity="0.35"/>
<stop offset="0.4" stop-opacity="0"/>
</radialGradient>
<radialGradient id="paint53_radial_331_2829" cx="0" cy="0" r="1" gradientUnits="userSpaceOnUse" gradientTransform="translate(660.486 536.962) rotate(174.722) scale(9.83817 9.83833)">
<stop offset="0.14" stop-color="white"/>
<stop offset="0.31" stop-color="#595959" stop-opacity="0.35"/>
<stop offset="0.4" stop-opacity="0"/>
</radialGradient>
<radialGradient id="paint54_radial_331_2829" cx="0" cy="0" r="1" gradientUnits="userSpaceOnUse" gradientTransform="translate(947.456 755.675) rotate(174.722) scale(9.83821)">
<stop offset="0.14" stop-color="white"/>
<stop offset="0.31" stop-color="#595959" stop-opacity="0.35"/>
<stop offset="0.4" stop-opacity="0"/>
</radialGradient>
<radialGradient id="paint55_radial_331_2829" cx="0" cy="0" r="1" gradientUnits="userSpaceOnUse" gradientTransform="translate(764.337 733.197) rotate(174.722) scale(9.8382)">
<stop offset="0.14" stop-color="white"/>
<stop offset="0.31" stop-color="#595959" stop-opacity="0.35"/>
<stop offset="0.4" stop-opacity="0"/>
</radialGradient>
<radialGradient id="paint56_radial_331_2829" cx="0" cy="0" r="1" gradientUnits="userSpaceOnUse" gradientTransform="translate(1062.93 791.536) rotate(174.722) scale(9.83821)">
<stop offset="0.14" stop-color="white"/>
<stop offset="0.31" stop-color="#595959" stop-opacity="0.35"/>
<stop offset="0.4" stop-opacity="0"/>
</radialGradient>
<radialGradient id="paint57_radial_331_2829" cx="0" cy="0" r="1" gradientUnits="userSpaceOnUse" gradientTransform="translate(575.654 629.038) rotate(174.722) scale(19.5522)">
<stop offset="0.49" stop-color="white"/>
<stop offset="0.73" stop-color="#595959" stop-opacity="0.35"/>
<stop offset="0.85" stop-opacity="0"/>
</radialGradient>
<radialGradient id="paint58_radial_331_2829" cx="0" cy="0" r="1" gradientUnits="userSpaceOnUse" gradientTransform="translate(753.407 507.946) rotate(174.722) scale(19.5521)">
<stop offset="0.49" stop-color="white"/>
<stop offset="0.73" stop-color="#595959" stop-opacity="0.35"/>
<stop offset="0.85" stop-opacity="0"/>
</radialGradient>
<radialGradient id="paint59_radial_331_2829" cx="0" cy="0" r="1" gradientUnits="userSpaceOnUse" gradientTransform="translate(1438.67 699.143) rotate(174.454) scale(19.4817)">
<stop offset="0.49" stop-color="white"/>
<stop offset="0.73" stop-color="#595959" stop-opacity="0.35"/>
<stop offset="0.85" stop-opacity="0"/>
</radialGradient>
<radialGradient id="paint60_radial_331_2829" cx="0" cy="0" r="1" gradientUnits="userSpaceOnUse" gradientTransform="translate(687.771 636.703) rotate(174.722) scale(27.8518)">
<stop offset="0.49" stop-color="white"/>
<stop offset="0.73" stop-color="#595959" stop-opacity="0.35"/>
<stop offset="0.85" stop-opacity="0"/>
</radialGradient>
<radialGradient id="paint61_radial_331_2829" cx="0" cy="0" r="1" gradientUnits="userSpaceOnUse" gradientTransform="translate(526.127 794.6) rotate(174.722) scale(27.8517)">
<stop offset="0.49" stop-color="white"/>
<stop offset="0.73" stop-color="#595959" stop-opacity="0.35"/>
<stop offset="0.85" stop-opacity="0"/>
</radialGradient>
<radialGradient id="paint62_radial_331_2829" cx="0" cy="0" r="1" gradientUnits="userSpaceOnUse" gradientTransform="translate(451.284 620.873) rotate(174.722) scale(50.8234 50.8233)">
<stop offset="0.49" stop-color="white"/>
<stop offset="0.73" stop-color="#595959" stop-opacity="0.35"/>
<stop offset="0.85" stop-opacity="0"/>
</radialGradient>
<radialGradient id="paint63_radial_331_2829" cx="0" cy="0" r="1" gradientUnits="userSpaceOnUse" gradientTransform="translate(1434.03 552.064) rotate(174.722) scale(50.8232)">
<stop offset="0.49" stop-color="white"/>
<stop offset="0.73" stop-color="#595959" stop-opacity="0.35"/>
<stop offset="0.85" stop-opacity="0"/>
</radialGradient>
<radialGradient id="paint64_radial_331_2829" cx="0" cy="0" r="1" gradientUnits="userSpaceOnUse" gradientTransform="translate(1165.62 684.075) rotate(174.722) scale(27.8518)">
<stop offset="0.49" stop-color="white"/>
<stop offset="0.73" stop-color="#595959" stop-opacity="0.35"/>
<stop offset="0.85" stop-opacity="0"/>
</radialGradient>
<radialGradient id="paint65_radial_331_2829" cx="0" cy="0" r="1" gradientUnits="userSpaceOnUse" gradientTransform="translate(1304.63 848.646) rotate(174.722) scale(27.8517)">
<stop offset="0.49" stop-color="white"/>
<stop offset="0.73" stop-color="#595959" stop-opacity="0.35"/>
<stop offset="0.85" stop-opacity="0"/>
</radialGradient>
<radialGradient id="paint66_radial_331_2829" cx="0" cy="0" r="1" gradientUnits="userSpaceOnUse" gradientTransform="translate(612.696 520.946) rotate(174.722) scale(27.8518)">
<stop offset="0.49" stop-color="white"/>
<stop offset="0.73" stop-color="#595959" stop-opacity="0.35"/>
<stop offset="0.85" stop-opacity="0"/>
</radialGradient>
<radialGradient id="paint67_radial_331_2829" cx="0" cy="0" r="1" gradientUnits="userSpaceOnUse" gradientTransform="translate(474.652 873.854) rotate(174.722) scale(27.8518 27.8517)">
<stop offset="0.49" stop-color="white"/>
<stop offset="0.73" stop-color="#595959" stop-opacity="0.35"/>
<stop offset="0.85" stop-opacity="0"/>
</radialGradient>
<radialGradient id="paint68_radial_331_2829" cx="0" cy="0" r="1" gradientUnits="userSpaceOnUse" gradientTransform="translate(766.122 563.805) rotate(174.722) scale(7.50693)">
<stop offset="0.49" stop-color="white"/>
<stop offset="0.73" stop-color="#595959" stop-opacity="0.35"/>
<stop offset="0.85" stop-opacity="0"/>
</radialGradient>
<radialGradient id="paint69_radial_331_2829" cx="0" cy="0" r="1" gradientUnits="userSpaceOnUse" gradientTransform="translate(624.29 728.045) rotate(174.722) scale(7.50691)">
<stop offset="0.49" stop-color="white"/>
<stop offset="0.73" stop-color="#595959" stop-opacity="0.35"/>
<stop offset="0.85" stop-opacity="0"/>
</radialGradient>
<radialGradient id="paint70_radial_331_2829" cx="0" cy="0" r="1" gradientUnits="userSpaceOnUse" gradientTransform="translate(1125.79 751.703) rotate(174.722) scale(7.50689)">
<stop offset="0.49" stop-color="white"/>
<stop offset="0.73" stop-color="#595959" stop-opacity="0.35"/>
<stop offset="0.85" stop-opacity="0"/>
</radialGradient>
<radialGradient id="paint71_radial_331_2829" cx="0" cy="0" r="1" gradientUnits="userSpaceOnUse" gradientTransform="translate(1165.93 605.895) rotate(174.722) scale(7.50695)">
<stop offset="0.49" stop-color="white"/>
<stop offset="0.73" stop-color="#595959" stop-opacity="0.35"/>
<stop offset="0.85" stop-opacity="0"/>
</radialGradient>
<radialGradient id="paint72_radial_331_2829" cx="0" cy="0" r="1" gradientUnits="userSpaceOnUse" gradientTransform="translate(1232.24 775.895) rotate(174.722) scale(7.5069)">
<stop offset="0.49" stop-color="white"/>
<stop offset="0.73" stop-color="#595959" stop-opacity="0.35"/>
<stop offset="0.85" stop-opacity="0"/>
</radialGradient>
<radialGradient id="paint73_radial_331_2829" cx="0" cy="0" r="1" gradientUnits="userSpaceOnUse" gradientTransform="translate(1054.65 500.547) rotate(174.722) scale(7.50694)">
<stop offset="0.49" stop-color="white"/>
<stop offset="0.73" stop-color="#595959" stop-opacity="0.35"/>
<stop offset="0.85" stop-opacity="0"/>
</radialGradient>
<radialGradient id="paint74_radial_331_2829" cx="0" cy="0" r="1" gradientUnits="userSpaceOnUse" gradientTransform="translate(1293.11 723.743) rotate(174.722) scale(7.50693)">
<stop offset="0.49" stop-color="white"/>
<stop offset="0.73" stop-color="#595959" stop-opacity="0.35"/>
<stop offset="0.85" stop-opacity="0"/>
</radialGradient>
<radialGradient id="paint75_radial_331_2829" cx="0" cy="0" r="1" gradientUnits="userSpaceOnUse" gradientTransform="translate(874.497 447.613) rotate(174.722) scale(16.0551)">
<stop offset="0.49" stop-color="white"/>
<stop offset="0.73" stop-color="#595959" stop-opacity="0.35"/>
<stop offset="0.85" stop-opacity="0"/>
</radialGradient>
<radialGradient id="paint76_radial_331_2829" cx="0" cy="0" r="1" gradientUnits="userSpaceOnUse" gradientTransform="translate(1121.81 567.919) rotate(174.722) scale(12.9467)">
<stop offset="0.49" stop-color="white"/>
<stop offset="0.73" stop-color="#595959" stop-opacity="0.35"/>
<stop offset="0.85" stop-opacity="0"/>
</radialGradient>
<radialGradient id="paint77_radial_331_2829" cx="0" cy="0" r="1" gradientUnits="userSpaceOnUse" gradientTransform="translate(1105.18 720.751) rotate(174.722) scale(12.9467)">
<stop offset="0.49" stop-color="white"/>
<stop offset="0.73" stop-color="#595959" stop-opacity="0.35"/>
<stop offset="0.85" stop-opacity="0"/>
</radialGradient>
<radialGradient id="paint78_radial_331_2829" cx="0" cy="0" r="1" gradientUnits="userSpaceOnUse" gradientTransform="translate(906.873 578.791) rotate(174.722) scale(13.3198)">
<stop offset="0.49" stop-color="white"/>
<stop offset="0.73" stop-color="#595959" stop-opacity="0.35"/>
<stop offset="0.85" stop-opacity="0"/>
</radialGradient>
<radialGradient id="paint79_radial_331_2829" cx="0" cy="0" r="1" gradientUnits="userSpaceOnUse" gradientTransform="translate(791.385 678.436) rotate(174.722) scale(13.3198)">
<stop offset="0.49" stop-color="white"/>
<stop offset="0.73" stop-color="#595959" stop-opacity="0.35"/>
<stop offset="0.85" stop-opacity="0"/>
</radialGradient>
</defs>
</svg>
