<svg width="87" height="127" viewBox="0 0 87 127" fill="none" xmlns="http://www.w3.org/2000/svg">
<path d="M45.0818 30.5959L40.564 22.8535L28.3984 45.8956L39.5636 36.1718L44.3863 41.656L47.0367 38.7526L57.5492 46.4032L48.0355 29.2596L45.3852 31.102L45.0818 30.5959Z" fill="url(#paint0_linear_4569_4352)"/>
<path d="M37.4784 0V12.3505L12.3394 37.4821L6.5459 31.338L37.4784 0Z" fill="url(#paint1_linear_4569_4352)"/>
<path d="M6.54521 31.3418L0 37.9773L37.4777 74.7225V62.6798L12.3387 37.486" fill="url(#paint2_linear_4569_4352)"/>
<path d="M49.4141 0.121094V12.4716L74.5531 37.6032L80.3451 31.459L49.4141 0.121094Z" fill="url(#paint3_linear_4569_4352)"/>
<path d="M80.3451 31.4609L86.8903 38.0964L49.4141 74.8416V62.7989L74.5531 37.6051" fill="url(#paint4_linear_4569_4352)"/>
<path d="M26.4541 117.23H26.3899L25.823 118.685L24.871 121.049C24.7925 121.234 24.7141 121.359 24.6356 121.423C24.5643 121.487 24.4395 121.519 24.2612 121.519H23.7799C23.6016 121.519 23.4732 121.487 23.3948 121.423C23.3235 121.359 23.2522 121.234 23.1808 121.049L22.2395 118.792L21.6619 117.358H21.5977V122.172C21.5977 122.272 21.5799 122.336 21.5442 122.364C21.5086 122.386 21.4444 122.396 21.3517 122.396H20.5815C20.5031 122.396 20.4424 122.386 20.3997 122.364C20.3569 122.336 20.3355 122.272 20.3355 122.172V115.55C20.3355 115.329 20.3783 115.165 20.4638 115.058C20.5494 114.951 20.7134 114.898 20.9559 114.898H21.3945C21.5799 114.898 21.7189 114.93 21.8116 114.994C21.9044 115.058 21.9899 115.187 22.0684 115.379L23.3413 118.514L24.0045 120.172H24.0473L24.7105 118.503L25.9727 115.379C26.0512 115.187 26.1403 115.058 26.2402 114.994C26.34 114.93 26.4826 114.898 26.668 114.898H27.0745C27.3027 114.898 27.4632 114.948 27.5559 115.048C27.6486 115.148 27.6949 115.308 27.6949 115.529V122.172C27.6949 122.272 27.6771 122.336 27.6415 122.364C27.6058 122.386 27.5416 122.396 27.4489 122.396H26.6894C26.611 122.396 26.5504 122.386 26.5076 122.364C26.4719 122.336 26.4541 122.272 26.4541 122.172V117.23ZM35.5988 118.62C35.5988 119.861 35.3242 120.82 34.7751 121.498C34.2331 122.175 33.4095 122.514 32.3041 122.514C31.2273 122.514 30.4215 122.19 29.8866 121.541C29.3518 120.885 29.0844 119.925 29.0844 118.663C29.0844 118.05 29.1628 117.504 29.3197 117.027C29.4837 116.549 29.7084 116.146 29.9936 115.818C30.286 115.483 30.6283 115.23 31.0205 115.058C31.4199 114.88 31.8584 114.791 32.3362 114.791C32.8711 114.791 33.3417 114.88 33.7482 115.058C34.1618 115.23 34.5041 115.483 34.7751 115.818C35.0461 116.146 35.2494 116.549 35.3849 117.027C35.5275 117.497 35.5988 118.029 35.5988 118.62ZM34.251 118.663C34.251 118.307 34.2225 117.968 34.1654 117.647C34.1155 117.319 34.0192 117.03 33.8766 116.781C33.7411 116.531 33.5485 116.335 33.299 116.192C33.0565 116.043 32.7427 115.968 32.3576 115.968C32.0296 115.968 31.7443 116.039 31.5019 116.182C31.2594 116.317 31.0562 116.506 30.8921 116.749C30.7353 116.991 30.6176 117.273 30.5392 117.594C30.4607 117.907 30.4215 118.246 30.4215 118.61C30.4215 119.023 30.45 119.398 30.5071 119.733C30.5712 120.068 30.6782 120.357 30.828 120.599C30.9777 120.835 31.1738 121.017 31.4163 121.145C31.6659 121.273 31.9725 121.337 32.3362 121.337C32.6999 121.337 33.003 121.263 33.2455 121.113C33.4951 120.963 33.6947 120.767 33.8445 120.525C33.9943 120.275 34.0977 119.99 34.1547 119.669C34.2189 119.348 34.251 119.013 34.251 118.663ZM36.8477 116.823C36.8477 116.524 36.8976 116.249 36.9974 116C37.0972 115.75 37.247 115.536 37.4467 115.358C37.6464 115.173 37.8959 115.03 38.1955 114.93C38.5021 114.83 38.8587 114.78 39.2652 114.78C39.4577 114.78 39.6574 114.791 39.8642 114.812C40.071 114.834 40.2778 114.862 40.4846 114.898C40.6914 114.934 40.8911 114.98 41.0836 115.037C41.2762 115.094 41.4545 115.158 41.6185 115.23C41.6755 115.265 41.7112 115.297 41.7254 115.326C41.7397 115.354 41.7326 115.404 41.704 115.476L41.4473 116.203C41.4188 116.281 41.3903 116.324 41.3617 116.331C41.3404 116.338 41.3011 116.335 41.2441 116.321C40.8875 116.199 40.5381 116.11 40.1958 116.053C39.8535 115.989 39.5361 115.957 39.2438 115.957C38.8729 115.957 38.6019 116.035 38.4308 116.192C38.2668 116.342 38.1848 116.52 38.1848 116.727C38.1848 116.855 38.2133 116.973 38.2703 117.08C38.3345 117.18 38.4344 117.28 38.5699 117.38C38.7053 117.472 38.8729 117.569 39.0726 117.668C39.2794 117.761 39.529 117.865 39.8214 117.979C40.128 118.107 40.4204 118.239 40.6985 118.374C40.9767 118.503 41.2227 118.656 41.4366 118.834C41.6506 119.013 41.8181 119.223 41.9394 119.466C42.0677 119.701 42.1319 119.99 42.1319 120.332C42.1319 120.703 42.0606 121.027 41.918 121.305C41.7825 121.576 41.5935 121.801 41.3511 121.979C41.1157 122.158 40.834 122.293 40.506 122.386C40.178 122.471 39.825 122.514 39.447 122.514C38.9977 122.514 38.5271 122.471 38.035 122.386C37.543 122.3 37.0866 122.143 36.6658 121.915C36.566 121.872 36.5446 121.787 36.6016 121.658L36.9225 120.931C36.9724 120.824 37.0509 120.792 37.1579 120.835C37.5002 120.977 37.8532 121.099 38.2169 121.198C38.5877 121.291 38.9442 121.337 39.2865 121.337C39.8285 121.337 40.21 121.245 40.4311 121.059C40.6593 120.874 40.7734 120.642 40.7734 120.364C40.7734 120.214 40.7449 120.082 40.6878 119.968C40.6308 119.854 40.5417 119.751 40.4204 119.658C40.2992 119.558 40.1459 119.466 39.9605 119.38C39.775 119.287 39.554 119.191 39.2972 119.091C38.9122 118.941 38.5663 118.792 38.2596 118.642C37.953 118.492 37.6963 118.332 37.4895 118.161C37.2827 117.982 37.1222 117.786 37.0081 117.572C36.9011 117.351 36.8477 117.102 36.8477 116.823ZM46.517 121.305C46.8379 121.305 47.1338 121.27 47.4048 121.198C47.6758 121.12 47.929 121.034 48.1643 120.942C48.2641 120.899 48.3319 120.892 48.3676 120.92C48.4103 120.949 48.4424 120.992 48.4638 121.049L48.7419 121.658C48.7919 121.758 48.8097 121.83 48.7954 121.872C48.7812 121.908 48.7455 121.944 48.6885 121.979C48.3248 122.193 47.9361 122.336 47.5225 122.407C47.1089 122.478 46.7095 122.514 46.3244 122.514C45.2405 122.514 44.4204 122.2 43.8642 121.573C43.315 120.945 43.0405 120 43.0405 118.738C43.0405 118.146 43.1225 117.608 43.2865 117.123C43.4505 116.638 43.6787 116.224 43.9711 115.882C44.2635 115.54 44.6165 115.276 45.0301 115.09C45.4437 114.898 45.9037 114.802 46.41 114.802C46.7309 114.802 47.059 114.83 47.3941 114.887C47.7364 114.944 48.0823 115.066 48.4317 115.251C48.4888 115.279 48.5244 115.315 48.5387 115.358C48.5601 115.394 48.5494 115.461 48.5066 115.561L48.2071 116.182C48.1786 116.253 48.15 116.299 48.1215 116.321C48.093 116.342 48.0395 116.335 47.9611 116.299C47.7257 116.207 47.4833 116.135 47.2337 116.085C46.9912 116.028 46.7345 116 46.4635 116C46.1069 116 45.7967 116.075 45.5329 116.224C45.2761 116.374 45.0622 116.577 44.8911 116.834C44.727 117.084 44.6022 117.376 44.5167 117.711C44.4382 118.039 44.399 118.382 44.399 118.738C44.399 119.095 44.4311 119.43 44.4953 119.744C44.5666 120.05 44.6807 120.321 44.8376 120.557C45.0016 120.785 45.2191 120.967 45.4901 121.102C45.7682 121.238 46.1105 121.305 46.517 121.305ZM56.1882 118.62C56.1882 119.861 55.9137 120.82 55.3646 121.498C54.8226 122.175 53.9989 122.514 52.8936 122.514C51.8168 122.514 51.0109 122.19 50.4761 121.541C49.9413 120.885 49.6738 119.925 49.6738 118.663C49.6738 118.05 49.7523 117.504 49.9092 117.027C50.0732 116.549 50.2978 116.146 50.5831 115.818C50.8754 115.483 51.2177 115.23 51.61 115.058C52.0093 114.88 52.4479 114.791 52.9257 114.791C53.4605 114.791 53.9312 114.88 54.3377 115.058C54.7513 115.23 55.0936 115.483 55.3646 115.818C55.6356 116.146 55.8388 116.549 55.9743 117.027C56.1169 117.497 56.1882 118.029 56.1882 118.62ZM54.8404 118.663C54.8404 118.307 54.8119 117.968 54.7549 117.647C54.7049 117.319 54.6087 117.03 54.466 116.781C54.3305 116.531 54.138 116.335 53.8884 116.192C53.6459 116.043 53.3322 115.968 52.9471 115.968C52.619 115.968 52.3338 116.039 52.0913 116.182C51.8489 116.317 51.6456 116.506 51.4816 116.749C51.3247 116.991 51.2071 117.273 51.1286 117.594C51.0502 117.907 51.0109 118.246 51.0109 118.61C51.0109 119.023 51.0395 119.398 51.0965 119.733C51.1607 120.068 51.2677 120.357 51.4174 120.599C51.5672 120.835 51.7633 121.017 52.0058 121.145C52.2553 121.273 52.562 121.337 52.9257 121.337C53.2894 121.337 53.5925 121.263 53.8349 121.113C54.0845 120.963 54.2842 120.767 54.434 120.525C54.5837 120.275 54.6871 119.99 54.7442 119.669C54.8083 119.348 54.8404 119.013 54.8404 118.663ZM61.3736 116.481L60.9992 118.289L60.2183 121.851C60.1755 122.051 60.1113 122.193 60.0258 122.279C59.9402 122.364 59.8083 122.407 59.63 122.407H59.063C58.8848 122.407 58.7421 122.382 58.6352 122.332C58.5353 122.275 58.4604 122.14 58.4105 121.926L56.9344 115.069C56.9058 114.955 56.9486 114.898 57.0627 114.898H58.1003C58.1788 114.898 58.2358 114.909 58.2715 114.93C58.3143 114.951 58.3428 114.998 58.357 115.069L59.0416 118.931L59.3519 120.728H59.416L59.7797 118.931L60.5071 115.465C60.5428 115.279 60.6034 115.14 60.689 115.048C60.7817 114.948 60.9421 114.898 61.1703 114.898H61.6945C61.8942 114.898 62.0332 114.948 62.1117 115.048C62.1972 115.14 62.2578 115.272 62.2935 115.443L63.0102 118.931L63.3739 120.706H63.4381L63.7483 118.92L64.4436 115.08C64.4721 114.959 64.5506 114.898 64.6789 114.898H65.7165C65.8235 114.898 65.8627 114.955 65.8342 115.069L64.358 121.915C64.3081 122.129 64.2332 122.265 64.1334 122.322C64.0335 122.379 63.8909 122.407 63.7055 122.407H63.16C62.9817 122.407 62.8462 122.368 62.7535 122.29C62.6679 122.204 62.6001 122.058 62.5502 121.851L61.7907 118.289L61.4271 116.481H61.3736Z" fill="white"/>
<path d="M10.2392 95.096C10.2392 95.2313 10.215 95.3183 10.1667 95.3569C10.1281 95.3859 10.0411 95.4004 9.90583 95.4004H8.81881C8.71253 95.4004 8.63039 95.3811 8.57242 95.3424C8.51445 95.3038 8.48546 95.2216 8.48546 95.096V86.052C8.48546 85.7815 8.54343 85.5786 8.65938 85.4433C8.77533 85.2983 8.9879 85.2259 9.2971 85.2259H12.7466C13.2297 85.2259 13.6693 85.3032 14.0655 85.4578C14.4713 85.6027 14.8143 85.8153 15.0945 86.0955C15.3844 86.366 15.6067 86.6946 15.7613 87.0811C15.9255 87.4579 16.0076 87.8734 16.0076 88.3275C16.0076 88.5884 15.9642 88.9024 15.8772 89.2696C15.7999 89.6271 15.6356 89.9749 15.3844 90.3131C15.1429 90.6513 14.7998 90.9412 14.3554 91.1827C13.9109 91.4146 13.3263 91.5306 12.6016 91.5306H10.2392V95.096ZM14.1814 88.4435C14.1814 88.2792 14.1525 88.1004 14.0945 87.9072C14.0462 87.7139 13.9544 87.54 13.8191 87.3854C13.6935 87.2212 13.5147 87.0859 13.2828 86.9796C13.0509 86.8733 12.7562 86.8202 12.3987 86.8202H10.2537V90.0378H12.4277C13.0365 90.0378 13.4809 89.888 13.7611 89.5885C14.0413 89.2889 14.1814 88.9073 14.1814 88.4435ZM24.5589 95.067C24.5589 95.1733 24.5396 95.2555 24.5009 95.3134C24.4623 95.3714 24.3801 95.4004 24.2545 95.4004H20.1238C19.6117 95.4004 19.1914 95.3279 18.8629 95.183C18.5344 95.0381 18.2686 94.8448 18.0657 94.6032C17.8725 94.3617 17.7372 94.0863 17.6599 93.7771C17.5826 93.4679 17.544 93.1442 17.544 92.806V87.8492C17.544 87.511 17.5874 87.1873 17.6744 86.8781C17.771 86.5593 17.9208 86.2791 18.1237 86.0375C18.3363 85.796 18.6068 85.6027 18.9354 85.4578C19.2639 85.3128 19.66 85.2404 20.1238 85.2404H24.1675C24.2932 85.2404 24.3705 85.2694 24.3994 85.3273C24.4381 85.3756 24.4574 85.4578 24.4574 85.5737V86.4868C24.4574 86.6124 24.4381 86.6994 24.3994 86.7477C24.3705 86.7864 24.2932 86.8057 24.1675 86.8057H20.3122C19.9451 86.8057 19.6842 86.8878 19.5296 87.0521C19.3847 87.2163 19.3122 87.4531 19.3122 87.7623V89.2841H23.6893C23.8149 89.2841 23.8922 89.3082 23.9212 89.3566C23.9598 89.4049 23.9791 89.4967 23.9791 89.6319V90.4291C23.9791 90.545 23.9598 90.632 23.9212 90.69C23.8922 90.7383 23.8149 90.7624 23.6893 90.7624H19.3122V92.8785C19.3122 93.1877 19.3895 93.4244 19.5441 93.5887C19.7083 93.7433 19.9644 93.8206 20.3122 93.8206H24.2545C24.3898 93.8206 24.4719 93.8447 24.5009 93.8931C24.5396 93.9414 24.5589 94.0332 24.5589 94.1684V95.067ZM31.5833 93.1829H27.9019L27.2642 95.154C27.2352 95.241 27.1917 95.3038 27.1338 95.3424C27.0854 95.3811 27.0033 95.4004 26.8874 95.4004H25.554C25.4477 95.4004 25.38 95.3714 25.351 95.3134C25.3221 95.2458 25.3221 95.1733 25.351 95.096L28.4817 85.9216C28.53 85.7766 28.5783 85.6607 28.6266 85.5737C28.6749 85.4868 28.7329 85.4191 28.8005 85.3708C28.8778 85.3225 28.9648 85.2887 29.0614 85.2694C29.158 85.2404 29.274 85.2259 29.4093 85.2259H30.0325C30.332 85.2259 30.5446 85.2742 30.6702 85.3708C30.7958 85.4578 30.9069 85.6414 31.0036 85.9216L34.1487 95.096C34.1777 95.1733 34.1777 95.2458 34.1487 95.3134C34.1293 95.3714 34.0665 95.4004 33.9602 95.4004H32.6268C32.5205 95.4004 32.4336 95.3907 32.366 95.3714C32.308 95.3424 32.2597 95.2748 32.221 95.1685L31.5833 93.1829ZM28.3367 91.6755H31.1195L30.3658 89.2406L29.7571 87.1825H29.6846L29.0904 89.1971L28.3367 91.6755ZM40.2747 88.9073L43.7242 95.067C43.8498 95.2893 43.8015 95.4004 43.5793 95.4004H42.2893C42.1057 95.4004 41.9753 95.3907 41.898 95.3714C41.8207 95.3424 41.7386 95.2506 41.6516 95.096L39.0572 90.3711L37.2166 92.6321V95.096C37.2166 95.2313 37.1924 95.3183 37.1441 95.3569C37.1054 95.3859 37.0185 95.4004 36.8832 95.4004H35.7962C35.6899 95.4004 35.6078 95.3811 35.5498 95.3424C35.4918 95.3038 35.4628 95.2216 35.4628 95.096V85.5592C35.4628 85.4336 35.4918 85.3515 35.5498 85.3128C35.6078 85.2742 35.6899 85.2549 35.7962 85.2549H36.8832C37.0185 85.2549 37.1054 85.2742 37.1441 85.3128C37.1924 85.3418 37.2166 85.424 37.2166 85.5592V89.9653L37.2745 89.9943L38.7239 88.1536L40.9269 85.4578C40.9849 85.3901 41.0574 85.3418 41.1443 85.3128C41.2313 85.2742 41.3472 85.2549 41.4922 85.2549H42.9705C43.0575 85.2549 43.1155 85.279 43.1444 85.3273C43.1734 85.3756 43.1589 85.4336 43.101 85.5013L40.2747 88.9073ZM44.7858 87.8492C44.7858 87.4434 44.8535 87.0714 44.9888 86.7332C45.124 86.395 45.3269 86.1052 45.5975 85.8636C45.868 85.6124 46.2062 85.4191 46.612 85.2838C47.0275 85.1486 47.5106 85.0809 48.0614 85.0809C48.3223 85.0809 48.5928 85.0954 48.873 85.1244C49.1533 85.1534 49.4335 85.1921 49.7137 85.2404C49.9939 85.2887 50.2644 85.3515 50.5253 85.4288C50.7862 85.5061 51.0278 85.593 51.25 85.6897C51.3273 85.738 51.3756 85.7815 51.3949 85.8201C51.4143 85.8588 51.4046 85.9264 51.3659 86.023L51.0181 87.0086C50.9794 87.1149 50.9408 87.1728 50.9022 87.1825C50.8732 87.1922 50.82 87.1873 50.7427 87.168C50.2596 87.0038 49.7861 86.883 49.3223 86.8057C48.8586 86.7187 48.4286 86.6752 48.0324 86.6752C47.53 86.6752 47.1628 86.7815 46.9309 86.9941C46.7087 87.197 46.5975 87.4386 46.5975 87.7188C46.5975 87.8927 46.6362 88.0521 46.7135 88.1971C46.8005 88.3323 46.9357 88.4676 47.1193 88.6029C47.3029 88.7285 47.53 88.8589 47.8005 88.9942C48.0807 89.1198 48.4189 89.2599 48.8151 89.4145C49.2306 89.5885 49.6267 89.7672 50.0035 89.9508C50.3804 90.1247 50.7137 90.3325 51.0036 90.574C51.2935 90.8156 51.5205 91.1006 51.6848 91.4291C51.8587 91.748 51.9457 92.1393 51.9457 92.6031C51.9457 93.1056 51.8491 93.5452 51.6558 93.922C51.4722 94.2892 51.2162 94.5936 50.8877 94.8351C50.5688 95.0767 50.1871 95.2603 49.7427 95.3859C49.2982 95.5018 48.8199 95.5598 48.3078 95.5598C47.6991 95.5598 47.0613 95.5018 46.3946 95.3859C45.7279 95.2699 45.1095 95.0574 44.5395 94.7482C44.4042 94.6902 44.3752 94.5743 44.4525 94.4003L44.8873 93.4148C44.9549 93.2698 45.0612 93.2263 45.2062 93.2843C45.67 93.4776 46.1482 93.6418 46.641 93.7771C47.1435 93.9027 47.6266 93.9655 48.0904 93.9655C48.8247 93.9655 49.3417 93.8399 49.6412 93.5887C49.9504 93.3375 50.105 93.0234 50.105 92.6466C50.105 92.4437 50.0664 92.2649 49.9891 92.1103C49.9118 91.9557 49.791 91.8156 49.6267 91.69C49.4625 91.5548 49.2547 91.4291 49.0035 91.3132C48.7523 91.1876 48.4527 91.0571 48.1049 90.9219C47.5831 90.719 47.1145 90.516 46.699 90.3131C46.2835 90.1102 45.9357 89.8928 45.6555 89.6609C45.3753 89.4194 45.1578 89.1536 45.0032 88.8638C44.8583 88.5642 44.7858 88.2261 44.7858 87.8492ZM62.0034 90.2841C62.0034 91.9654 61.6313 93.265 60.8873 94.1829C60.153 95.1009 59.037 95.5598 57.5393 95.5598C56.0803 95.5598 54.9884 95.1202 54.2638 94.2409C53.5391 93.352 53.1767 92.0524 53.1767 90.3421C53.1767 89.5112 53.283 88.772 53.4956 88.1246C53.7178 87.4772 54.0222 86.9313 54.4087 86.4868C54.8049 86.0327 55.2687 85.6897 55.8001 85.4578C56.3412 85.2162 56.9354 85.0954 57.5828 85.0954C58.3075 85.0954 58.9452 85.2162 59.496 85.4578C60.0564 85.6897 60.5202 86.0327 60.8873 86.4868C61.2545 86.9313 61.5299 87.4772 61.7135 88.1246C61.9067 88.7623 62.0034 89.4822 62.0034 90.2841ZM60.1772 90.3421C60.1772 89.859 60.1385 89.4 60.0612 88.9652C59.9936 88.5208 59.8631 88.1294 59.6699 87.7912C59.4863 87.4531 59.2254 87.1873 58.8872 86.9941C58.5587 86.7912 58.1336 86.6897 57.6118 86.6897C57.1673 86.6897 56.7808 86.7864 56.4523 86.9796C56.1238 87.1632 55.8484 87.4192 55.6262 87.7478C55.4136 88.0763 55.2542 88.4579 55.1479 88.8928C55.0416 89.3179 54.9884 89.7769 54.9884 90.2697C54.9884 90.8301 55.0271 91.3373 55.1044 91.7915C55.1914 92.2456 55.3363 92.6369 55.5392 92.9655C55.7421 93.2843 56.0078 93.5307 56.3363 93.7046C56.6745 93.8786 57.09 93.9655 57.5828 93.9655C58.0756 93.9655 58.4862 93.8641 58.8148 93.6612C59.1529 93.4582 59.4235 93.1925 59.6264 92.864C59.8293 92.5258 59.9694 92.1393 60.0467 91.7045C60.1337 91.2697 60.1772 90.8156 60.1772 90.3421ZM65.6521 95.096C65.6521 95.2313 65.628 95.3183 65.5796 95.3569C65.541 95.3859 65.454 95.4004 65.3188 95.4004H64.2172C64.111 95.4004 64.0288 95.3811 63.9709 95.3424C63.9129 95.3038 63.8839 95.2216 63.8839 95.096V87.8492C63.8839 87.511 63.9225 87.1873 63.9998 86.8781C64.0868 86.5593 64.2317 86.2791 64.4347 86.0375C64.6376 85.796 64.9033 85.6027 65.2318 85.4578C65.5603 85.3128 65.971 85.2404 66.4638 85.2404H70.5365C70.6717 85.2404 70.7539 85.2694 70.7829 85.3273C70.8215 85.3756 70.8408 85.4578 70.8408 85.5737V86.4723C70.8408 86.5979 70.8215 86.6849 70.7829 86.7332C70.7442 86.7815 70.6621 86.8057 70.5365 86.8057H66.6522C66.285 86.8057 66.0241 86.8878 65.8695 87.0521C65.7246 87.2067 65.6521 87.4386 65.6521 87.7478V89.4435H70.0002C70.1258 89.4435 70.2031 89.4677 70.2321 89.516C70.2707 89.5546 70.2901 89.6416 70.2901 89.7769V90.603C70.2901 90.7093 70.2707 90.7914 70.2321 90.8494C70.2031 90.9074 70.1258 90.9364 70.0002 90.9364H65.6521V95.096ZM79.2179 86.5303C79.2179 86.6269 79.1986 86.6946 79.1599 86.7332C79.131 86.7719 79.0633 86.7912 78.957 86.7912H76.2032V95.096C76.2032 95.2313 76.1791 95.3183 76.1308 95.3569C76.0921 95.3859 76.0052 95.4004 75.8699 95.4004H74.7394C74.6234 95.4004 74.5365 95.3811 74.4785 95.3424C74.4302 95.3038 74.406 95.2216 74.406 95.096V86.7912H71.7102C71.6039 86.7912 71.5363 86.7719 71.5073 86.7332C71.4783 86.6946 71.4638 86.6269 71.4638 86.5303V85.5302C71.4638 85.424 71.4783 85.3515 71.5073 85.3128C71.5363 85.2742 71.6039 85.2549 71.7102 85.2549H78.957C79.0633 85.2549 79.131 85.2742 79.1599 85.3128C79.1986 85.3515 79.2179 85.424 79.2179 85.5302V86.5303Z" fill="white"/>
<path d="M34.7188 107.171C34.7188 107.247 34.7053 107.296 34.6782 107.317C34.6566 107.334 34.6079 107.342 34.5321 107.342H33.915C33.8501 107.342 33.8014 107.331 33.7689 107.309C33.7418 107.288 33.7283 107.242 33.7283 107.171V104.784H31.2033V107.171C31.2033 107.247 31.1897 107.296 31.1627 107.317C31.1356 107.334 31.0842 107.342 31.0084 107.342H30.3914C30.3318 107.342 30.2858 107.331 30.2533 107.309C30.2209 107.288 30.2046 107.242 30.2046 107.171V101.829C30.2046 101.759 30.2209 101.713 30.2533 101.691C30.2858 101.669 30.3318 101.658 30.3914 101.658H31.0084C31.0842 101.658 31.1356 101.669 31.1627 101.691C31.1897 101.707 31.2033 101.753 31.2033 101.829V103.932H33.7283V101.829C33.7283 101.759 33.7418 101.713 33.7689 101.691C33.8014 101.669 33.8501 101.658 33.915 101.658H34.5321C34.6079 101.658 34.6566 101.669 34.6782 101.691C34.7053 101.707 34.7188 101.753 34.7188 101.829V107.171ZM40.7192 104.476C40.7192 105.418 40.5109 106.146 40.0941 106.66C39.6827 107.174 39.0575 107.431 38.2186 107.431C37.4013 107.431 36.7896 107.185 36.3837 106.692C35.9777 106.194 35.7747 105.466 35.7747 104.508C35.7747 104.043 35.8343 103.629 35.9534 103.266C36.0779 102.903 36.2484 102.598 36.4649 102.349C36.6868 102.094 36.9466 101.902 37.2443 101.772C37.5474 101.637 37.8803 101.569 38.2429 101.569C38.6489 101.569 39.0061 101.637 39.3146 101.772C39.6286 101.902 39.8884 102.094 40.0941 102.349C40.2998 102.598 40.454 102.903 40.5569 103.266C40.6651 103.623 40.7192 104.027 40.7192 104.476ZM39.6962 104.508C39.6962 104.238 39.6746 103.981 39.6313 103.737C39.5934 103.488 39.5203 103.269 39.4121 103.079C39.3092 102.89 39.1631 102.741 38.9736 102.633C38.7896 102.519 38.5515 102.462 38.2592 102.462C38.0102 102.462 37.7937 102.516 37.6096 102.625C37.4256 102.727 37.2714 102.871 37.1469 103.055C37.0278 103.239 36.9385 103.453 36.8789 103.696C36.8194 103.935 36.7896 104.192 36.7896 104.468C36.7896 104.782 36.8113 105.066 36.8546 105.32C36.9033 105.575 36.9845 105.794 37.0981 105.978C37.2118 106.156 37.3607 106.294 37.5447 106.392C37.7341 106.489 37.9669 106.538 38.2429 106.538C38.519 106.538 38.749 106.481 38.933 106.368C39.1225 106.254 39.274 106.105 39.3877 105.921C39.5014 105.732 39.5799 105.515 39.6232 105.271C39.6719 105.028 39.6962 104.773 39.6962 104.508ZM46.2138 106.554C46.2138 106.76 46.1678 106.93 46.0758 107.066C45.9838 107.201 45.816 107.293 45.5724 107.342C45.4696 107.363 45.3586 107.38 45.2395 107.391C45.1259 107.401 45.0122 107.409 44.8985 107.415C44.7849 107.426 44.6766 107.431 44.5738 107.431C44.4709 107.437 44.3789 107.439 44.2977 107.439C43.843 107.439 43.4533 107.399 43.1286 107.317C42.8092 107.231 42.5494 107.09 42.3491 106.895C42.1489 106.7 42.0027 106.441 41.9107 106.116C41.8187 105.791 41.7727 105.388 41.7727 104.906L41.7646 101.829C41.7646 101.759 41.7808 101.713 41.8133 101.691C41.8458 101.669 41.8918 101.658 41.9513 101.658H42.5846C42.6604 101.658 42.7091 101.669 42.7307 101.691C42.7578 101.707 42.7713 101.753 42.7713 101.829V104.922C42.7713 105.198 42.7903 105.439 42.8282 105.645C42.8715 105.851 42.9472 106.021 43.0555 106.156C43.1692 106.292 43.3234 106.395 43.5183 106.465C43.7186 106.53 43.9784 106.562 44.2977 106.562C44.3789 106.562 44.5061 106.56 44.6793 106.554C44.8579 106.543 45.042 106.519 45.2314 106.481V101.829C45.2314 101.759 45.2449 101.713 45.272 101.691C45.3045 101.669 45.3532 101.658 45.4181 101.658H46.0514C46.1272 101.658 46.1732 101.669 46.1894 101.691C46.2057 101.707 46.2138 101.753 46.2138 101.829V106.554ZM47.3283 103.112C47.3283 102.884 47.3662 102.676 47.4419 102.487C47.5177 102.297 47.6314 102.135 47.7829 101.999C47.9345 101.859 48.1239 101.75 48.3513 101.675C48.584 101.599 48.8546 101.561 49.1632 101.561C49.3093 101.561 49.4609 101.569 49.6178 101.585C49.7748 101.602 49.9318 101.623 50.0887 101.65C50.2457 101.677 50.3973 101.713 50.5434 101.756C50.6896 101.799 50.8249 101.848 50.9494 101.902C50.9927 101.929 51.0197 101.953 51.0306 101.975C51.0414 101.997 51.036 102.035 51.0143 102.089L50.8195 102.641C50.7978 102.7 50.7762 102.733 50.7545 102.738C50.7383 102.744 50.7085 102.741 50.6652 102.73C50.3946 102.638 50.1293 102.571 49.8695 102.527C49.6097 102.478 49.3689 102.454 49.1469 102.454C48.8655 102.454 48.6598 102.514 48.5299 102.633C48.4054 102.746 48.3431 102.882 48.3431 103.039C48.3431 103.136 48.3648 103.225 48.4081 103.307C48.4568 103.382 48.5326 103.458 48.6354 103.534C48.7383 103.604 48.8655 103.677 49.017 103.753C49.174 103.824 49.3634 103.902 49.5854 103.989C49.8181 104.086 50.04 104.186 50.2511 104.289C50.4622 104.386 50.649 104.503 50.8113 104.638C50.9737 104.773 51.1009 104.933 51.1929 105.117C51.2904 105.296 51.3391 105.515 51.3391 105.775C51.3391 106.056 51.285 106.303 51.1767 106.514C51.0739 106.719 50.9304 106.89 50.7464 107.025C50.5678 107.16 50.354 107.263 50.105 107.334C49.856 107.399 49.5881 107.431 49.3012 107.431C48.9602 107.431 48.603 107.399 48.2295 107.334C47.856 107.269 47.5096 107.15 47.1902 106.976C47.1145 106.944 47.0982 106.879 47.1415 106.782L47.3851 106.229C47.423 106.148 47.4825 106.124 47.5637 106.156C47.8235 106.265 48.0915 106.357 48.3675 106.432C48.649 106.503 48.9196 106.538 49.1794 106.538C49.5908 106.538 49.8804 106.468 50.0481 106.327C50.2214 106.186 50.308 106.01 50.308 105.799C50.308 105.686 50.2863 105.585 50.243 105.499C50.1997 105.412 50.132 105.334 50.04 105.263C49.948 105.188 49.8316 105.117 49.6909 105.052C49.5502 104.982 49.3824 104.909 49.1875 104.833C48.8952 104.719 48.6327 104.606 48.4 104.492C48.1672 104.378 47.9724 104.257 47.8154 104.127C47.6584 103.991 47.5367 103.842 47.4501 103.68C47.3689 103.512 47.3283 103.323 47.3283 103.112ZM56.1207 107.155C56.1207 107.215 56.1099 107.261 56.0882 107.293C56.0666 107.326 56.0206 107.342 55.9502 107.342H53.6363C53.3494 107.342 53.1139 107.301 52.9299 107.22C52.7459 107.139 52.597 107.031 52.4834 106.895C52.3751 106.76 52.2993 106.606 52.256 106.432C52.2127 106.259 52.1911 106.078 52.1911 105.888V103.112C52.1911 102.922 52.2154 102.741 52.2641 102.568C52.3183 102.389 52.4022 102.232 52.5158 102.097C52.6349 101.962 52.7865 101.853 52.9705 101.772C53.1545 101.691 53.3765 101.65 53.6363 101.65H55.9015C55.9718 101.65 56.0151 101.667 56.0314 101.699C56.053 101.726 56.0639 101.772 56.0639 101.837V102.349C56.0639 102.419 56.053 102.468 56.0314 102.495C56.0151 102.516 55.9718 102.527 55.9015 102.527H53.7418C53.5361 102.527 53.39 102.573 53.3034 102.665C53.2222 102.757 53.1816 102.89 53.1816 103.063V103.916H55.6335C55.7039 103.916 55.7472 103.929 55.7635 103.956C55.7851 103.983 55.7959 104.035 55.7959 104.11V104.557C55.7959 104.622 55.7851 104.671 55.7635 104.703C55.7472 104.73 55.7039 104.744 55.6335 104.744H53.1816V105.929C53.1816 106.102 53.2249 106.235 53.3115 106.327C53.4035 106.414 53.547 106.457 53.7418 106.457H55.9502C56.026 106.457 56.072 106.47 56.0882 106.497C56.1099 106.524 56.1207 106.576 56.1207 106.652V107.155Z" fill="white"/>
<defs>
<linearGradient id="paint0_linear_4569_4352" x1="29.4669" y1="40.3271" x2="57.4486" y2="32.1867" gradientUnits="userSpaceOnUse">
<stop offset="0.36" stop-color="#08B6E5"/>
<stop offset="0.67" stop-color="#0C81C3"/>
</linearGradient>
<linearGradient id="paint1_linear_4569_4352" x1="6.5459" y1="18.7403" x2="37.4784" y2="18.7403" gradientUnits="userSpaceOnUse">
<stop stop-color="#077CC1"/>
<stop offset="1" stop-color="#34BBED"/>
</linearGradient>
<linearGradient id="paint2_linear_4569_4352" x1="6.60292" y1="53.0314" x2="44.0806" y2="53.0314" gradientUnits="userSpaceOnUse">
<stop stop-color="#0FBBEE"/>
<stop offset="0.44" stop-color="#119ED9"/>
<stop offset="1" stop-color="#1373BA"/>
</linearGradient>
<linearGradient id="paint3_linear_4569_4352" x1="80.3451" y1="18.8614" x2="49.4141" y2="18.8614" gradientUnits="userSpaceOnUse">
<stop stop-color="#077CC1"/>
<stop offset="1" stop-color="#34BBED"/>
</linearGradient>
<linearGradient id="paint4_linear_4569_4352" x1="80.2874" y1="53.1505" x2="42.8097" y2="53.1505" gradientUnits="userSpaceOnUse">
<stop stop-color="#0FBBEE"/>
<stop offset="0.44" stop-color="#119ED9"/>
<stop offset="1" stop-color="#1373BA"/>
</linearGradient>
</defs>
</svg>
