<svg width="19" height="19" viewBox="0 0 19 19" fill="none" xmlns="http://www.w3.org/2000/svg">
<path fill-rule="evenodd" clip-rule="evenodd" d="M4.05363 2.83018C4.71457 2.16923 5.80524 2.23713 6.3791 2.97496L7.97662 5.02891C8.26978 5.40583 8.37338 5.89661 8.25756 6.35986L7.77015 8.30949C7.7187 8.51532 7.77901 8.73306 7.92903 8.88308L10.1169 11.071C10.2669 11.221 10.4847 11.2813 10.6905 11.2298L12.6401 10.7424C13.1034 10.6266 13.5942 10.7302 13.9711 11.0234L16.025 12.6209C16.7629 13.1948 16.8308 14.2854 16.1698 14.9464L15.249 15.8672C14.5902 16.526 13.6048 16.8153 12.6864 16.4924C10.4062 15.6908 8.26594 14.3783 6.44381 12.5562C4.62169 10.7341 3.30922 8.59375 2.50756 6.31357C2.18469 5.39522 2.47398 4.40983 3.13279 3.75101L4.05363 2.83018Z" fill="#D1E6FF"/>
</svg>
