<svg width="18" height="18" viewBox="0 0 18 18" fill="none" xmlns="http://www.w3.org/2000/svg">
<path d="M9 0.5C9.5868 0.5 10.0625 0.975697 10.0625 1.5625V7.9375H16.4375C17.0243 7.9375 17.5 8.4132 17.5 9C17.5 9.5868 17.0243 10.0625 16.4375 10.0625H10.0625V16.4375C10.0625 17.0243 9.5868 17.5 9 17.5C8.4132 17.5 7.9375 17.0243 7.9375 16.4375V10.0625H1.5625C0.975697 10.0625 0.5 9.5868 0.5 9C0.5 8.4132 0.975697 7.9375 1.5625 7.9375H7.9375V1.5625C7.9375 0.975697 8.4132 0.5 9 0.5Z" fill="#A2A2A2"/>
</svg>
