<svg width="16" height="16" viewBox="0 0 16 16" fill="none" xmlns="http://www.w3.org/2000/svg">
<path d="M0.873699 0.873699C1.28863 0.458767 1.96137 0.458767 2.3763 0.873699L8 6.4974L13.6237 0.873699C14.0386 0.458767 14.7114 0.458767 15.1263 0.873699C15.5412 1.28863 15.5412 1.96137 15.1263 2.3763L9.5026 8L15.1263 13.6237C15.5412 14.0386 15.5412 14.7114 15.1263 15.1263C14.7114 15.5412 14.0386 15.5412 13.6237 15.1263L8 9.5026L2.3763 15.1263C1.96137 15.5412 1.28863 15.5412 0.873699 15.1263C0.458767 14.7114 0.458767 14.0386 0.873699 13.6237L6.4974 8L0.873699 2.3763C0.458767 1.96137 0.458767 1.28863 0.873699 0.873699Z" fill="#F4F4F4"/>
</svg>
