<svg width="18" height="19" viewBox="0 0 18 19" fill="none" xmlns="http://www.w3.org/2000/svg">
<path fill-rule="evenodd" clip-rule="evenodd" d="M4.08599 3.58322C4.68233 3.00755 5.66639 3.06669 6.18416 3.70932L7.62553 5.49827C7.89004 5.82656 7.98351 6.25402 7.87902 6.6575L7.43925 8.3556C7.39282 8.53487 7.44724 8.72451 7.5826 8.85518L9.55663 10.7608C9.69199 10.8915 9.88844 10.944 10.0742 10.8992L11.8332 10.4746C12.2512 10.3738 12.694 10.464 13.0341 10.7193L14.8873 12.1107C15.553 12.6106 15.6142 13.5605 15.0179 14.1362L14.1871 14.9382C13.5927 15.512 12.7036 15.764 11.875 15.4828C9.81768 14.7846 7.88657 13.6414 6.24255 12.0544C4.59853 10.4673 3.41435 8.60318 2.69104 6.61718C2.39973 5.81732 2.66074 4.95906 3.25516 4.38525L4.08599 3.58322Z" fill="#EDEDED"/>
</svg>
