<svg width="50" height="36" viewBox="0 0 50 36" fill="none" xmlns="http://www.w3.org/2000/svg">
<path d="M43.6875 29.375C44.3337 29.3742 44.9533 29.1172 45.4102 28.6602C45.8672 28.2033 46.1242 27.5837 46.125 26.9375V2.5625C46.1242 1.91627 45.8672 1.29672 45.4102 0.839758C44.9533 0.382801 44.3337 0.125753 43.6875 0.125H6.3125C5.66627 0.125753 5.04672 0.382801 4.58976 0.839758C4.1328 1.29672 3.87575 1.91627 3.875 2.5625V26.9375C3.87575 27.5837 4.1328 28.2033 4.58976 28.6602C5.04672 29.1172 5.66627 29.3742 6.3125 29.375H43.6875ZM7.125 3.375H42.875V26.125H7.125V3.375ZM0.625 32.625H49.375V35.875H0.625V32.625Z" fill="#D582AA"/>
</svg>
