<svg width="16" height="17" viewBox="0 0 16 17" fill="none" xmlns="http://www.w3.org/2000/svg">
<path d="M1.33398 7.83335H14.6673V13.8334C14.6673 14.0102 14.5971 14.1797 14.4721 14.3048C14.347 14.4298 14.1775 14.5 14.0007 14.5H2.00065C1.82384 14.5 1.65427 14.4298 1.52925 14.3048C1.40422 14.1797 1.33398 14.0102 1.33398 13.8334V7.83335ZM11.334 2.50002H14.0007C14.1775 2.50002 14.347 2.57026 14.4721 2.69528C14.5971 2.82031 14.6673 2.98988 14.6673 3.16669V6.50002H1.33398V3.16669C1.33398 2.98988 1.40422 2.82031 1.52925 2.69528C1.65427 2.57026 1.82384 2.50002 2.00065 2.50002H4.66732V1.16669H6.00065V2.50002H10.0007V1.16669H11.334V2.50002Z" fill="#A2A2A2"/>
</svg>
