<svg width="18" height="18" viewBox="0 0 18 18" fill="none" xmlns="http://www.w3.org/2000/svg">
<path d="M15.4286 9.00001C15.4286 12.5504 12.5504 15.4286 9.00001 15.4286C5.44961 15.4286 2.57144 12.5504 2.57144 9.00001C2.57144 5.44961 5.44961 2.57144 9.00001 2.57144C12.5504 2.57144 15.4286 5.44961 15.4286 9.00001ZM9.00001 5.38394C9.00001 5.16204 8.82013 4.98216 8.59823 4.98216C8.37633 4.98216 8.19644 5.16204 8.19644 5.38394V9.80359C8.19644 9.94777 8.2737 10.0809 8.39889 10.1524L11.2114 11.7596C11.404 11.8697 11.6495 11.8027 11.7596 11.6101C11.8697 11.4174 11.8027 11.172 11.6101 11.0619L9.00001 9.57042V5.38394Z" fill="#EDEDED"/>
</svg>
