<svg width="53" height="58" viewBox="0 0 53 58" fill="none" xmlns="http://www.w3.org/2000/svg">
<path d="M4.98181 37.2849V39.5512C4.98199 40.0324 5.10038 40.5064 5.32691 40.933C5.55343 41.3599 5.88136 41.7262 6.28281 42.0015L15.4159 33.0189L12.8839 30.5287C12.8161 30.4622 12.7357 30.4093 12.6472 30.3732C12.5587 30.3372 12.4639 30.3186 12.3681 30.3186C12.2723 30.3186 12.1774 30.3372 12.0889 30.3732C12.0004 30.4093 11.92 30.4622 11.8523 30.5287L4.98181 37.2849Z" fill="url(#paint0_linear_273_516)"/>
<path d="M12.3673 27.5881C12.6734 27.5873 12.9767 27.6461 13.2596 27.7615C13.5424 27.8768 13.7992 28.0461 14.015 28.2596L17.134 31.327L23.5376 25.029C24.2018 24.3768 25.102 24.0105 26.0406 24.0105C26.9792 24.0105 27.8794 24.3768 28.5436 25.029L37.4476 33.7861L40.1996 31.0795C40.637 30.6503 41.2294 30.4093 41.8474 30.4093C42.4651 30.4093 43.0577 30.6503 43.4949 31.0795L47.0997 34.6277V19.0864C47.0997 18.5616 46.9592 18.0461 46.6921 17.5916C46.4253 17.1372 46.0416 16.7598 45.5796 16.4974L27.5605 6.26559C27.0984 6.00315 26.574 5.86499 26.0403 5.86499C25.5067 5.86499 24.9824 6.00315 24.5202 6.26559L6.50085 16.4974C6.03875 16.7598 5.655 17.1372 5.38816 17.5916C5.12133 18.0461 4.98082 18.5616 4.98071 19.0864V33.9023L10.7185 28.2593C10.9344 28.0456 11.1914 27.8763 11.4744 27.7613C11.7575 27.6461 12.0609 27.587 12.3673 27.5881Z" fill="url(#paint1_linear_273_516)"/>
<path d="M39.1667 35.4779L45.7977 42.0007C46.1992 41.7254 46.5271 41.3589 46.7535 40.9323C46.98 40.5057 47.0982 40.0316 47.0984 39.5504V38.0089L42.3611 33.3497C42.2243 33.2152 42.0388 33.1396 41.8453 33.1396C41.6516 33.1396 41.4661 33.2152 41.3293 33.3497L39.1667 35.4779Z" fill="url(#paint2_linear_273_516)"/>
<path d="M37.4472 37.1682L35.7282 35.4778L26.8241 26.721C26.6163 26.5168 26.3348 26.4023 26.0411 26.4023C25.7475 26.4023 25.4659 26.5168 25.2581 26.721L18.8544 33.019L17.1351 34.7099L8.4538 43.2468L24.5201 52.3702C24.9822 52.6326 25.5065 52.7708 26.0402 52.7708C26.5738 52.7708 27.0982 52.6326 27.5603 52.3702L43.6266 43.2468L37.4472 37.1682Z" fill="url(#paint3_linear_273_516)"/>
<path d="M26.041 3.11676C26.6369 3.1166 27.2227 3.27085 27.7388 3.56398L47.8698 14.9948C48.3861 15.288 48.8147 15.7096 49.1127 16.2173C49.4107 16.725 49.5677 17.3009 49.5677 17.8872V40.7488C49.5677 41.335 49.4107 41.9108 49.1127 42.4186C48.8147 42.9262 48.3861 43.3479 47.8698 43.6409L27.7388 55.0718C27.2225 55.3648 26.6369 55.5192 26.0408 55.5192C25.4447 55.5192 24.8591 55.3648 24.3429 55.0718L4.21182 43.6409C3.6956 43.3479 3.26693 42.9262 2.9689 42.4186C2.67088 41.9108 2.51397 41.335 2.51399 40.7488V17.8872C2.51398 17.3009 2.67088 16.725 2.9689 16.2173C3.26695 15.7096 3.6956 15.288 4.21182 14.9948L24.3429 3.56398C24.8592 3.27088 25.4448 3.11663 26.041 3.11676ZM26.041 0.644287C25.0036 0.644686 23.9847 0.913226 23.0861 1.42299L2.95483 12.8538C2.05756 13.3652 1.31244 14.0991 0.793922 14.9824C0.275406 15.8657 0.00164752 16.8673 0 17.8872V40.7488C0.00170053 41.7688 0.275514 42.7705 0.794074 43.6536C1.31264 44.5369 2.05779 45.2708 2.95509 45.7822L23.0861 57.213C23.9846 57.7231 25.0036 57.9915 26.041 57.9915C27.0783 57.9915 28.0973 57.7231 28.9958 57.213L49.1268 45.7822C50.0242 45.271 50.7696 44.5369 51.2883 43.6538C51.807 42.7705 52.0809 41.7688 52.0827 40.7488V17.8872C52.0811 16.8673 51.8072 15.8657 51.2888 14.9824C50.7701 14.0992 50.025 13.3652 49.1279 12.8538L28.9968 1.42299C28.0984 0.913259 27.0794 0.644722 26.042 0.644287H26.041Z" fill="url(#paint4_linear_273_516)"/>
<defs>
<linearGradient id="paint0_linear_273_516" x1="10.1989" y1="6.22833" x2="10.1989" y2="52.96" gradientUnits="userSpaceOnUse">
<stop offset="0.004" stop-color="#4C99D4"/>
<stop offset="0.5" stop-color="#56C3E6"/>
<stop offset="1" stop-color="#B0D8BC"/>
</linearGradient>
<linearGradient id="paint1_linear_273_516" x1="26.0402" y1="6.23891" x2="26.0402" y2="52.9784" gradientUnits="userSpaceOnUse">
<stop offset="0.004" stop-color="#4C99D4"/>
<stop offset="0.5" stop-color="#56C3E6"/>
<stop offset="1" stop-color="#B0D8BC"/>
</linearGradient>
<linearGradient id="paint2_linear_273_516" x1="43.1327" y1="6.22818" x2="43.1327" y2="52.9621" gradientUnits="userSpaceOnUse">
<stop offset="0.004" stop-color="#4C99D4"/>
<stop offset="0.5" stop-color="#56C3E6"/>
<stop offset="1" stop-color="#B0D8BC"/>
</linearGradient>
<linearGradient id="paint3_linear_273_516" x1="26.0402" y1="6.23048" x2="26.0402" y2="52.9553" gradientUnits="userSpaceOnUse">
<stop offset="0.004" stop-color="#4C99D4"/>
<stop offset="0.5" stop-color="#56C3E6"/>
<stop offset="1" stop-color="#B0D8BC"/>
</linearGradient>
<linearGradient id="paint4_linear_273_516" x1="26.0413" y1="57.9915" x2="26.0413" y2="0.644287" gradientUnits="userSpaceOnUse">
<stop stop-color="#B0D8BC"/>
<stop offset="0.5" stop-color="#56C3E6"/>
<stop offset="0.996" stop-color="#4C99D4"/>
</linearGradient>
</defs>
</svg>
