<svg width="57" height="56" viewBox="0 0 57 56" fill="none" xmlns="http://www.w3.org/2000/svg">
<path d="M10.3083 15.407L14.2999 17.3695C15.0346 17.6851 15.8342 17.8272 16.6347 17.7847C17.4352 17.7421 18.2145 17.5159 18.9102 17.1242L22.6823 14.7104C23.3314 14.2471 23.8597 13.6393 24.2239 12.9366C24.5881 12.234 24.778 11.4565 24.7778 10.6677L24.5384 6.24243C24.451 5.4601 24.178 4.70877 23.7412 4.04919C23.3043 3.38962 22.7161 2.84013 22.0236 2.44509L18.032 0.433584C17.2988 0.114294 16.4993 -0.0307305 15.6984 0.0101865C14.8974 0.0511036 14.1175 0.276784 13.4217 0.669077L9.64978 3.08289C9.00185 3.5473 8.47436 4.15536 8.11033 4.85782C7.74619 5.56018 7.55559 6.33721 7.5541 7.12553L7.79359 11.5508C7.87113 12.3439 8.13966 13.1073 8.57694 13.7778C9.01422 14.4485 9.60777 15.007 10.3083 15.407Z" fill="url(#paint0_linear_273_579)"/>
<path d="M34.3875 21.1375L30.3959 19.126C29.663 18.8105 28.865 18.6684 28.0661 18.711C27.2672 18.7536 26.4896 18.9798 25.7956 19.3713L21.9836 21.7851C21.3381 22.2517 20.8123 22.8602 20.4485 23.5622C20.0846 24.2641 19.8926 25.0399 19.888 25.8277L20.1276 30.2531C20.2149 31.0355 20.488 31.7868 20.9247 32.4464C21.3616 33.106 21.9499 33.6555 22.6422 34.0504L26.6338 36.0128C27.3655 36.332 28.1633 36.4772 28.9627 36.4362C29.762 36.3953 30.5402 36.1695 31.2341 35.7774L35.0162 33.3635C35.662 32.8949 36.1877 32.2846 36.5514 31.581C36.9153 30.8776 37.1072 30.1003 37.1118 29.3111L36.8723 24.8956C36.7808 24.1233 36.5088 23.3821 36.0779 22.7302C35.6468 22.0783 35.0683 21.5332 34.3875 21.1375Z" fill="url(#paint1_linear_273_579)"/>
<path d="M46.7017 39.8005L42.7101 37.838C41.9767 37.5186 41.1773 37.3736 40.3764 37.4145C39.5755 37.4554 38.7955 37.6811 38.0998 38.0735L34.3278 40.4873C33.681 40.9527 33.1544 41.5611 32.7905 42.2632C32.4264 42.9654 32.2352 43.7418 32.2321 44.53L32.4717 48.9553C32.5672 49.725 32.8421 50.4628 33.2747 51.1111C33.7073 51.7595 34.2863 52.301 34.9665 52.6937L38.9581 54.6562C39.6927 54.9716 40.4923 55.1138 41.2928 55.0712C42.0933 55.0286 42.8725 54.8025 43.5684 54.4109L47.3503 51.9971C47.9965 51.5316 48.5219 50.923 48.8843 50.2207C49.2466 49.5183 49.4356 48.742 49.436 47.9544L49.2264 43.6076C49.1403 42.8223 48.8667 42.0682 48.4279 41.4065C47.9893 40.745 47.3977 40.1946 46.7017 39.8005Z" fill="url(#paint2_linear_273_579)"/>
<path d="M17.2936 28.8106L17.104 25.3665C17.1086 24.5786 17.3005 23.8028 17.6644 23.1009C18.0282 22.399 18.5539 21.7904 19.1996 21.3238L26.5541 16.6238C27.248 16.2323 28.0257 16.0061 28.8246 15.9635C29.6235 15.9209 30.4215 16.0631 31.1544 16.3785L34.2878 17.9484C35.0212 18.2677 35.8206 18.4128 36.6215 18.3719C37.4225 18.331 38.2024 18.1052 38.8981 17.7129L42.6702 15.2893C43.3175 14.8244 43.8445 14.2162 44.2085 13.5139C44.5726 12.8116 44.7635 12.035 44.7658 11.2467L44.5263 6.83116C44.4404 6.04706 44.168 5.29378 43.7311 4.63244C43.2943 3.97099 42.7052 3.42003 42.0116 3.02401L38.02 1.01251C37.2853 0.697043 36.4858 0.554863 35.6852 0.597448C34.8847 0.640033 34.1054 0.866206 33.4097 1.25781L29.5578 3.63237C28.9116 4.09786 28.3861 4.70642 28.0238 5.40878C27.6615 6.11114 27.4725 6.88748 27.4722 7.67501L27.6518 11.1191C27.6515 11.9067 27.4624 12.6831 27.1 13.3854C26.7377 14.0878 26.2122 14.6964 25.5662 15.1617L18.2117 19.8618C17.5159 20.2541 16.7361 20.4799 15.9352 20.5208C15.1341 20.5617 14.3347 20.4166 13.6014 20.0973L10.4779 18.5372C9.74459 18.2179 8.94517 18.0728 8.14416 18.1138C7.34324 18.1547 6.56338 18.3804 5.86764 18.7726L2.09559 21.1865C1.44765 21.6509 0.920263 22.2589 0.55613 22.9614C0.191996 23.6639 0.00149685 24.4408 0 25.2291L0.239494 29.6544C0.324515 30.4388 0.596642 31.1924 1.03352 31.8539C1.4705 32.5155 2.05996 33.0662 2.7542 33.4616L6.7458 35.424C7.48045 35.7396 8.27997 35.8817 9.08048 35.8392C9.881 35.7966 10.6604 35.5704 11.3561 35.1787L15.1282 32.7649C15.7764 32.3162 16.3094 31.7253 16.6853 31.0389C17.0611 30.3527 17.2693 29.5898 17.2936 28.8106Z" fill="url(#paint3_linear_273_579)"/>
<path d="M56.8005 25.4942C56.7116 24.7109 56.438 23.9589 56.0014 23.2979C55.5648 22.637 54.9774 22.0854 54.2858 21.6871L50.2942 19.7246C49.5594 19.4099 48.7599 19.2681 47.9595 19.3107C47.1591 19.3532 46.3799 19.579 45.6839 19.9699L41.9118 22.3837C41.265 22.8492 40.7385 23.4575 40.3745 24.1597C40.0106 24.8618 39.8193 25.6383 39.8163 26.4264L40.0059 29.8803C40.0028 30.6683 39.8116 31.4448 39.4476 32.1469C39.0836 32.8491 38.557 33.4574 37.9102 33.9229L30.5657 38.6132C29.8699 39.0048 29.0907 39.231 28.2901 39.2735C27.4896 39.3161 26.6901 39.1739 25.9554 38.8585L22.822 37.2885C22.089 36.9731 21.2911 36.8309 20.4922 36.8735C19.6932 36.9161 18.9157 37.1422 18.2216 37.5338L14.4097 39.9378C13.7641 40.4044 13.2384 41.0129 12.8745 41.7148C12.5107 42.4167 12.3188 43.1926 12.3142 43.9805L12.5536 48.4057C12.641 49.1881 12.914 49.9394 13.3508 50.599C13.7877 51.2586 14.3759 51.8081 15.0684 52.2031L19.06 54.2146C19.7915 54.5338 20.5894 54.6788 21.3887 54.6379C22.1881 54.597 22.9662 54.3712 23.6603 53.979L27.4422 51.5652C28.0873 51.0982 28.6127 50.4895 28.9764 49.7877C29.3402 49.0859 29.5324 48.3103 29.5379 47.5227L29.3483 44.0687C29.3505 43.2805 29.5414 42.5038 29.9054 41.8016C30.2695 41.0992 30.7965 40.491 31.4438 40.026L38.7883 35.3261C39.4841 34.9338 40.264 34.708 41.0649 34.6671C41.8659 34.6262 42.6653 34.7712 43.3986 35.0905L46.5221 36.6507C47.2554 36.97 48.0549 37.115 48.8559 37.0741C49.6568 37.0332 50.4366 36.8075 51.1324 36.4152L54.9145 34.0014C55.5599 33.5353 56.085 32.9267 56.4473 32.2245C56.8096 31.5223 56.9989 30.7461 57 29.9588L56.8005 25.4942Z" fill="url(#paint4_linear_273_579)"/>
<defs>
<linearGradient id="paint0_linear_273_579" x1="28.5" y1="-42.1292" x2="28.5" y2="55.4641" gradientUnits="userSpaceOnUse">
<stop offset="0.004" stop-color="#00477D"/>
<stop offset="0.541789" stop-color="#56C3E6"/>
<stop offset="1" stop-color="#A5CDB1"/>
</linearGradient>
<linearGradient id="paint1_linear_273_579" x1="28.5" y1="-42.1292" x2="28.5" y2="55.4641" gradientUnits="userSpaceOnUse">
<stop offset="0.004" stop-color="#00477D"/>
<stop offset="0.541789" stop-color="#56C3E6"/>
<stop offset="1" stop-color="#A5CDB1"/>
</linearGradient>
<linearGradient id="paint2_linear_273_579" x1="28.5" y1="-42.1292" x2="28.5" y2="55.4641" gradientUnits="userSpaceOnUse">
<stop offset="0.004" stop-color="#00477D"/>
<stop offset="0.541789" stop-color="#56C3E6"/>
<stop offset="1" stop-color="#A5CDB1"/>
</linearGradient>
<linearGradient id="paint3_linear_273_579" x1="28.5" y1="-42.1292" x2="28.5" y2="55.4641" gradientUnits="userSpaceOnUse">
<stop offset="0.004" stop-color="#00477D"/>
<stop offset="0.541789" stop-color="#56C3E6"/>
<stop offset="1" stop-color="#A5CDB1"/>
</linearGradient>
<linearGradient id="paint4_linear_273_579" x1="28.5" y1="-42.1292" x2="28.5" y2="55.4641" gradientUnits="userSpaceOnUse">
<stop offset="0.004" stop-color="#00477D"/>
<stop offset="0.541789" stop-color="#56C3E6"/>
<stop offset="1" stop-color="#A5CDB1"/>
</linearGradient>
</defs>
</svg>
