<svg width="60" height="60" viewBox="0 0 60 60" fill="none" xmlns="http://www.w3.org/2000/svg">
<path d="M5.87259 26.5208C5.6289 25.6266 5.62887 24.6851 5.87249 23.7909C6.11611 22.8966 6.5948 22.0812 7.26044 21.4266L21.1309 7.78518C21.7965 7.13053 22.6256 6.65974 23.5348 6.42014C24.444 6.18054 25.4014 6.18057 26.3106 6.42024L39.2899 9.8406C39.4249 8.09185 40.044 6.41275 41.08 4.98519L25.4474 0.866028C24.3254 0.570367 23.144 0.570373 22.0219 0.866047C20.8998 1.16172 19.8767 1.74265 19.0553 2.55044L1.93815 19.385C1.11679 20.1929 0.526119 21.1991 0.225483 22.3026C-0.0751544 23.4061 -0.0751609 24.5681 0.225463 25.6716L4.57489 41.6357C5.99673 40.5679 7.68953 39.9046 9.46852 39.7186L5.87259 26.5208Z" fill="#18CDCA"/>
<path d="M50.412 20.1381L54.128 33.777C54.3718 34.6714 54.3715 35.6128 54.128 36.5069C53.8842 37.4012 53.4054 38.2166 52.7398 38.8712L38.8694 52.5129C38.2037 53.1675 37.3747 53.6381 36.4653 53.8779C35.5563 54.1173 34.5987 54.1173 33.6896 53.8779L20.2703 50.3413C20.0812 52.091 19.4069 53.7559 18.321 55.1541L34.5531 59.4317C35.6751 59.7275 36.8566 59.7275 37.9785 59.4317C39.1008 59.136 40.1238 58.5553 40.9453 57.7473L58.0624 40.9128C58.8839 40.1049 59.4744 39.0988 59.7751 37.995C60.0759 36.8916 60.0759 35.7296 59.7751 34.6262L55.2616 18.0645C53.8699 19.1817 52.1917 19.8993 50.412 20.1381Z" fill="#18CDCA"/>
<path d="M4.96515 43.8373C3.86584 44.9183 3.11719 46.2961 2.81389 47.7955C2.51058 49.2953 2.66624 50.8497 3.26119 52.2624C3.8561 53.6747 4.8636 54.8822 6.15623 55.7318C7.44888 56.5811 8.96859 57.0347 10.5233 57.0347C12.0779 57.0347 13.5976 56.5811 14.8903 55.7318C16.1829 54.8822 17.1904 53.6747 17.7853 52.2624C18.3803 50.8497 18.5359 49.2953 18.2326 47.7955C17.9293 46.2961 17.1807 44.9183 16.0814 43.8373C14.6061 42.3897 12.6072 41.5767 10.5233 41.5767C8.43929 41.5767 6.4404 42.3897 4.96515 43.8373Z" fill="#3FAAD7"/>
<path d="M43.5117 5.12884C42.4125 6.21 41.6636 7.58748 41.3606 9.08713C41.0572 10.5867 41.2128 12.1412 41.8078 13.5538C42.4028 14.9664 43.4101 16.1738 44.7026 17.0233C45.9954 17.8728 47.5151 18.3262 49.0696 18.3262C50.6245 18.3262 52.1441 17.8728 53.437 17.0233C54.7295 16.1738 55.7368 14.9664 56.3318 13.5538C56.9268 12.1412 57.0824 10.5867 56.779 9.08713C56.476 7.58748 55.7271 6.21 54.6279 5.12884C53.1528 3.68118 51.1537 2.86816 49.0696 2.86816C46.9859 2.86816 44.9868 3.68118 43.5117 5.12884Z" fill="#3FAAD7"/>
<path d="M34.614 50.6409C34.2983 50.6409 33.9842 50.6002 33.6792 50.5199L21.3955 47.2826C20.9859 45.1315 19.9248 43.1523 18.3513 41.6049C16.7778 40.0575 14.7654 39.0137 12.5782 38.611L9.28688 26.5311C9.12372 25.9286 9.12418 25.2945 9.28828 24.6922C9.45239 24.0899 9.77436 23.5405 10.222 23.099L22.8299 10.699C23.2784 10.2579 23.837 9.94071 24.4497 9.77925C25.0623 9.61782 25.7074 9.61785 26.32 9.77935L38.2594 12.9257C38.733 15.0635 39.852 17.0107 41.47 18.5124C43.0879 20.0141 45.1294 21.0002 47.3267 21.3416L50.7117 33.7687C50.8748 34.3715 50.8744 35.0056 50.7101 35.6077C50.546 36.2102 50.2241 36.7595 49.7763 37.2012L37.1684 49.6008C36.8338 49.9315 36.4354 50.194 35.997 50.3723C35.5585 50.5509 35.0885 50.6421 34.614 50.6409Z" fill="#A1D9DF"/>
</svg>
