<svg width="55" height="56" viewBox="0 0 55 56" fill="none" xmlns="http://www.w3.org/2000/svg">
<path d="M30.3057 9.50233L32.4272 7.39876C36.5931 3.26791 43.3753 3.16567 47.5653 7.27272C49.1529 8.83241 50.208 10.8461 50.5823 13.0308C50.9565 15.2156 50.6311 17.4618 49.6518 19.4537C49.1821 20.4053 49.0239 21.4786 49.199 22.5236C49.3744 23.5687 49.8744 24.5334 50.6295 25.283C52.0179 23.9031 53.1183 22.2654 53.8682 20.4636C54.6181 18.6618 55.0027 16.7312 55 14.782C54.997 12.8328 54.6072 10.9032 53.8521 9.10358C53.0971 7.30387 51.9917 5.66933 50.5994 4.29332C44.7406 -1.48343 35.2306 -1.36847 29.3881 4.42451L9.1672 24.4745L7.50486 22.8262C3.26826 18.6252 3.24125 11.7584 7.55259 7.63219C9.14846 6.10955 11.1816 5.11557 13.3715 4.78747C15.5613 4.45937 17.7999 4.81333 19.7782 5.80046C20.6812 6.25929 21.7073 6.42342 22.7099 6.26943C23.7126 6.11544 24.6406 5.65121 25.3613 4.94303L25.4128 4.89217C25.4289 4.87638 25.4416 4.85758 25.4503 4.83686C25.4589 4.81617 25.4634 4.79396 25.4634 4.77154C25.4634 4.74911 25.4589 4.72691 25.4503 4.70622C25.4416 4.68552 25.4289 4.66673 25.4128 4.6509C22.6297 1.96056 18.9002 0.449395 15.0134 0.437177C11.1266 0.424962 7.38742 1.91265 4.58716 4.58544C-1.4449 10.3595 -1.42335 19.9612 4.50533 25.8399L24.7202 45.8845L22.5729 48.0137C18.4069 52.1446 11.6244 52.2468 7.43475 48.1398C5.84712 46.5802 4.79208 44.5664 4.41779 42.3817C4.04353 40.197 4.3688 37.9509 5.34796 35.9588C5.81772 35.0072 5.97604 33.9339 5.80083 32.889C5.6256 31.8439 5.12556 30.879 4.37057 30.1295C2.98219 31.5095 1.88161 33.1471 1.13169 34.9488C0.381774 36.7507 -0.00277149 38.6812 1.5036e-05 40.6306C0.00280157 42.5797 0.392866 44.5093 1.14793 46.3089C1.903 48.1087 3.00827 49.7432 4.40058 51.1192C10.2591 56.8962 19.7695 56.7815 25.6119 50.9883L45.859 30.9115L47.5276 32.5661C51.6936 36.6969 51.7967 43.422 47.6548 47.5764C46.0819 49.1509 44.051 50.1968 41.8477 50.5682C39.6445 50.9393 37.3793 50.6166 35.3702 49.6456C34.4103 49.1795 33.3274 49.0224 32.273 49.1966C31.2187 49.3705 30.2454 49.8668 29.4896 50.6161C30.8813 51.9928 32.5327 53.0843 34.3497 53.8278C36.167 54.5714 38.1139 54.9528 40.0798 54.9501C42.0455 54.9471 43.9915 54.5603 45.8064 53.8116C47.6215 53.0629 49.2699 51.9669 50.6576 50.5863C56.4837 44.7771 56.3677 35.3469 50.5255 29.5539L30.3057 9.50233ZM27.7388 42.8899L12.1866 27.4688L27.286 12.4969L42.8382 27.918L27.7388 42.8899Z" fill="#3FAAD7"/>
</svg>
