<svg width="84" height="41" viewBox="0 0 84 41" fill="none" xmlns="http://www.w3.org/2000/svg">
<rect width="84" height="41" rx="4" fill="#B4CE77"/>
<path d="M20.5925 15.44V26H18.8805V15.44H20.5925ZM31.0714 15.68C30.538 15.68 30.0527 15.744 29.6154 15.872C29.178 15.9893 28.7834 16.128 28.4314 16.288L27.8394 15.088C28.2767 14.8747 28.778 14.7093 29.3434 14.592C29.9087 14.4747 30.49 14.416 31.0874 14.416C32.0047 14.416 32.7994 14.56 33.4714 14.848C34.154 15.1253 34.7194 15.52 35.1674 16.032C35.6154 16.544 35.946 17.1467 36.1594 17.84C36.3834 18.5227 36.4954 19.2747 36.4954 20.096C36.4954 21.344 36.2927 22.4213 35.8874 23.328C35.482 24.2347 34.8687 24.9333 34.0474 25.424C33.2367 25.9147 32.2127 26.16 30.9754 26.16C30.314 26.16 29.754 26.1227 29.2954 26.048C28.8367 25.9733 28.3834 25.856 27.9354 25.696V24.448C28.3834 24.5653 28.8367 24.672 29.2954 24.768C29.754 24.8533 30.2394 24.896 30.7514 24.896C31.4447 24.896 32.0474 24.8053 32.5594 24.624C33.082 24.432 33.5194 24.16 33.8714 23.808C34.2234 23.4453 34.49 23.0027 34.6714 22.48C34.8527 21.9467 34.954 21.3387 34.9754 20.656H29.4234V19.392H34.9594C34.906 18.8053 34.778 18.2827 34.5754 17.824C34.3727 17.3653 34.1007 16.976 33.7594 16.656C33.4287 16.336 33.034 16.096 32.5754 15.936C32.1274 15.7653 31.626 15.68 31.0714 15.68ZM42.168 26H40.728V15.84H37.16V14.576H45.72V15.84H42.168V26ZM53.4856 26L52.1096 22.464H47.5816L46.2216 26H44.7656L49.2296 14.528H50.5256L54.9736 26H53.4856ZM50.3976 17.728C50.3656 17.6427 50.3123 17.488 50.2376 17.264C50.163 17.04 50.0883 16.8107 50.0136 16.576C49.9496 16.3307 49.8963 16.144 49.8536 16.016C49.8003 16.2293 49.7416 16.448 49.6776 16.672C49.6243 16.8853 49.5656 17.0827 49.5016 17.264C49.4483 17.4453 49.4003 17.6 49.3576 17.728L48.0616 21.184H51.6776L50.3976 17.728ZM56.5364 26V14.576H65.1124V26H63.6884V15.84H57.9764V26H56.5364Z" fill="white"/>
</svg>
