<svg width="59" height="46" viewBox="0 0 59 46" fill="none" xmlns="http://www.w3.org/2000/svg">
<path d="M26.8738 0L15.2122 20.4307L25.902 12.1611L31.7328 17.0256L33.6764 14.1069L43.3944 20.4307L33.6764 5.83734L31.7328 7.29667L26.8738 0Z" fill="#6A9BDB"/>
<path d="M0 34.6703H1.00329V31.6279H3.16769C4.85862 31.6279 6.01973 30.703 6.01973 29.2208C6.031 27.7164 4.90371 26.8137 3.16769 26.8137H0V34.6703ZM1.00329 30.7253V27.7052H3.16769C4.31752 27.7052 5.00517 28.2959 5.00517 29.2208C5.00517 30.1346 4.31752 30.7253 3.16769 30.7253H1.00329Z" fill="#6A9BDB"/>
<path d="M7.56297 34.6703H13.1318V33.7787H8.60008V31.0485H12.5681V30.1569H8.60008V27.7052H13.0191V26.8137H7.56297V34.6703Z" fill="#6A9BDB"/>
<path d="M14.0299 34.6703H15.0107L15.687 32.9095H19.734L20.4104 34.6703H21.3911L18.4264 26.8137H17.0285L14.0299 34.6703ZM15.9914 32.0737L17.6711 27.7052H17.7725L19.4409 32.0737H15.9914Z" fill="#6A9BDB"/>
<path d="M22.799 34.6703H23.8248V30.9816H23.9376L27.3307 34.6703H28.6271L24.8169 30.6138L28.5144 26.8137H27.2293L23.9376 30.2461H23.8248V26.8137H22.799V34.6703Z" fill="#6A9BDB"/>
<path d="M32.6107 34.9489C34.5609 34.9489 35.6994 34.0239 35.6994 32.5529C35.6994 30.7698 34.0649 30.4578 32.6219 30.2238C31.4495 30.0455 30.3899 29.856 30.3899 28.8196C30.3899 27.9727 31.0888 27.4266 32.3739 27.4266C33.7379 27.4266 34.5271 28.0841 34.5271 29.1985H35.5191C35.5078 27.5381 34.3241 26.5351 32.3739 26.5351C30.4575 26.5351 29.3641 27.4601 29.3641 28.8754C29.3641 30.5804 30.9423 30.9482 32.3739 31.171C33.5689 31.3605 34.6736 31.5388 34.6736 32.6198C34.6736 33.5001 33.9183 34.0573 32.6219 34.0573C31.1339 34.0573 30.2659 33.333 30.2546 32.1183H29.2401C29.2401 33.8679 30.5252 34.9489 32.6107 34.9489Z" fill="#6A9BDB"/>
<path d="M41.2065 34.9489C43.7204 34.9489 45.5015 33.2104 45.5015 30.7364C45.5015 28.2847 43.7204 26.5351 41.2065 26.5351C38.6927 26.5351 36.9115 28.2847 36.9115 30.7364C36.9115 33.2104 38.6927 34.9489 41.2065 34.9489ZM41.2065 34.0573C39.3014 34.0573 37.9374 32.6643 37.9374 30.7364C37.9374 28.8085 39.3014 27.4266 41.2065 27.4266C43.1116 27.4266 44.4644 28.8085 44.4644 30.7364C44.4644 32.6643 43.1116 34.0573 41.2065 34.0573Z" fill="#6A9BDB"/>
<path d="M47.1502 34.6703H48.1873V31.0485H51.7609V30.1569H48.1873V27.7052H52.2118V26.8137H47.1502V34.6703Z" fill="#6A9BDB"/>
<path d="M55.3363 34.6703H56.3621V27.7052H59V26.8137H52.7097V27.7052H55.3363V34.6703Z" fill="#6A9BDB"/>
<path d="M15.9186 45.8143H16.61V43.3774H19.4658V45.8143H20.1497V40.5766H19.4658V42.7831H16.61V40.5766H15.9186V45.8143Z" fill="#C8C8C8"/>
<path d="M24.1099 46C25.7858 46 26.9732 44.841 26.9732 43.1917C26.9732 41.5573 25.7858 40.3908 24.1099 40.3908C22.434 40.3908 21.2466 41.5573 21.2466 43.1917C21.2466 44.841 22.434 46 24.1099 46ZM24.1099 45.4056C22.8398 45.4056 21.9305 44.477 21.9305 43.1917C21.9305 41.9064 22.8398 40.9852 24.1099 40.9852C25.38 40.9852 26.2818 41.9064 26.2818 43.1917C26.2818 44.477 25.38 45.4056 24.1099 45.4056Z" fill="#C8C8C8"/>
<path d="M30.2067 46C31.4693 46 32.3711 45.0788 32.3711 43.8009V40.5766H31.6872V43.8009C31.6872 44.737 31.071 45.4056 30.2067 45.4056C29.3424 45.4056 28.7187 44.737 28.7187 43.8009V40.5766H28.0273V43.8009C28.0273 45.0788 28.9441 46 30.2067 46Z" fill="#C8C8C8"/>
<path d="M35.7217 46C37.0218 46 37.7809 45.3834 37.7809 44.4027C37.7809 43.214 36.6911 43.006 35.7292 42.85C34.9476 42.7311 34.2412 42.6048 34.2412 41.9139C34.2412 41.3492 34.7071 40.9852 35.5639 40.9852C36.4732 40.9852 36.9993 41.4235 36.9993 42.1665H37.6606C37.6531 41.0595 36.864 40.3908 35.5639 40.3908C34.2863 40.3908 33.5573 41.0075 33.5573 41.951C33.5573 43.0877 34.6094 43.3329 35.5639 43.4815C36.3605 43.6077 37.097 43.7266 37.097 44.4473C37.097 45.0342 36.5934 45.4056 35.7292 45.4056C34.7372 45.4056 34.1585 44.9227 34.151 44.1129H33.4746C33.4746 45.2794 34.3314 46 35.7217 46Z" fill="#C8C8C8"/>
<path d="M38.9196 45.8143H42.6321V45.2199H39.611V43.3997H42.2564V42.8054H39.611V41.1709H42.557V40.5766H38.9196V45.8143Z" fill="#C8C8C8"/>
</svg>
