<svg width="42" height="57" viewBox="0 0 42 57" fill="none" xmlns="http://www.w3.org/2000/svg">
<g clip-path="url(#clip0_273_2125)">
<path d="M13.544 43.9113C13.544 43.9113 11.3787 45.1713 15.0851 45.5977C19.5753 46.1102 21.87 46.0369 26.8183 45.0996C26.8183 45.0996 28.1193 45.9159 29.936 46.6229C18.8436 51.3801 4.83132 46.3473 13.544 43.9113ZM12.1885 37.7034C12.1885 37.7034 9.75992 39.5024 13.469 39.8862C18.2656 40.3813 22.0534 40.4219 28.6081 39.1589C28.6081 39.1589 29.5147 40.0786 30.9402 40.5816C17.5286 44.506 2.59055 40.8911 12.1885 37.7034Z" fill="#5382A1"/>
<path d="M23.6155 27.1729C26.3488 30.3217 22.8974 33.1553 22.8974 33.1553C22.8974 33.1553 29.8374 29.5703 26.6501 25.0808C23.6734 20.8945 21.3905 18.8141 33.7488 11.6421C33.7488 11.6421 14.3504 16.4901 23.6155 27.1727" fill="#E76F00"/>
<path d="M38.2863 48.5032C38.2863 48.5032 39.8887 49.8243 36.5215 50.8464C30.1188 52.7874 9.87246 53.3735 4.24807 50.9237C2.22633 50.0438 6.01781 48.8223 7.21038 48.5659C8.45414 48.296 9.16502 48.3464 9.16502 48.3464C6.91655 46.7613 -5.36813 51.4586 2.92507 52.8036C25.5416 56.4739 44.1527 51.1511 38.2863 48.5032ZM14.5852 31.2714C14.5852 31.2714 4.28679 33.7192 10.9384 34.6079C13.7468 34.9842 19.3454 34.8991 24.5605 34.4618C28.8225 34.1022 33.1021 33.3372 33.1021 33.3372C33.1021 33.3372 31.5993 33.9812 30.512 34.7241C20.054 37.4764 -0.14897 36.1961 5.66721 33.3807C10.586 31.0015 14.5853 31.2714 14.5853 31.2714H14.5852ZM33.0596 41.6047C43.6908 36.0767 38.7753 30.7645 35.3445 31.4803C34.5035 31.6553 34.1286 31.807 34.1286 31.807C34.1286 31.807 34.4408 31.3177 35.037 31.1059C41.8243 28.7181 47.0443 38.1484 32.846 41.8833C32.846 41.8835 33.0105 41.7364 33.0596 41.6047Z" fill="#5382A1"/>
<path d="M26.6502 0.0609552C26.6502 0.0609552 32.5379 5.95471 21.066 15.0171C11.8668 22.287 18.9683 26.432 21.0622 31.1678C15.6924 26.3198 11.7516 22.052 14.3955 18.0801C18.2757 12.2492 29.0256 9.42233 26.6502 0.060791" fill="#E76F00"/>
<path d="M15.6299 56.584C25.8344 57.2378 41.5045 56.2214 41.8756 51.3896C41.8756 51.3896 41.1623 53.2215 33.4422 54.676C24.7324 56.3161 13.9903 56.1247 7.6189 55.0735C7.61906 55.0735 8.92319 56.1537 15.6301 56.584" fill="#5382A1"/>
</g>
<defs>
<clipPath id="clip0_273_2125">
<rect width="42" height="56.8033" fill="white"/>
</clipPath>
</defs>
</svg>
