<svg width="64" height="64" viewBox="0 0 64 64" fill="none" xmlns="http://www.w3.org/2000/svg">
<circle cx="32" cy="32" r="32" fill="#7649BB"/>
<g clip-path="url(#clip0_864_4068)">
<path d="M38.1732 38.084C39.3532 37.9613 40.2492 36.9333 40.2092 35.7C40.1892 35.1072 39.9408 34.545 39.5158 34.1313C39.0908 33.7175 38.5223 33.4841 37.9292 33.48H37.8465C36.5838 33.52 35.6065 34.5893 35.6465 35.864C35.6892 36.4813 35.9332 37.0146 36.2998 37.384C34.9145 40.14 32.7972 42.1533 29.6198 43.8386C27.4625 44.9906 25.2225 45.4013 22.9838 45.1133C21.1505 44.8666 19.7252 44.044 18.8292 42.688C17.5265 40.6746 17.4052 38.4946 18.5038 36.316C19.2772 34.7546 20.4998 33.6026 21.2732 33.028C21.0634 32.3377 20.8868 31.6378 20.7438 30.9306C14.8385 35.248 15.4505 41.0853 17.2398 43.84C18.5838 45.896 21.3118 47.1706 24.3265 47.1706C25.1495 47.1762 25.97 47.0795 26.7692 46.8826C31.9825 45.856 35.9318 42.7306 38.1718 38.0853L38.1732 38.084ZM45.3398 32.9866C42.2452 29.328 37.6838 27.3133 32.4718 27.3133H31.8198C31.6342 26.9432 31.3494 26.6319 30.9972 26.4141C30.645 26.1964 30.2392 26.0807 29.8252 26.08H29.7425C28.4812 26.1213 27.5025 27.1906 27.5438 28.4653C27.5838 29.6986 28.6025 30.684 29.8238 30.684H29.9065C30.3366 30.6617 30.7518 30.5189 31.1045 30.2718C31.4573 30.0246 31.7333 29.6833 31.9012 29.2866H32.6345C35.7292 29.2866 38.6612 30.1906 41.3078 31.9586C43.3438 33.316 44.8105 35.0826 45.6238 37.2213C46.3172 38.9466 46.2772 40.632 45.5438 42.072C44.4025 44.2506 42.4892 45.4426 39.9638 45.4426C38.3358 45.4426 36.7878 44.9493 35.9732 44.5786C35.387 45.1015 34.7756 45.5955 34.1412 46.0586C35.8918 46.8813 37.6838 47.3333 39.3945 47.3333C43.3038 47.3333 46.1945 45.1546 47.2945 42.976C48.4745 40.592 48.3932 36.4813 45.3398 32.9866ZM24.6532 38.7826C24.6932 40.016 25.7118 41.0026 26.9332 41.0026H27.0145C28.2772 40.9626 29.2545 39.8933 29.2145 38.6186C29.1946 38.0258 28.9461 37.4637 28.5211 37.0499C28.0962 36.6361 27.5276 36.4028 26.9345 36.3986H26.8518C26.755 36.3922 26.6579 36.4058 26.5665 36.4386C24.8972 33.644 24.2052 30.6026 24.4492 27.3133C24.6118 24.8466 25.4265 22.7093 26.8518 20.9413C28.0332 19.4213 30.3132 18.6813 31.8612 18.64C36.1772 18.5573 38.0092 23.984 38.1318 26.1626C38.6612 26.2853 39.5572 26.5733 40.1678 26.7786C39.6785 20.12 35.6078 16.6666 31.6972 16.6666C28.0332 16.6666 24.6532 19.3386 23.3092 23.2853C21.4358 28.5466 22.6572 33.6026 24.9385 37.5906C24.7345 37.8786 24.6118 38.3306 24.6532 38.7826Z" fill="white"/>
</g>
<defs>
<clipPath id="clip0_864_4068">
<rect width="32" height="32" fill="white" transform="translate(16 16)"/>
</clipPath>
</defs>
</svg>
