<svg width="64" height="64" viewBox="0 0 64 64" fill="none" xmlns="http://www.w3.org/2000/svg">
<circle cx="32" cy="32" r="32" fill="#F5DE19"/>
<path d="M35.2999 35.4897C35.7025 36.3075 36.328 36.9948 37.1043 37.4725C37.8805 37.9503 38.776 38.1989 39.6874 38.1897C41.5268 38.1897 42.703 37.27 42.703 35.996C42.703 34.4772 41.4947 33.9339 39.4697 33.0479L38.3594 32.572C35.1531 31.2069 33.0269 29.4974 33.0269 25.8828C33.0269 22.5534 35.5581 20.017 39.5288 20.017C40.8142 19.9242 42.0984 20.2119 43.2214 20.8442C44.3443 21.4765 45.2563 22.4254 45.8434 23.5726L42.3722 25.7917C42.1462 25.2229 41.7525 24.7362 41.2435 24.3962C40.7344 24.0563 40.1341 23.8791 39.5221 23.8882C39.255 23.8614 38.9854 23.8906 38.7302 23.9739C38.4751 24.0571 38.2401 24.1926 38.0403 24.3717C37.8404 24.5508 37.68 24.7695 37.5693 25.014C37.4587 25.2585 37.4001 25.5233 37.3975 25.7917C37.3975 27.1231 38.2227 27.6631 40.1279 28.4917L41.2382 28.9675C45.0115 30.5859 47.1445 32.2345 47.1445 35.942C47.1445 39.9397 44.0041 42.13 39.787 42.13C38.1439 42.2347 36.5056 41.8617 35.0698 41.0559C33.634 40.2501 32.4621 39.0461 31.6954 37.589L35.2999 35.4897ZM19.6146 35.8745C20.3116 37.1114 20.9461 38.1577 22.4716 38.1577C23.9296 38.1577 24.8509 37.5873 24.8509 35.3682V20.2702H29.2907V35.4273C29.2907 40.024 26.5907 42.1166 22.6606 42.1166C21.2713 42.1925 19.8916 41.8463 18.7028 41.1234C17.5141 40.4006 16.5718 39.3349 16 38.0666L19.6146 35.8745Z" fill="white"/>
</svg>
