<svg width="64" height="64" viewBox="0 0 64 64" fill="none" xmlns="http://www.w3.org/2000/svg">
<circle cx="32" cy="32" r="32" fill="#5382A1"/>
<path d="M27.0296 41.3756C27.0296 41.3756 25.586 42.2186 28.0569 42.5038C31.0504 42.8466 32.5802 42.7976 35.8791 42.1706C35.8791 42.1706 36.7464 42.7166 37.9576 43.1896C30.5626 46.3721 21.2211 43.0052 27.0296 41.3756ZM26.1259 37.2227C26.1259 37.2227 24.5068 38.4261 26.9796 38.6829C30.1773 39.0141 32.7025 39.0413 37.0723 38.1964C37.0723 38.1964 37.6767 38.8116 38.627 39.1481C29.686 41.7734 19.7273 39.3552 26.1259 37.2227Z" fill="white"/>
<path d="M33.7436 30.1778C35.5658 32.2843 33.2648 34.1799 33.2648 34.1799C33.2648 34.1799 37.8915 31.7816 35.7667 28.7783C33.7822 25.9777 32.2602 24.586 40.4991 19.7881C40.4991 19.7881 27.5668 23.0313 33.7436 30.1777" fill="white"/>
<path d="M43.5243 44.4473C43.5243 44.4473 44.5926 45.3311 42.3478 46.0148C38.0793 47.3133 24.5818 47.7054 20.8322 46.0666C19.4843 45.4779 22.012 44.6608 22.807 44.4892C23.6362 44.3087 24.1101 44.3424 24.1101 44.3424C22.6111 43.282 14.4214 46.4244 19.9502 47.3242C35.0278 49.7795 47.4352 46.2187 43.5243 44.4473ZM27.7236 32.9197C27.7236 32.9197 20.858 34.5572 25.2924 35.1517C27.1646 35.4034 30.8971 35.3465 34.3738 35.0539C37.2151 34.8134 40.0682 34.3016 40.0682 34.3016C40.0682 34.3016 39.0663 34.7325 38.3415 35.2294C31.3695 37.0707 17.9008 36.2141 21.7783 34.3307C25.0574 32.7391 27.7237 32.9197 27.7237 32.9197H27.7236ZM40.0398 39.8324C47.1273 36.1343 43.8504 32.5805 41.5631 33.0594C41.0024 33.1765 40.7525 33.2779 40.7525 33.2779C40.7525 33.2779 40.9607 32.9507 41.3581 32.809C45.883 31.2115 49.363 37.5202 39.8974 40.0188C39.8974 40.0189 40.0071 39.9205 40.0398 39.8324Z" fill="white"/>
<path d="M35.7669 12.0406C35.7669 12.0406 39.6921 15.9834 32.0441 22.0459C25.9114 26.9093 30.6457 29.6822 32.0416 32.8504C28.4618 29.6072 25.8346 26.7521 27.5972 24.095C30.184 20.1943 37.3506 18.3032 35.7669 12.0405" fill="white"/>
<path d="M28.4198 49.8533C35.2228 50.2907 45.6695 49.6107 45.9169 46.3784C45.9169 46.3784 45.4414 47.6039 40.2946 48.5769C34.4881 49.6741 27.3267 49.546 23.0791 48.8428C23.0792 48.8428 23.9486 49.5655 28.4199 49.8533" fill="white"/>
</svg>
