<svg width="64" height="64" viewBox="0 0 64 64" fill="none" xmlns="http://www.w3.org/2000/svg">
<circle cx="32" cy="32" r="32" fill="#1572B6"/>
<path d="M19.9998 34.6667C19.6462 34.6667 19.3071 34.8072 19.057 35.0572C18.807 35.3073 18.6665 35.6464 18.6665 36C18.6665 36.3537 18.807 36.6928 19.057 36.9428C19.3071 37.1929 19.6462 37.3334 19.9998 37.3334C21.0607 37.3334 22.0781 37.7548 22.8283 38.5049C23.5784 39.2551 23.9998 40.2725 23.9998 41.3334C23.9998 41.687 24.1403 42.0261 24.3904 42.2762C24.6404 42.5262 24.9795 42.6667 25.3332 42.6667C25.6868 42.6667 26.0259 42.5262 26.276 42.2762C26.526 42.0261 26.6665 41.687 26.6665 41.3334C26.6665 39.5653 25.9641 37.8696 24.7139 36.6193C23.4636 35.3691 21.7679 34.6667 19.9998 34.6667ZM19.0532 40.3867C18.8678 40.5736 18.7419 40.8112 18.6913 41.0695C18.6408 41.3279 18.6678 41.5954 18.769 41.8384C18.8703 42.0814 19.0412 42.289 19.2602 42.435C19.4792 42.5811 19.7366 42.659 19.9998 42.659C20.2631 42.659 20.5204 42.5811 20.7395 42.435C20.9585 42.289 21.1294 42.0814 21.2306 41.8384C21.3319 41.5954 21.3589 41.3279 21.3083 41.0695C21.2578 40.8112 21.1319 40.5736 20.9465 40.3867C20.8226 40.2617 20.6751 40.1625 20.5126 40.0949C20.3501 40.0272 20.1759 39.9923 19.9998 39.9923C19.8238 39.9923 19.6495 40.0272 19.4871 40.0949C19.3246 40.1625 19.1771 40.2617 19.0532 40.3867ZM41.3332 21.3334H22.6665C21.6056 21.3334 20.5882 21.7548 19.8381 22.5049C19.0879 23.2551 18.6665 24.2725 18.6665 25.3334C18.6665 25.687 18.807 26.0261 19.057 26.2762C19.3071 26.5262 19.6462 26.6667 19.9998 26.6667C20.3535 26.6667 20.6926 26.5262 20.9426 26.2762C21.1927 26.0261 21.3332 25.687 21.3332 25.3334C21.3332 24.9798 21.4736 24.6406 21.7237 24.3906C21.9737 24.1405 22.3129 24 22.6665 24H41.3332C41.6868 24 42.0259 24.1405 42.276 24.3906C42.526 24.6406 42.6665 24.9798 42.6665 25.3334V38.6667C42.6665 39.0203 42.526 39.3595 42.276 39.6095C42.0259 39.8596 41.6868 40 41.3332 40H35.9998C35.6462 40 35.3071 40.1405 35.057 40.3906C34.807 40.6406 34.6665 40.9798 34.6665 41.3334C34.6665 41.687 34.807 42.0261 35.057 42.2762C35.3071 42.5262 35.6462 42.6667 35.9998 42.6667H41.3332C42.394 42.6667 43.4115 42.2453 44.1616 41.4951C44.9117 40.745 45.3332 39.7276 45.3332 38.6667V25.3334C45.3332 24.2725 44.9117 23.2551 44.1616 22.5049C43.4115 21.7548 42.394 21.3334 41.3332 21.3334ZM19.9998 29.3334C19.6462 29.3334 19.3071 29.4738 19.057 29.7239C18.807 29.9739 18.6665 30.3131 18.6665 30.6667C18.6665 31.0203 18.807 31.3595 19.057 31.6095C19.3071 31.8596 19.6462 32 19.9998 32C22.4752 32 24.8492 32.9834 26.5995 34.7337C28.3498 36.484 29.3332 38.858 29.3332 41.3334C29.3332 41.687 29.4736 42.0261 29.7237 42.2762C29.9737 42.5262 30.3129 42.6667 30.6665 42.6667C31.0201 42.6667 31.3593 42.5262 31.6093 42.2762C31.8594 42.0261 31.9998 41.687 31.9998 41.3334C31.9998 38.1508 30.7356 35.0985 28.4851 32.8481C26.2347 30.5977 23.1824 29.3334 19.9998 29.3334Z" fill="white"/>
</svg>
