<svg width="64" height="64" viewBox="0 0 64 64" fill="none" xmlns="http://www.w3.org/2000/svg">
<circle cx="32" cy="32" r="32" fill="#1572B6"/>
<path d="M19.9998 34.6668C19.6462 34.6668 19.3071 34.8073 19.057 35.0574C18.807 35.3074 18.6665 35.6465 18.6665 36.0002C18.6665 36.3538 18.807 36.6929 19.057 36.943C19.3071 37.193 19.6462 37.3335 19.9998 37.3335C21.0607 37.3335 22.0781 37.7549 22.8283 38.5051C23.5784 39.2552 23.9998 40.2726 23.9998 41.3335C23.9998 41.6871 24.1403 42.0263 24.3904 42.2763C24.6404 42.5264 24.9795 42.6668 25.3332 42.6668C25.6868 42.6668 26.0259 42.5264 26.276 42.2763C26.526 42.0263 26.6665 41.6871 26.6665 41.3335C26.6665 39.5654 25.9641 37.8697 24.7139 36.6194C23.4636 35.3692 21.7679 34.6668 19.9998 34.6668ZM19.0532 40.3868C18.8678 40.5737 18.7419 40.8113 18.6913 41.0697C18.6408 41.328 18.6678 41.5955 18.769 41.8385C18.8703 42.0815 19.0412 42.2891 19.2602 42.4351C19.4792 42.5812 19.7366 42.6591 19.9998 42.6591C20.2631 42.6591 20.5204 42.5812 20.7395 42.4351C20.9585 42.2891 21.1294 42.0815 21.2306 41.8385C21.3319 41.5955 21.3589 41.328 21.3083 41.0697C21.2578 40.8113 21.1319 40.5737 20.9465 40.3868C20.8226 40.2619 20.6751 40.1627 20.5126 40.095C20.3501 40.0273 20.1759 39.9924 19.9998 39.9924C19.8238 39.9924 19.6495 40.0273 19.4871 40.095C19.3246 40.1627 19.1771 40.2619 19.0532 40.3868ZM41.3332 21.3335H22.6665C21.6056 21.3335 20.5882 21.7549 19.8381 22.5051C19.0879 23.2552 18.6665 24.2726 18.6665 25.3335C18.6665 25.6871 18.807 26.0263 19.057 26.2763C19.3071 26.5264 19.6462 26.6668 19.9998 26.6668C20.3535 26.6668 20.6926 26.5264 20.9426 26.2763C21.1927 26.0263 21.3332 25.6871 21.3332 25.3335C21.3332 24.9799 21.4736 24.6407 21.7237 24.3907C21.9737 24.1406 22.3129 24.0002 22.6665 24.0002H41.3332C41.6868 24.0002 42.0259 24.1406 42.276 24.3907C42.526 24.6407 42.6665 24.9799 42.6665 25.3335V38.6668C42.6665 39.0205 42.526 39.3596 42.276 39.6096C42.0259 39.8597 41.6868 40.0002 41.3332 40.0002H35.9998C35.6462 40.0002 35.3071 40.1406 35.057 40.3907C34.807 40.6407 34.6665 40.9799 34.6665 41.3335C34.6665 41.6871 34.807 42.0263 35.057 42.2763C35.3071 42.5264 35.6462 42.6668 35.9998 42.6668H41.3332C42.394 42.6668 43.4115 42.2454 44.1616 41.4953C44.9117 40.7451 45.3332 39.7277 45.3332 38.6668V25.3335C45.3332 24.2726 44.9117 23.2552 44.1616 22.5051C43.4115 21.7549 42.394 21.3335 41.3332 21.3335ZM19.9998 29.3335C19.6462 29.3335 19.3071 29.474 19.057 29.724C18.807 29.9741 18.6665 30.3132 18.6665 30.6668C18.6665 31.0205 18.807 31.3596 19.057 31.6096C19.3071 31.8597 19.6462 32.0002 19.9998 32.0002C22.4752 32.0002 24.8492 32.9835 26.5995 34.7338C28.3498 36.4842 29.3332 38.8581 29.3332 41.3335C29.3332 41.6871 29.4736 42.0263 29.7237 42.2763C29.9737 42.5264 30.3129 42.6668 30.6665 42.6668C31.0201 42.6668 31.3593 42.5264 31.6093 42.2763C31.8594 42.0263 31.9998 41.6871 31.9998 41.3335C31.9998 38.1509 30.7356 35.0986 28.4851 32.8482C26.2347 30.5978 23.1824 29.3335 19.9998 29.3335Z" fill="white"/>
</svg>
