<svg width="64" height="64" viewBox="0 0 64 64" fill="none" xmlns="http://www.w3.org/2000/svg">
<circle cx="32" cy="32" r="32" fill="#5ED3F3"/>
<path d="M48 31.5854C48 29.4654 45.3453 27.456 41.2747 26.2107C42.2147 22.0627 41.7973 18.7614 39.9573 17.704C39.5115 17.4543 39.0069 17.3286 38.496 17.34V18.7934C38.796 18.7934 39.0373 18.8534 39.24 18.964C40.1267 19.4734 40.512 21.4094 40.212 23.9014C40.14 24.5147 40.0227 25.16 39.8787 25.8187C38.5155 25.4902 37.132 25.2528 35.7373 25.108C34.9065 23.9618 34 22.8722 33.024 21.8467C35.1507 19.8707 37.1467 18.788 38.504 18.788V17.3334C36.7093 17.3334 34.3613 18.612 31.9867 20.8294C29.6133 18.6267 27.264 17.36 25.4707 17.36V18.8134C26.8213 18.8134 28.824 19.8907 30.9507 21.8534C30.0373 22.8134 29.124 23.9014 28.256 25.108C26.8584 25.2512 25.4725 25.4909 24.108 25.8254C23.9638 25.2011 23.8503 24.5701 23.768 23.9347C23.4613 21.4414 23.84 19.5054 24.7213 18.9907C24.916 18.8734 25.1707 18.82 25.4707 18.82V17.3667C24.924 17.3667 24.4267 17.484 23.9973 17.7307C22.164 18.788 21.7533 22.0814 22.6987 26.2174C18.6413 27.4707 16 29.472 16 31.5854C16 33.7054 18.6547 35.7147 22.7253 36.9587C21.7853 41.108 22.2027 44.4094 24.0427 45.4654C24.4667 45.7134 24.9627 45.8307 25.5093 45.8307C27.304 45.8307 29.652 44.552 32.0267 42.3347C34.4 44.5387 36.748 45.804 38.5427 45.804C39.0575 45.8149 39.5659 45.6888 40.016 45.4387C41.8493 44.3827 42.26 41.0894 41.3147 36.9534C45.3587 35.708 48 33.6987 48 31.5854ZM39.5067 27.2347C39.2533 28.1065 38.9597 28.9661 38.6267 29.8107C38.0816 28.7504 37.483 27.7184 36.8333 26.7187C37.76 26.856 38.6533 27.0254 39.508 27.2347H39.5067ZM36.52 34.1814C36.0316 35.034 35.5072 35.8654 34.948 36.6734C32.991 36.8459 31.0227 36.8481 29.0653 36.68C27.9426 35.0763 26.9607 33.3784 26.1307 31.6054C26.9594 29.8282 27.9372 28.1243 29.0533 26.512C31.0099 26.3392 32.9777 26.3365 34.9347 26.504C35.476 27.28 36.0053 28.1094 36.5133 28.984C37.0093 29.8374 37.46 30.704 37.8707 31.5787C37.4554 32.464 37.0049 33.3322 36.52 34.1814ZM38.6267 33.3334C38.9787 34.2067 39.28 35.0814 39.5267 35.9294C38.6733 36.1387 37.772 36.3147 36.84 36.4507C37.487 35.4419 38.0833 34.4015 38.6267 33.3334ZM32.0133 40.2934C31.4067 39.6667 30.8 38.9694 30.2 38.2054C30.7867 38.232 31.3867 38.252 31.9933 38.252C32.6067 38.252 33.2133 38.2387 33.8067 38.2054C33.22 38.9694 32.6133 39.6667 32.0133 40.2934ZM27.16 36.4507C26.261 36.3204 25.3685 36.1487 24.4853 35.936C24.7267 35.0947 25.0267 34.2267 25.3653 33.36C25.6333 33.88 25.9147 34.4027 26.2213 34.9254C26.528 35.4467 26.84 35.956 27.16 36.4507ZM31.98 22.8774C32.5867 23.504 33.1933 24.2014 33.7933 24.9654C33.2067 24.9387 32.6067 24.9187 32 24.9187C31.3867 24.9187 30.78 24.932 30.1867 24.9654C30.7733 24.2014 31.38 23.504 31.98 22.8774ZM27.1533 26.72C26.5065 27.7266 25.9102 28.7648 25.3667 29.8307C25.0243 28.9807 24.7239 28.1143 24.4667 27.2347C25.32 27.032 26.2213 26.856 27.1533 26.72ZM21.2507 34.8854C18.9413 33.9014 17.448 32.6094 17.448 31.5854C17.448 30.5614 18.9413 29.2627 21.2507 28.2854C21.8107 28.044 22.424 27.828 23.0573 27.6267C23.4293 28.904 23.9187 30.2347 24.524 31.5987C23.9525 32.8816 23.4691 34.202 23.0773 35.5507C22.4579 35.3589 21.8483 35.1369 21.2507 34.8854ZM24.76 44.2054C23.8733 43.6987 23.488 41.76 23.788 39.2694C23.86 38.656 23.9773 38.0094 24.1213 37.3507C25.3987 37.664 26.7947 37.9054 28.2627 38.0627C29.0936 39.209 30 40.2985 30.976 41.324C28.8493 43.3 26.8533 44.3827 25.496 44.3827C25.2399 44.3855 24.9871 44.325 24.76 44.2067V44.2054ZM40.232 39.236C40.5387 41.728 40.16 43.6654 39.2787 44.18C39.084 44.2974 38.8293 44.3494 38.5293 44.3494C37.1787 44.3494 35.176 43.2734 33.0493 41.3094C34.0212 40.2881 34.9216 39.2011 35.744 38.056C37.1416 37.9129 38.5275 37.6732 39.892 37.3387C40.0427 37.9974 40.1587 38.6294 40.232 39.236ZM42.7427 34.8854C42.1827 35.1267 41.5693 35.3427 40.936 35.544C40.5373 34.1885 40.0473 32.8614 39.4693 31.572C40.0693 30.216 40.5507 28.892 40.916 27.62C41.5374 27.8125 42.1492 28.0345 42.7493 28.2854C45.0587 29.2694 46.552 30.5614 46.552 31.5854C46.5453 32.6094 45.052 33.908 42.7427 34.8854Z" fill="white"/>
<path d="M31.9935 34.5667C32.7842 34.5667 33.5426 34.2526 34.1017 33.6935C34.6608 33.1343 34.9749 32.376 34.9749 31.5853C34.9749 30.7946 34.6608 30.0363 34.1017 29.4772C33.5426 28.9181 32.7842 28.604 31.9935 28.604C31.2028 28.604 30.4445 28.9181 29.8854 29.4772C29.3263 30.0363 29.0122 30.7946 29.0122 31.5853C29.0122 32.376 29.3263 33.1343 29.8854 33.6935C30.4445 34.2526 31.2028 34.5667 31.9935 34.5667Z" fill="white"/>
</svg>
