<svg width="64" height="64" viewBox="0 0 64 64" fill="none" xmlns="http://www.w3.org/2000/svg">
<circle cx="32" cy="32" r="32" fill="#6DB33F"/>
<g clip-path="url(#clip0_2666_4045)">
<path d="M20.868 20.4849C27.1905 14.36 37.2998 14.5246 43.4246 20.88C44.1161 19.958 44.7089 18.9373 45.137 17.8835C47.1458 24.0084 48.3641 29.1454 47.903 33.1298C47.6725 36.4885 46.3554 39.7156 44.182 42.2841C38.5183 49.0018 28.4418 49.8579 21.7242 44.1941L21.5957 44.0798L21.5888 44.0753C21.5676 44.0605 21.5469 44.0452 21.5265 44.0294C21.4653 43.9818 21.4097 43.9299 21.3595 43.8744L21.3415 43.8539L21.1315 43.6673C20.9265 43.4916 20.7217 43.316 20.5399 43.1173L20.4729 43.0415C14.3479 36.719 14.5455 26.6098 20.8679 20.4849H20.868ZM23.2388 41.922C22.646 41.461 21.7899 41.5268 21.3288 42.1195C20.9235 42.6408 20.9255 43.3656 21.3349 43.8464L21.3414 43.8539L21.5955 44.0798L21.6205 44.0968C22.196 44.4753 22.9705 44.397 23.4122 43.862L23.4364 43.8319C23.8974 43.2391 23.7987 42.383 23.2389 41.9219L23.2388 41.922ZM44.9725 19.5299C43.3259 22.9875 39.2425 25.6219 35.7192 26.4451C32.3933 27.2354 29.4954 26.5769 26.433 27.7623C19.452 30.4296 19.5838 38.7278 23.4035 40.6048L23.634 40.7365C23.634 40.7365 26.3933 40.1879 29.1218 39.4634L29.3555 39.4009C30.4453 39.1071 31.5174 38.7871 32.3933 38.4644C36.9375 36.785 41.9429 32.6359 43.5893 27.8281C42.7331 32.8334 38.4194 37.674 34.1055 39.8804C31.8005 41.0658 30.0224 41.3291 26.2355 42.6464C25.7745 42.811 25.4123 42.9758 25.4123 42.9758L25.5508 42.957L25.6428 42.9451L25.7344 42.9336C26.5707 42.8299 27.3222 42.7781 27.3222 42.7781C32.6897 42.5146 41.1196 44.2929 45.0383 39.0571C49.0556 33.7225 46.8164 25.095 44.9724 19.5299H44.9725Z" fill="white" fill-opacity="0.3"/>
<path d="M23.2387 41.9219C23.7986 42.3829 23.8973 43.239 23.4362 43.8318C22.9753 44.4245 22.1191 44.4904 21.5263 44.0293C20.9337 43.5683 20.8678 42.7122 21.3288 42.1194C21.7898 41.5267 22.6459 41.4609 23.2388 41.9219H23.2387ZM44.9723 19.5298C46.8163 25.0949 49.0556 33.7224 45.0382 39.057C41.1194 44.2928 32.6896 42.5145 27.3221 42.778C27.3221 42.778 26.5706 42.8299 25.7343 42.9335L25.6427 42.945C25.5662 42.9548 25.4892 42.965 25.4122 42.9757C25.4122 42.9757 25.7744 42.8109 26.2354 42.6463C30.0223 41.3292 31.8004 41.0657 34.1054 39.8803C38.4193 37.674 42.7331 32.8333 43.5892 27.828C41.9428 32.6358 36.9374 36.7849 32.3932 38.4643C29.2649 39.6168 23.6339 40.7364 23.6339 40.7364L23.4034 40.6047C19.5837 38.7277 19.4519 30.4295 26.4329 27.7622C29.4954 26.5768 32.3932 27.2353 35.7192 26.445C39.2426 25.6218 43.3258 22.9875 44.9723 19.5298Z" fill="white"/>
</g>
<defs>
<clipPath id="clip0_2666_4045">
<rect width="32" height="32" fill="white" transform="translate(16 16)"/>
</clipPath>
</defs>
</svg>
