<svg width="64" height="64" viewBox="0 0 64 64" fill="none" xmlns="http://www.w3.org/2000/svg">
<circle cx="32" cy="32" r="32" fill="#E44F26"/>
<path d="M21.9018 43.201L19.6548 18H44.3448L42.0948 43.197L31.9848 46L21.9018 43.201Z" fill="#E44F26"/>
<path d="M32 43.858L40.17 41.593L42.092 20.061H32V43.858Z" fill="#F1662A"/>
<path d="M32 29.407H27.91L27.628 26.242H32V23.151H24.25L24.324 23.981L25.083 32.498H32V29.407V29.407ZM32 37.434L31.986 37.438L28.544 36.509L28.324 34.044H25.221L25.654 38.896L31.986 40.654L32 40.65V37.434Z" fill="#EBEBEB"/>
<path d="M31.9888 29.407V32.498H35.7948L35.4368 36.507L31.9888 37.437V40.653L38.3258 38.896L38.3718 38.374L39.0978 30.237L39.1738 29.407H31.9888V29.407ZM31.9888 23.151V26.242H39.4548L39.5168 25.548L39.6578 23.981L39.7318 23.151H31.9888V23.151Z" fill="white"/>
</svg>
