<svg width="64" height="64" viewBox="0 0 64 64" fill="none" xmlns="http://www.w3.org/2000/svg">
<circle cx="32" cy="32" r="32" fill="#6DB33F"/>
<path d="M26.3125 24.6875C26.7612 24.6875 27.125 24.3237 27.125 23.875C27.125 23.4263 26.7612 23.0625 26.3125 23.0625C25.8638 23.0625 25.5 23.4263 25.5 23.875C25.5 24.3237 25.8638 24.6875 26.3125 24.6875Z" fill="white"/>
<path d="M40.125 20.625H23.875C23.444 20.625 23.0307 20.7962 22.726 21.101C22.4212 21.4057 22.25 21.819 22.25 22.25V25.5C22.25 25.931 22.4212 26.3443 22.726 26.649C23.0307 26.9538 23.444 27.125 23.875 27.125H31.1875V30.375H32.8125V27.125H40.125C40.556 27.125 40.9693 26.9538 41.274 26.649C41.5788 26.3443 41.75 25.931 41.75 25.5V22.25C41.75 21.819 41.5788 21.4057 41.274 21.101C40.9693 20.7962 40.556 20.625 40.125 20.625ZM40.125 25.5H23.875V22.25H40.125V25.5ZM32.8125 41.75V40.125H31.1875V41.75H22.25V43.375H41.75V41.75H32.8125Z" fill="white"/>
<path d="M26.3125 36.0625C26.7612 36.0625 27.125 35.6987 27.125 35.25C27.125 34.8013 26.7612 34.4375 26.3125 34.4375C25.8638 34.4375 25.5 34.8013 25.5 35.25C25.5 35.6987 25.8638 36.0625 26.3125 36.0625Z" fill="white"/>
<path d="M23.875 38.5H40.125C40.556 38.5 40.9693 38.3288 41.274 38.024C41.5788 37.7193 41.75 37.306 41.75 36.875V33.625C41.75 33.194 41.5788 32.7807 41.274 32.476C40.9693 32.1712 40.556 32 40.125 32H23.875C23.444 32 23.0307 32.1712 22.726 32.476C22.4212 32.7807 22.25 33.194 22.25 33.625V36.875C22.25 37.306 22.4212 37.7193 22.726 38.024C23.0307 38.3288 23.444 38.5 23.875 38.5ZM23.875 33.625H40.125V36.875H23.875V33.625Z" fill="white"/>
</svg>
