<svg width="52" height="48" viewBox="0 0 52 48" fill="none" xmlns="http://www.w3.org/2000/svg">
<path d="M3.5464 4.10998V32.1744H48.4536V4.10998H3.5464ZM49.634 0.599976C50.9392 0.599976 51.9974 1.64778 51.9974 2.93998V33.3444C51.9974 34.6366 50.9392 35.6844 49.6314 35.6844L27.4534 35.6818V43.89H36.3896C37.3698 43.89 38.1628 44.6778 38.1628 45.645C38.1618 45.8767 38.1151 46.1059 38.0254 46.3196C37.9357 46.5332 37.8048 46.7271 37.6401 46.8901C37.4754 47.0531 37.2802 47.182 37.0656 47.2695C36.851 47.357 36.6213 47.4013 36.3896 47.4H15.5506C15.3189 47.4013 15.0892 47.357 14.8746 47.2695C14.66 47.182 14.4648 47.0531 14.3001 46.8901C14.1355 46.7271 14.0045 46.5332 13.9148 46.3196C13.8251 46.1059 13.7784 45.8767 13.7774 45.645C13.7774 44.6778 14.573 43.8926 15.5506 43.8926L23.9122 43.89V35.6818H2.3634C1.74048 35.6852 1.14166 35.4413 0.698513 35.0035C0.255362 34.5657 0.00412488 33.9699 0 33.347L0 2.93998C0 1.64778 1.0582 0.599976 2.366 0.599976H49.634V0.599976Z" fill="#B7D07B"/>
</svg>
