<svg width="476" height="88" viewBox="0 0 476 88" fill="none" xmlns="http://www.w3.org/2000/svg">
<path d="M20.16 15.28V14.28H19.16V15.28H20.16ZM20.16 43.96H19.16V44.96H20.16V43.96ZM0.120001 0.279999V-0.720001H-0.879999V0.279999H0.120001ZM20.16 58.48V57.48H19.16V58.48H20.16ZM20.16 88V89H21.16V88H20.16ZM0.120001 88H-0.879999V89H0.120001V88ZM87.76 24.88C87.76 21.5098 86.8619 18.8026 84.8954 16.9518C82.9402 15.1117 80.0996 14.28 76.56 14.28V16.28C79.8205 16.28 82.0798 17.0483 83.5246 18.4082C84.9581 19.7574 85.76 21.8502 85.76 24.88H87.76ZM76.56 14.28H20.16V16.28H76.56V14.28ZM19.16 15.28V43.96H21.16V15.28H19.16ZM20.16 44.96H76.56V42.96H20.16V44.96ZM76.56 44.96C80.0996 44.96 82.9402 44.1283 84.8954 42.2882C86.8619 40.4374 87.76 37.7302 87.76 34.36H85.76C85.76 37.3898 84.9581 39.4826 83.5246 40.8318C82.0798 42.1917 79.8205 42.96 76.56 42.96V44.96ZM87.76 34.36V24.88H85.76V34.36H87.76ZM0.120001 1.28H82.92V-0.720001H0.120001V1.28ZM82.92 1.28C90.6695 1.28 96.2949 3.03271 99.9796 6.36198C103.645 9.67384 105.56 14.7018 105.56 21.64H107.56C107.56 14.3382 105.535 8.68615 101.32 4.87802C97.1251 1.08729 90.9305 -0.720001 82.92 -0.720001V1.28ZM105.56 21.64V37.12H107.56V21.64H105.56ZM105.56 37.12C105.56 44.0582 103.645 49.0862 99.9796 52.398C96.2949 55.7273 90.6695 57.48 82.92 57.48V59.48C90.9305 59.48 97.1251 57.6727 101.32 53.882C105.535 50.0738 107.56 44.4218 107.56 37.12H105.56ZM82.92 57.48H20.16V59.48H82.92V57.48ZM19.16 58.48V88H21.16V58.48H19.16ZM20.16 87H0.120001V89H20.16V87ZM1.12 88V0.279999H-0.879999V88H1.12ZM141.918 31.84H140.918V32.84H141.918V31.84ZM206.358 31.84H207.358V30.84H206.358V31.84ZM206.358 44.56V45.56H207.358V44.56H206.358ZM141.918 44.56V43.56H140.918V44.56H141.918ZM141.918 73H140.918V74H141.918V73ZM223.398 73H224.398V72H223.398V73ZM223.398 88V89H224.398V88H223.398ZM121.878 88H120.878V89H121.878V88ZM121.878 0.279999V-0.720001H120.878V0.279999H121.878ZM223.398 0.279999H224.398V-0.720001H223.398V0.279999ZM223.398 15.28V16.28H224.398V15.28H223.398ZM141.918 15.28V14.28H140.918V15.28H141.918ZM141.918 32.84H206.358V30.84H141.918V32.84ZM205.358 31.84V44.56H207.358V31.84H205.358ZM206.358 43.56H141.918V45.56H206.358V43.56ZM140.918 44.56V73H142.918V44.56H140.918ZM141.918 74H223.398V72H141.918V74ZM222.398 73V88H224.398V73H222.398ZM223.398 87H121.878V89H223.398V87ZM122.878 88V0.279999H120.878V88H122.878ZM121.878 1.28H223.398V-0.720001H121.878V1.28ZM222.398 0.279999V15.28H224.398V0.279999H222.398ZM223.398 14.28H141.918V16.28H223.398V14.28ZM140.918 15.28V31.84H142.918V15.28H140.918ZM345.988 88V89H346.988V88H345.988ZM325.948 88H324.948V89H325.948V88ZM325.948 58.36H326.948V57.36H325.948V58.36ZM258.748 58.36V57.36H257.748V58.36H258.748ZM258.748 88V89H259.748V88H258.748ZM238.708 88H237.708V89H238.708V88ZM258.748 45.64H257.748V46.64H258.748V45.64ZM325.948 45.64V46.64H326.948V45.64H325.948ZM324.628 1.28C331.621 1.28 336.68 2.83446 339.984 5.76787C343.266 8.68112 344.988 13.1071 344.988 19.24H346.988C346.988 12.7329 345.15 7.67888 341.312 4.27213C337.497 0.885538 331.875 -0.720001 324.628 -0.720001V1.28ZM344.988 19.24V88H346.988V19.24H344.988ZM345.988 87H325.948V89H345.988V87ZM326.948 88V58.36H324.948V88H326.948ZM325.948 57.36H258.748V59.36H325.948V57.36ZM257.748 58.36V88H259.748V58.36H257.748ZM258.748 87H238.708V89H258.748V87ZM239.708 88V19.24H237.708V88H239.708ZM239.708 19.24C239.708 13.1054 241.421 8.67881 244.684 5.76601C247.969 2.83391 252.996 1.28 259.948 1.28V-0.720001C252.74 -0.720001 247.147 0.886084 243.352 4.27399C239.535 7.68119 237.708 12.7346 237.708 19.24H239.708ZM259.948 1.28H324.628V-0.720001H259.948V1.28ZM258.748 46.64H325.948V44.64H258.748V46.64ZM326.948 45.64V23.8H324.948V45.64H326.948ZM326.948 23.8C326.948 20.7841 326.127 18.3444 324.316 16.6748C322.521 15.0194 319.923 14.28 316.708 14.28V16.28C319.653 16.28 321.676 16.9606 322.96 18.1452C324.23 19.3156 324.948 21.1359 324.948 23.8H326.948ZM316.708 14.28H267.868V16.28H316.708V14.28ZM267.868 14.28C264.69 14.28 262.121 15.0208 260.345 16.6793C258.557 18.3497 257.748 20.7878 257.748 23.8H259.748C259.748 21.1322 260.459 19.3103 261.711 18.1407C262.976 16.9592 264.966 16.28 267.868 16.28V14.28ZM257.748 23.8V45.64H259.748V23.8H257.748ZM432.03 42.88L431.319 42.177L430.624 42.8802L431.319 43.5832L432.03 42.88ZM475.83 87.16H476.83V86.749L476.541 86.4568L475.83 87.16ZM475.83 88V89H476.83V88H475.83ZM453.27 88L452.571 88.7146L452.862 89H453.27V88ZM413.67 49.24L414.369 48.5254L414.078 48.24H413.67V49.24ZM383.91 49.24V48.24H382.91V49.24H383.91ZM383.91 88V89H384.91V88H383.91ZM363.87 88H362.87V89H363.87V88ZM363.87 0.279999V-0.720001H362.87V0.279999H363.87ZM383.91 0.279999H384.91V-0.720001H383.91V0.279999ZM383.91 36.52H382.91V37.52H383.91V36.52ZM413.79 36.52V37.52H414.192L414.482 37.2418L413.79 36.52ZM451.59 0.279999V-0.720001H451.188L450.898 -0.441845L451.59 0.279999ZM473.31 0.279999H474.31V-0.720001H473.31V0.279999ZM473.31 1.12L474.021 1.823L474.31 1.53083V1.12H473.31ZM431.319 43.5832L475.119 87.8632L476.541 86.4568L432.741 42.1768L431.319 43.5832ZM474.83 87.16V88H476.83V87.16H474.83ZM475.83 87H453.27V89H475.83V87ZM453.969 87.2854L414.369 48.5254L412.971 49.9546L452.571 88.7146L453.969 87.2854ZM413.67 48.24H383.91V50.24H413.67V48.24ZM382.91 49.24V88H384.91V49.24H382.91ZM383.91 87H363.87V89H383.91V87ZM364.87 88V0.279999H362.87V88H364.87ZM363.87 1.28H383.91V-0.720001H363.87V1.28ZM382.91 0.279999V36.52H384.91V0.279999H382.91ZM383.91 37.52H413.79V35.52H383.91V37.52ZM414.482 37.2418L452.282 1.00184L450.898 -0.441845L413.098 35.7982L414.482 37.2418ZM451.59 1.28H473.31V-0.720001H451.59V1.28ZM472.31 0.279999V1.12H474.31V0.279999H472.31ZM472.599 0.416988L431.319 42.177L432.741 43.583L474.021 1.823L472.599 0.416988Z" fill="url(#paint0_linear_151_70)"/>
<defs>
<linearGradient id="paint0_linear_151_70" x1="433.389" y1="-73.4894" x2="-15.6039" y2="20.3875" gradientUnits="userSpaceOnUse">
<stop stop-color="#FF6799"/>
<stop offset="1" stop-color="#54A1FC"/>
</linearGradient>
</defs>
</svg>
