<svg width="84" height="41" viewBox="0 0 84 41" fill="none" xmlns="http://www.w3.org/2000/svg">
<rect width="84" height="41" rx="4" fill="#A29FDC"/>
<path d="M17.6706 15.44V26H15.9586V15.44H17.6706ZM22.5144 15.44V26H20.8024V15.44H22.5144ZM32.9933 15.68C32.4599 15.68 31.9746 15.744 31.5373 15.872C31.0999 15.9893 30.7053 16.128 30.3533 16.288L29.7613 15.088C30.1986 14.8747 30.6999 14.7093 31.2653 14.592C31.8306 14.4747 32.4119 14.416 33.0093 14.416C33.9266 14.416 34.7213 14.56 35.3933 14.848C36.0759 15.1253 36.6413 15.52 37.0893 16.032C37.5373 16.544 37.8679 17.1467 38.0813 17.84C38.3053 18.5227 38.4173 19.2747 38.4173 20.096C38.4173 21.344 38.2146 22.4213 37.8093 23.328C37.4039 24.2347 36.7906 24.9333 35.9693 25.424C35.1586 25.9147 34.1346 26.16 32.8973 26.16C32.2359 26.16 31.6759 26.1227 31.2173 26.048C30.7586 25.9733 30.3053 25.856 29.8573 25.696V24.448C30.3053 24.5653 30.7586 24.672 31.2173 24.768C31.6759 24.8533 32.1613 24.896 32.6733 24.896C33.3666 24.896 33.9693 24.8053 34.4813 24.624C35.0039 24.432 35.4413 24.16 35.7933 23.808C36.1453 23.4453 36.4119 23.0027 36.5933 22.48C36.7746 21.9467 36.8759 21.3387 36.8973 20.656H31.3453V19.392H36.8813C36.8279 18.8053 36.6999 18.2827 36.4973 17.824C36.2946 17.3653 36.0226 16.976 35.6813 16.656C35.3506 16.336 34.9559 16.096 34.4973 15.936C34.0493 15.7653 33.5479 15.68 32.9933 15.68ZM44.0899 26H42.6499V15.84H39.0819V14.576H47.6419V15.84H44.0899V26ZM55.4075 26L54.0315 22.464H49.5035L48.1435 26H46.6875L51.1515 14.528H52.4475L56.8955 26H55.4075ZM52.3195 17.728C52.2875 17.6427 52.2342 17.488 52.1595 17.264C52.0848 17.04 52.0102 16.8107 51.9355 16.576C51.8715 16.3307 51.8182 16.144 51.7755 16.016C51.7222 16.2293 51.6635 16.448 51.5995 16.672C51.5462 16.8853 51.4875 17.0827 51.4235 17.264C51.3702 17.4453 51.3222 17.6 51.2795 17.728L49.9835 21.184H53.5995L52.3195 17.728ZM58.4583 26V14.576H67.0343V26H65.6103V15.84H59.8983V26H58.4583Z" fill="white"/>
</svg>
