<svg width="463" height="88" viewBox="0 0 463 88" fill="none" xmlns="http://www.w3.org/2000/svg">
<path d="M78.72 31.84C94.8 31.84 102.84 38.96 102.84 53.2V66.64C102.84 80.88 94.8 88 78.72 88H1.2V73H72.36C79.48 73 83.04 69.8 83.04 63.4V54.28C83.04 47.8 79.48 44.56 72.36 44.56H22.2C8.04 44.56 0.96 38.68 0.96 26.92V17.92C0.96 6.16 8.04 0.279999 22.2 0.279999H99.6V15.28H28.56C23.28 15.28 20.64 17.2 20.64 21.04V25.84C20.64 29.84 23.28 31.84 28.56 31.84H78.72ZM148.07 15.28C141.27 15.28 137.87 18.48 137.87 24.88V63.4C137.87 69.8 141.27 73 148.07 73H194.51C201.31 73 204.71 69.8 204.71 63.4V24.88C204.71 18.48 201.31 15.28 194.51 15.28H148.07ZM141.47 88C125.71 88 117.83 80.88 117.83 66.64V21.64C117.83 7.4 125.71 0.279999 141.47 0.279999H201.11C216.87 0.279999 224.75 7.4 224.75 21.64V66.64C224.75 80.88 216.87 88 201.11 88H141.47ZM262.457 31.84H323.177V44.56H262.457V88H242.417V0.279999H342.977V15.28H262.457V31.84ZM397.455 88V15.28H352.575V0.279999H462.615V15.28H417.615V88H397.455Z" fill="url(#paint0_linear_125_238)"/>
<defs>
<linearGradient id="paint0_linear_125_238" x1="422.791" y1="-73.4894" x2="-13.5071" y2="14.9292" gradientUnits="userSpaceOnUse">
<stop stop-color="#FF5B91"/>
<stop offset="1" stop-color="#368AEE"/>
</linearGradient>
</defs>
</svg>
