<svg width="84" height="41" viewBox="0 0 84 41" fill="none" xmlns="http://www.w3.org/2000/svg">
<rect width="84" height="41" rx="4" fill="#D98D81"/>
<path d="M15.7488 15.44V26H14.0368V15.44H15.7488ZM20.5925 15.44V26H18.8805V15.44H20.5925ZM25.4363 15.44V26H23.7243V15.44H25.4363ZM35.9151 15.68C35.3818 15.68 34.8965 15.744 34.4591 15.872C34.0218 15.9893 33.6271 16.128 33.2751 16.288L32.6831 15.088C33.1205 14.8747 33.6218 14.7093 34.1871 14.592C34.7525 14.4747 35.3338 14.416 35.9311 14.416C36.8485 14.416 37.6431 14.56 38.3151 14.848C38.9978 15.1253 39.5631 15.52 40.0111 16.032C40.4591 16.544 40.7898 17.1467 41.0031 17.84C41.2271 18.5227 41.3391 19.2747 41.3391 20.096C41.3391 21.344 41.1365 22.4213 40.7311 23.328C40.3258 24.2347 39.7125 24.9333 38.8911 25.424C38.0805 25.9147 37.0565 26.16 35.8191 26.16C35.1578 26.16 34.5978 26.1227 34.1391 26.048C33.6805 25.9733 33.2271 25.856 32.7791 25.696V24.448C33.2271 24.5653 33.6805 24.672 34.1391 24.768C34.5978 24.8533 35.0831 24.896 35.5951 24.896C36.2885 24.896 36.8911 24.8053 37.4031 24.624C37.9258 24.432 38.3631 24.16 38.7151 23.808C39.0671 23.4453 39.3338 23.0027 39.5151 22.48C39.6965 21.9467 39.7978 21.3387 39.8191 20.656H34.2671V19.392H39.8031C39.7498 18.8053 39.6218 18.2827 39.4191 17.824C39.2165 17.3653 38.9445 16.976 38.6031 16.656C38.2725 16.336 37.8778 16.096 37.4191 15.936C36.9711 15.7653 36.4698 15.68 35.9151 15.68ZM47.0118 26H45.5718V15.84H42.0038V14.576H50.5638V15.84H47.0118V26ZM58.3294 26L56.9534 22.464H52.4254L51.0654 26H49.6094L54.0734 14.528H55.3694L59.8174 26H58.3294ZM55.2414 17.728C55.2094 17.6427 55.156 17.488 55.0814 17.264C55.0067 17.04 54.932 16.8107 54.8574 16.576C54.7934 16.3307 54.74 16.144 54.6974 16.016C54.644 16.2293 54.5854 16.448 54.5214 16.672C54.468 16.8853 54.4094 17.0827 54.3454 17.264C54.292 17.4453 54.244 17.6 54.2014 17.728L52.9054 21.184H56.5214L55.2414 17.728ZM61.3801 26V14.576H69.9561V26H68.5321V15.84H62.8201V26H61.3801Z" fill="white"/>
</svg>
