<svg width="40" height="41" viewBox="0 0 40 41" fill="none" xmlns="http://www.w3.org/2000/svg">
<path d="M0.00802676 40.3831L2.71203 30.4066C0.930303 27.3399 -0.00578127 23.852 2.68645e-05 20.3016C2.68645e-05 9.21057 8.95403 0.220078 20 0.220078C31.046 0.220078 40 9.21057 40 20.3016C40 31.3926 31.046 40.3831 20 40.3831C16.4656 40.3888 12.9933 39.4497 9.94003 37.6621L0.00802676 40.3831ZM12.782 10.8793C12.5238 10.8954 12.2714 10.9637 12.04 11.0802C11.8231 11.2035 11.625 11.3577 11.452 11.538C11.212 11.7649 11.076 11.9617 10.93 12.1525C10.1908 13.1184 9.79325 14.3041 9.80003 15.5222C9.80403 16.5062 10.06 17.4641 10.46 18.3597C11.278 20.1711 12.624 22.0888 14.402 23.8661C14.83 24.2938 15.248 24.7235 15.698 25.1232C17.9048 27.074 20.5345 28.4809 23.378 29.2318L24.516 29.4065C24.886 29.4266 25.256 29.3985 25.628 29.3804C26.2105 29.3503 26.7793 29.1919 27.294 28.9166C27.626 28.7398 27.782 28.6515 28.06 28.4748C28.06 28.4748 28.146 28.4185 28.31 28.294C28.58 28.0932 28.746 27.9506 28.97 27.7157C29.136 27.543 29.28 27.3402 29.39 27.1092C29.546 26.7819 29.702 26.1574 29.766 25.6372C29.814 25.2396 29.8 25.0228 29.794 24.8882C29.786 24.6733 29.608 24.4504 29.414 24.356L28.25 23.8319C28.25 23.8319 26.51 23.0708 25.448 22.5849C25.3361 22.5359 25.2161 22.5079 25.094 22.5025C24.9572 22.4884 24.8189 22.5039 24.6885 22.5479C24.5581 22.5919 24.4386 22.6634 24.338 22.7576V22.7535C24.328 22.7535 24.194 22.868 22.748 24.6271C22.665 24.7391 22.5507 24.8238 22.4196 24.8702C22.2886 24.9167 22.1467 24.923 22.012 24.8882C21.8817 24.8532 21.7541 24.8089 21.63 24.7557C21.382 24.6512 21.296 24.6111 21.126 24.5368L21.116 24.5328C19.9718 24.0312 18.9125 23.3537 17.976 22.5246C17.724 22.3037 17.49 22.0627 17.25 21.8298C16.4632 21.0732 15.7775 20.2173 15.21 19.2835L15.092 19.0927C15.0073 18.9645 14.9387 18.8262 14.888 18.681C14.812 18.3858 15.01 18.1489 15.01 18.1489C15.01 18.1489 15.496 17.6147 15.722 17.3255C15.9102 17.0852 16.0858 16.8352 16.248 16.5765C16.484 16.1949 16.558 15.8033 16.434 15.5001C15.874 14.1265 15.294 12.759 14.698 11.4015C14.58 11.1324 14.23 10.9396 13.912 10.9014C13.804 10.8894 13.696 10.8773 13.588 10.8693C13.3194 10.8559 13.0503 10.8586 12.782 10.8773V10.8793Z" fill="#F4F4F4"/>
</svg>
